<?xml version="1.0" encoding="UTF-8" standalone="no"?>
<!-- Created with Inkscape (http://www.inkscape.org/) -->

<svg
   xmlns:dc="http://purl.org/dc/elements/1.1/"
   xmlns:cc="http://creativecommons.org/ns#"
   xmlns:rdf="http://www.w3.org/1999/02/22-rdf-syntax-ns#"
   xmlns:svg="http://www.w3.org/2000/svg"
   xmlns="http://www.w3.org/2000/svg"
   xmlns:sodipodi="http://sodipodi.sourceforge.net/DTD/sodipodi-0.dtd"
   xmlns:inkscape="http://www.inkscape.org/namespaces/inkscape"
   id="svg4873"
   version="1.1"
   inkscape:version="0.91 r13725"
   xml:space="preserve"
   width="244.2825"
   height="305.96249"
   viewBox="0 0 244.2825 305.96249"
   sodipodi:docname="laserAcrylicHoles.svg"><metadata
     id="metadata4879"><rdf:RDF><cc:Work
         rdf:about=""><dc:format>image/svg+xml</dc:format><dc:type
           rdf:resource="http://purl.org/dc/dcmitype/StillImage" /><dc:title></dc:title></cc:Work></rdf:RDF></metadata><defs
     id="defs4877"><clipPath
       clipPathUnits="userSpaceOnUse"
       id="clipPath4905"><path
         d="m 0,244.77 195.426,0 L 195.426,0 0,0 0,244.77 Z"
         id="path4907"
         inkscape:connector-curvature="0" /></clipPath></defs><sodipodi:namedview
     pagecolor="#ffffff"
     bordercolor="#666666"
     borderopacity="1"
     objecttolerance="10"
     gridtolerance="10"
     guidetolerance="10"
     inkscape:pageopacity="0"
     inkscape:pageshadow="2"
     inkscape:window-width="1920"
     inkscape:window-height="1017"
     id="namedview4875"
     showgrid="false"
     inkscape:zoom="1.5426727"
     inkscape:cx="220.51392"
     inkscape:cy="156.20488"
     inkscape:window-x="-8"
     inkscape:window-y="-8"
     inkscape:window-maximized="1"
     inkscape:current-layer="g4881" /><g
     id="g4881"
     inkscape:groupmode="layer"
     inkscape:label="laserAcrylic"
     transform="matrix(1.25,0,0,-1.25,0,305.9625)"><g
       id="g5495"
       transform="translate(2.8989535,0)"><g
         transform="translate(90.8276,16.6704)"
         id="g4883"><path
           inkscape:connector-curvature="0"
           id="path4885"
           style="fill:none;stroke:#343433;stroke-width:0.072;stroke-linecap:butt;stroke-linejoin:miter;stroke-miterlimit:10;stroke-dasharray:none;stroke-opacity:1"
           d="M 0,0 0,213.731" /></g><g
         transform="translate(90.8276,16.6704)"
         id="g4887"><path
           inkscape:connector-curvature="0"
           id="path4889"
           style="fill:none;stroke:#343433;stroke-width:0.072;stroke-linecap:butt;stroke-linejoin:miter;stroke-miterlimit:10;stroke-dasharray:none;stroke-opacity:1"
           d="M 0,0 -71.15,0" /></g><g
         transform="translate(19.6772,16.6704)"
         id="g4891"><path
           inkscape:connector-curvature="0"
           id="path4893"
           style="fill:none;stroke:#343433;stroke-width:0.072;stroke-linecap:butt;stroke-linejoin:miter;stroke-miterlimit:10;stroke-dasharray:none;stroke-opacity:1"
           d="M 0,0 0,213.731" /></g><g
         transform="translate(90.8276,230.4019)"
         id="g4895"><path
           inkscape:connector-curvature="0"
           id="path4897"
           style="fill:none;stroke:#343433;stroke-width:0.072;stroke-linecap:butt;stroke-linejoin:miter;stroke-miterlimit:10;stroke-dasharray:none;stroke-opacity:1"
           d="M 0,0 -71.15,0" /></g></g><path
       d="m 181.416,159.537 -70.866,0 0,70.865 70.866,0 0,-70.865 z"
       style="fill:none;stroke:#343433;stroke-width:0.072;stroke-linecap:butt;stroke-linejoin:miter;stroke-miterlimit:10;stroke-dasharray:none;stroke-opacity:1"
       id="path4899"
       inkscape:connector-curvature="0" /><g
       id="g4901"><g
         id="g4903"
         clip-path="url(#clipPath4905)"><g
           id="g4909"
           transform="translate(123.2432,219.7339)"><path
             d="m 0,0 c 0,-1.305 -1.057,-2.36 -2.36,-2.36 -1.304,0 -2.361,1.055 -2.361,2.36 0,1.305 1.057,2.363 2.361,2.363 C -1.057,2.363 0,1.305 0,0 Z"
             style="fill:none;stroke:#343433;stroke-width:0.072;stroke-linecap:butt;stroke-linejoin:miter;stroke-miterlimit:10;stroke-dasharray:none;stroke-opacity:1"
             id="path4911"
             inkscape:connector-curvature="0" /></g><g
           id="g4913"
           transform="translate(173.2432,169.7339)"><path
             d="m 0,0 c 0,-1.305 -1.057,-2.36 -2.36,-2.36 -1.304,0 -2.361,1.055 -2.361,2.36 0,1.305 1.057,2.363 2.361,2.363 C -1.057,2.363 0,1.305 0,0 Z"
             style="fill:none;stroke:#343433;stroke-width:0.072;stroke-linecap:butt;stroke-linejoin:miter;stroke-miterlimit:10;stroke-dasharray:none;stroke-opacity:1"
             id="path4915"
             inkscape:connector-curvature="0" /></g><g
           id="g4917"
           transform="translate(123.2441,130.6245)"><path
             d="m 0,0 c 0,-1.303 -1.057,-2.359 -2.36,-2.359 -1.304,0 -2.361,1.056 -2.361,2.359 0,1.305 1.057,2.363 2.361,2.363 C -1.057,2.363 0,1.305 0,0 Z"
             style="fill:none;stroke:#343433;stroke-width:0.072;stroke-linecap:butt;stroke-linejoin:miter;stroke-miterlimit:10;stroke-dasharray:none;stroke-opacity:1"
             id="path4919"
             inkscape:connector-curvature="0" /></g><path
           d="m 111.278,140.23 19.209,0 0,-19.208 -19.209,0 0,19.208 z"
           style="fill:none;stroke:#343433;stroke-width:0.072;stroke-linecap:butt;stroke-linejoin:miter;stroke-miterlimit:10;stroke-dasharray:none;stroke-opacity:1"
           id="path4921"
           inkscape:connector-curvature="0" /><g
           id="g4923"
           transform="translate(173.2441,130.625)"><path
             d="m 0,0 c 0,-1.303 -1.057,-2.359 -2.36,-2.359 -1.304,0 -2.361,1.056 -2.361,2.359 0,1.305 1.057,2.363 2.361,2.363 C -1.057,2.363 0,1.305 0,0 Z"
             style="fill:none;stroke:#343433;stroke-width:0.072;stroke-linecap:butt;stroke-linejoin:miter;stroke-miterlimit:10;stroke-dasharray:none;stroke-opacity:1"
             id="path4925"
             inkscape:connector-curvature="0" /></g><path
           d="m 161.278,140.23 19.209,0 0,-19.208 -19.209,0 0,19.208 z"
           style="fill:none;stroke:#343433;stroke-width:0.072;stroke-linecap:butt;stroke-linejoin:miter;stroke-miterlimit:10;stroke-dasharray:none;stroke-opacity:1"
           id="path4927"
           inkscape:connector-curvature="0" /></g></g><path
       d="m 85.235531,159.54131 -54.168355,0 0,39.63796 54.168355,0 0,-39.63796 z"
       style="fill:none;stroke:#343433;stroke-width:0.04707888;stroke-linecap:butt;stroke-linejoin:miter;stroke-miterlimit:10;stroke-dasharray:none;stroke-opacity:1"
       id="path4899-1-5"
       inkscape:connector-curvature="0" /><path
       d="m 85.235531,48.356815 -54.168355,0 0,39.637961 54.168355,0 0,-39.637961 z"
       style="fill:none;stroke:#343433;stroke-width:0.04707888;stroke-linecap:butt;stroke-linejoin:miter;stroke-miterlimit:10;stroke-dasharray:none;stroke-opacity:1"
       id="path4899-1-5-2"
       inkscape:connector-curvature="0" /></g></svg>