  0
SECTION
  2
HEADER
  9
$ACADVER
  1
AC1014
  9
$HANDSEED
  5
FFFF
  9
$MEASUREMENT
 70
     1
  0
ENDSEC
  0
SECTION
  2
TABLES
  0
TABLE
  2
VPORT
  5
8
330
0
100
AcDbSymbolTable
 70
     4
  0
VPORT
  5
2E
330
8
100
AcDbSymbolTableRecord
100
AcDbViewportTableRecord
  2
*ACTIVE
 70
     0
 10
0.0
 20
0.0
 11
1.0
 21
1.0
 12
210.0
 22
148.5
 13
0.0
 23
0.0
 14
10.0
 24
10.0
 15
10.0
 25
10.0
 16
0.0
 26
0.0
 36
1.0
 17
0.0
 27
0.0
 37
0.0
 40
341.0
 41
1.24
 42
50.0
 43
0.0
 44
0.0
 50
0.0
 51
0.0
 71
     0
 72
   100
 73
     1
 74
     3
 75
     0
 76
     0
 77
     0
 78
     0
  0
ENDTAB
  0
TABLE
  2
LTYPE
  5
5
330
0
100
AcDbSymbolTable
 70
     1
  0
LTYPE
  5
14
330
5
100
AcDbSymbolTableRecord
100
AcDbLinetypeTableRecord
  2
BYBLOCK
 70
     0
  3

 72
    65
 73
     0
 40
0.0
  0
LTYPE
  5
15
330
5
100
AcDbSymbolTableRecord
100
AcDbLinetypeTableRecord
  2
BYLAYER
 70
     0
  3

 72
    65
 73
     0
 40
0.0
  0
LTYPE
  5
16
330
5
100
AcDbSymbolTableRecord
100
AcDbLinetypeTableRecord
  2
CONTINUOUS
 70
     0
  3
Solid line
 72
    65
 73
     0
 40
0.0
  0
ENDTAB
  0
TABLE
  2
LAYER
  5
2
100
AcDbSymbolTable
 70
1
  0
LAYER
  5
50
100
AcDbSymbolTableRecord
100
AcDbLayerTableRecord
  2
0
 70
0
  6
CONTINUOUS
  0
ENDTAB
  0
TABLE
  2
STYLE
  5
3
330
0
100
AcDbSymbolTable
 70
     1
  0
STYLE
  5
11
330
3
100
AcDbSymbolTableRecord
100
AcDbTextStyleTableRecord
  2
STANDARD
 70
     0
 40
0.0
 41
1.0
 50
0.0
 71
     0
 42
2.5
  3
txt
  4

  0
ENDTAB
  0
TABLE
  2
VIEW
  5
6
330
0
100
AcDbSymbolTable
 70
     0
  0
ENDTAB
  0
TABLE
  2
UCS
  5
7
330
0
100
AcDbSymbolTable
 70
     0
  0
ENDTAB
  0
TABLE
  2
APPID
  5
9
330
0
100
AcDbSymbolTable
 70
     2
  0
APPID
  5
12
330
9
100
AcDbSymbolTableRecord
100
AcDbRegAppTableRecord
  2
ACAD
 70
     0
  0
ENDTAB
  0
TABLE
  2
DIMSTYLE
  5
A
330
0
100
AcDbSymbolTable
 70
     1
  0
DIMSTYLE
105
27
330
A
100
AcDbSymbolTableRecord
100
AcDbDimStyleTableRecord
  2
ISO-25
 70
     0
  3

  4

  5

  6

  7

 40
1.0
 41
2.5
 42
0.625
 43
3.75
 44
1.25
 45
0.0
 46
0.0
 47
0.0
 48
0.0
140
2.5
141
2.5
142
0.0
143
0.03937007874016
144
1.0
145
0.0
146
1.0
147
0.625
 71
     0
 72
     0
 73
     0
 74
     0
 75
     0
 76
     0
 77
     1
 78
     8
170
     0
171
     3
172
     1
173
     0
174
     0
175
     0
176
     0
177
     0
178
     0
270
     2
271
     2
272
     2
273
     2
274
     3
340
11
275
     0
280
     0
281
     0
282
     0
283
     0
284
     8
285
     0
286
     0
287
     3
288
     0
  0
ENDTAB
  0
TABLE
  2
BLOCK_RECORD
  5
1
330
0
100
AcDbSymbolTable
 70
     1
  0
BLOCK_RECORD
  5
1F
330
1
100
AcDbSymbolTableRecord
100
AcDbBlockTableRecord
  2
*MODEL_SPACE
  0
BLOCK_RECORD
  5
1B
330
1
100
AcDbSymbolTableRecord
100
AcDbBlockTableRecord
  2
*PAPER_SPACE
  0
ENDTAB
  0
ENDSEC
  0
SECTION
  2
BLOCKS
  0
BLOCK
  5
20
330
1F
100
AcDbEntity
  8
0
100
AcDbBlockBegin
  2
*MODEL_SPACE
 70
     0
 10
0.0
 20
0.0
 30
0.0
  3
*MODEL_SPACE
  1

  0
ENDBLK
  5
21
330
1F
100
AcDbEntity
  8
0
100
AcDbBlockEnd
  0
BLOCK
  5
1C
330
1B
100
AcDbEntity
 67
     1
  8
0
100
AcDbBlockBegin
  2
*PAPER_SPACE
  1

  0
ENDBLK
  5
1D
330
1B
100
AcDbEntity
 67
     1
  8
0
100
AcDbBlockEnd
  0
ENDSEC
  0
SECTION
  2
ENTITIES
  0
LINE
  5
100
100
AcDbEntity
  8
0
 62
7
100
AcDbLine
 10
17.695334
 20
47.469781
 30
0.0
 11
14.534444
 21
47.469781
 31
0.0
  0
LINE
  5
101
100
AcDbEntity
  8
0
 62
7
100
AcDbLine
 10
14.534444
 20
47.469781
 30
0.0
 11
13.970000
 21
46.058669
 31
0.0
  0
LINE
  5
102
100
AcDbEntity
  8
0
 62
7
100
AcDbLine
 10
13.970000
 20
46.058669
 30
0.0
 11
13.970000
 21
43.546892
 31
0.0
  0
LINE
  5
103
100
AcDbEntity
  8
0
 62
7
100
AcDbLine
 10
13.970000
 20
43.546892
 30
0.0
 11
23.988889
 21
43.546892
 31
0.0
  0
LINE
  5
104
100
AcDbEntity
  8
0
 62
7
100
AcDbLine
 10
23.988889
 20
43.546892
 30
0.0
 11
23.988889
 21
57.770892
 31
0.0
  0
LINE
  5
105
100
AcDbEntity
  8
0
 62
7
100
AcDbLine
 10
23.988889
 20
57.770892
 30
0.0
 11
2.822222
 21
57.770892
 31
0.0
  0
LINE
  5
106
100
AcDbEntity
  8
0
 62
7
100
AcDbLine
 10
2.822222
 20
57.770892
 30
0.0
 11
2.822222
 21
43.546892
 31
0.0
  0
LINE
  5
107
100
AcDbEntity
  8
0
 62
7
100
AcDbLine
 10
2.822222
 20
43.546892
 30
0.0
 11
12.841111
 21
43.546892
 31
0.0
  0
LINE
  5
108
100
AcDbEntity
  8
0
 62
7
100
AcDbLine
 10
12.841111
 20
43.546892
 30
0.0
 11
12.841111
 21
46.058669
 31
0.0
  0
LINE
  5
109
100
AcDbEntity
  8
0
 62
7
100
AcDbLine
 10
12.841111
 20
46.058669
 30
0.0
 11
12.276667
 21
47.469781
 31
0.0
  0
LINE
  5
10a
100
AcDbEntity
  8
0
 62
7
100
AcDbLine
 10
12.276667
 20
47.469781
 30
0.0
 11
9.115777
 21
47.469781
 31
0.0
  0
LINE
  5
10b
100
AcDbEntity
  8
0
 62
7
100
AcDbLine
 10
9.115777
 20
47.469781
 30
0.0
 11
9.115777
 21
55.089781
 31
0.0
  0
LINE
  5
10c
100
AcDbEntity
  8
0
 62
7
100
AcDbLine
 10
9.115777
 20
55.089781
 30
0.0
 11
17.695334
 21
55.089781
 31
0.0
  0
LINE
  5
10d
100
AcDbEntity
  8
0
 62
7
100
AcDbLine
 10
17.695334
 20
55.089781
 30
0.0
 11
17.695334
 21
47.469781
 31
0.0
  0
LINE
  5
10e
100
AcDbEntity
  8
0
 62
7
100
AcDbLine
 10
23.142222
 20
44.816892
 30
0.0
 11
23.251789
 21
44.802470
 31
0.0
  0
LINE
  5
10f
100
AcDbEntity
  8
0
 62
7
100
AcDbLine
 10
23.251789
 20
44.802467
 30
0.0
 11
23.353889
 21
44.760168
 31
0.0
  0
LINE
  5
110
100
AcDbEntity
  8
0
 62
7
100
AcDbLine
 10
23.353889
 20
44.760168
 30
0.0
 11
23.441564
 21
44.692895
 31
0.0
  0
LINE
  5
111
100
AcDbEntity
  8
0
 62
7
100
AcDbLine
 10
23.441564
 20
44.692895
 30
0.0
 11
23.508841
 21
44.605225
 31
0.0
  0
LINE
  5
112
100
AcDbEntity
  8
0
 62
7
100
AcDbLine
 10
23.508841
 20
44.605225
 30
0.0
 11
23.551131
 21
44.503123
 31
0.0
  0
LINE
  5
113
100
AcDbEntity
  8
0
 62
7
100
AcDbLine
 10
23.551131
 20
44.503123
 30
0.0
 11
23.565556
 21
44.393558
 31
0.0
  0
LINE
  5
114
100
AcDbEntity
  8
0
 62
7
100
AcDbLine
 10
23.565556
 20
44.393558
 30
0.0
 11
23.551131
 21
44.283988
 31
0.0
  0
LINE
  5
115
100
AcDbEntity
  8
0
 62
7
100
AcDbLine
 10
23.551131
 20
44.283988
 30
0.0
 11
23.508841
 21
44.181892
 31
0.0
  0
LINE
  5
116
100
AcDbEntity
  8
0
 62
7
100
AcDbLine
 10
23.508841
 20
44.181892
 30
0.0
 11
23.441564
 21
44.094214
 31
0.0
  0
LINE
  5
117
100
AcDbEntity
  8
0
 62
7
100
AcDbLine
 10
23.441564
 20
44.094214
 30
0.0
 11
23.353889
 21
44.026940
 31
0.0
  0
LINE
  5
118
100
AcDbEntity
  8
0
 62
7
100
AcDbLine
 10
23.353889
 20
44.026940
 30
0.0
 11
23.251789
 21
43.984644
 31
0.0
  0
LINE
  5
119
100
AcDbEntity
  8
0
 62
7
100
AcDbLine
 10
23.251789
 20
43.984644
 30
0.0
 11
23.142222
 21
43.970225
 31
0.0
  0
LINE
  5
11a
100
AcDbEntity
  8
0
 62
7
100
AcDbLine
 10
23.142222
 20
43.970225
 30
0.0
 11
23.032655
 21
43.984647
 31
0.0
  0
LINE
  5
11b
100
AcDbEntity
  8
0
 62
7
100
AcDbLine
 10
23.032655
 20
43.984644
 30
0.0
 11
22.930556
 21
44.026940
 31
0.0
  0
LINE
  5
11c
100
AcDbEntity
  8
0
 62
7
100
AcDbLine
 10
22.930556
 20
44.026940
 30
0.0
 11
22.842880
 21
44.094214
 31
0.0
  0
LINE
  5
11d
100
AcDbEntity
  8
0
 62
7
100
AcDbLine
 10
22.842880
 20
44.094214
 30
0.0
 11
22.775604
 21
44.181892
 31
0.0
  0
LINE
  5
11e
100
AcDbEntity
  8
0
 62
7
100
AcDbLine
 10
22.775604
 20
44.181892
 30
0.0
 11
22.733313
 21
44.283988
 31
0.0
  0
LINE
  5
11f
100
AcDbEntity
  8
0
 62
7
100
AcDbLine
 10
22.733313
 20
44.283988
 30
0.0
 11
22.718889
 21
44.393558
 31
0.0
  0
LINE
  5
120
100
AcDbEntity
  8
0
 62
7
100
AcDbLine
 10
22.718889
 20
44.393558
 30
0.0
 11
22.733313
 21
44.503123
 31
0.0
  0
LINE
  5
121
100
AcDbEntity
  8
0
 62
7
100
AcDbLine
 10
22.733313
 20
44.503123
 30
0.0
 11
22.775604
 21
44.605225
 31
0.0
  0
LINE
  5
122
100
AcDbEntity
  8
0
 62
7
100
AcDbLine
 10
22.775604
 20
44.605225
 30
0.0
 11
22.842880
 21
44.692895
 31
0.0
  0
LINE
  5
123
100
AcDbEntity
  8
0
 62
7
100
AcDbLine
 10
22.842880
 20
44.692895
 30
0.0
 11
22.930556
 21
44.760168
 31
0.0
  0
LINE
  5
124
100
AcDbEntity
  8
0
 62
7
100
AcDbLine
 10
22.930556
 20
44.760168
 30
0.0
 11
23.032655
 21
44.802467
 31
0.0
  0
LINE
  5
125
100
AcDbEntity
  8
0
 62
7
100
AcDbLine
 10
23.032655
 20
44.802467
 30
0.0
 11
23.142222
 21
44.816892
 31
0.0
  0
LINE
  5
126
100
AcDbEntity
  8
0
 62
7
100
AcDbLine
 10
23.251789
 20
56.515316
 30
0.0
 11
23.142222
 21
56.500892
 31
0.0
  0
LINE
  5
127
100
AcDbEntity
  8
0
 62
7
100
AcDbLine
 10
23.142222
 20
56.500892
 30
0.0
 11
23.032655
 21
56.515313
 31
0.0
  0
LINE
  5
128
100
AcDbEntity
  8
0
 62
7
100
AcDbLine
 10
23.032655
 20
56.515316
 30
0.0
 11
22.930556
 21
56.557604
 31
0.0
  0
LINE
  5
129
100
AcDbEntity
  8
0
 62
7
100
AcDbLine
 10
22.930556
 20
56.557604
 30
0.0
 11
22.842880
 21
56.624880
 31
0.0
  0
LINE
  5
12a
100
AcDbEntity
  8
0
 62
7
100
AcDbLine
 10
22.842880
 20
56.624880
 30
0.0
 11
22.775604
 21
56.712558
 31
0.0
  0
LINE
  5
12b
100
AcDbEntity
  8
0
 62
7
100
AcDbLine
 10
22.775604
 20
56.712558
 30
0.0
 11
22.733313
 21
56.814652
 31
0.0
  0
LINE
  5
12c
100
AcDbEntity
  8
0
 62
7
100
AcDbLine
 10
22.733313
 20
56.814652
 30
0.0
 11
22.718889
 21
56.924225
 31
0.0
  0
LINE
  5
12d
100
AcDbEntity
  8
0
 62
7
100
AcDbLine
 10
22.718889
 20
56.924225
 30
0.0
 11
22.733313
 21
57.033787
 31
0.0
  0
LINE
  5
12e
100
AcDbEntity
  8
0
 62
7
100
AcDbLine
 10
22.733313
 20
57.033787
 30
0.0
 11
22.775604
 21
57.135892
 31
0.0
  0
LINE
  5
12f
100
AcDbEntity
  8
0
 62
7
100
AcDbLine
 10
22.775604
 20
57.135892
 30
0.0
 11
22.842880
 21
57.223570
 31
0.0
  0
LINE
  5
130
100
AcDbEntity
  8
0
 62
7
100
AcDbLine
 10
22.842880
 20
57.223570
 30
0.0
 11
22.930556
 21
57.290843
 31
0.0
  0
LINE
  5
131
100
AcDbEntity
  8
0
 62
7
100
AcDbLine
 10
22.930556
 20
57.290843
 30
0.0
 11
23.032655
 21
57.333131
 31
0.0
  0
LINE
  5
132
100
AcDbEntity
  8
0
 62
7
100
AcDbLine
 10
23.032655
 20
57.333131
 30
0.0
 11
23.142222
 21
57.347558
 31
0.0
  0
LINE
  5
133
100
AcDbEntity
  8
0
 62
7
100
AcDbLine
 10
23.142222
 20
57.347558
 30
0.0
 11
23.251789
 21
57.333137
 31
0.0
  0
LINE
  5
134
100
AcDbEntity
  8
0
 62
7
100
AcDbLine
 10
23.251789
 20
57.333131
 30
0.0
 11
23.353889
 21
57.290843
 31
0.0
  0
LINE
  5
135
100
AcDbEntity
  8
0
 62
7
100
AcDbLine
 10
23.353889
 20
57.290843
 30
0.0
 11
23.441564
 21
57.223570
 31
0.0
  0
LINE
  5
136
100
AcDbEntity
  8
0
 62
7
100
AcDbLine
 10
23.441564
 20
57.223570
 30
0.0
 11
23.508841
 21
57.135892
 31
0.0
  0
LINE
  5
137
100
AcDbEntity
  8
0
 62
7
100
AcDbLine
 10
23.508841
 20
57.135892
 30
0.0
 11
23.551131
 21
57.033787
 31
0.0
  0
LINE
  5
138
100
AcDbEntity
  8
0
 62
7
100
AcDbLine
 10
23.551131
 20
57.033787
 30
0.0
 11
23.565556
 21
56.924225
 31
0.0
  0
LINE
  5
139
100
AcDbEntity
  8
0
 62
7
100
AcDbLine
 10
23.565556
 20
56.924225
 30
0.0
 11
23.551131
 21
56.814652
 31
0.0
  0
LINE
  5
13a
100
AcDbEntity
  8
0
 62
7
100
AcDbLine
 10
23.551131
 20
56.814652
 30
0.0
 11
23.508841
 21
56.712558
 31
0.0
  0
LINE
  5
13b
100
AcDbEntity
  8
0
 62
7
100
AcDbLine
 10
23.508841
 20
56.712558
 30
0.0
 11
23.441564
 21
56.624880
 31
0.0
  0
LINE
  5
13c
100
AcDbEntity
  8
0
 62
7
100
AcDbLine
 10
23.441564
 20
56.624880
 30
0.0
 11
23.353889
 21
56.557604
 31
0.0
  0
LINE
  5
13d
100
AcDbEntity
  8
0
 62
7
100
AcDbLine
 10
23.353889
 20
56.557604
 30
0.0
 11
23.251789
 21
56.515316
 31
0.0
  0
LINE
  5
13e
100
AcDbEntity
  8
0
 62
7
100
AcDbLine
 10
3.778455
 20
56.515316
 30
0.0
 11
3.668889
 21
56.500892
 31
0.0
  0
LINE
  5
13f
100
AcDbEntity
  8
0
 62
7
100
AcDbLine
 10
3.668889
 20
56.500892
 30
0.0
 11
3.559322
 21
56.515313
 31
0.0
  0
LINE
  5
140
100
AcDbEntity
  8
0
 62
7
100
AcDbLine
 10
3.559322
 20
56.515316
 30
0.0
 11
3.457222
 21
56.557604
 31
0.0
  0
LINE
  5
141
100
AcDbEntity
  8
0
 62
7
100
AcDbLine
 10
3.457222
 20
56.557604
 30
0.0
 11
3.369547
 21
56.624880
 31
0.0
  0
LINE
  5
142
100
AcDbEntity
  8
0
 62
7
100
AcDbLine
 10
3.369547
 20
56.624880
 30
0.0
 11
3.302271
 21
56.712558
 31
0.0
  0
LINE
  5
143
100
AcDbEntity
  8
0
 62
7
100
AcDbLine
 10
3.302271
 20
56.712558
 30
0.0
 11
3.259980
 21
56.814652
 31
0.0
  0
LINE
  5
144
100
AcDbEntity
  8
0
 62
7
100
AcDbLine
 10
3.259980
 20
56.814652
 30
0.0
 11
3.245556
 21
56.924225
 31
0.0
  0
LINE
  5
145
100
AcDbEntity
  8
0
 62
7
100
AcDbLine
 10
3.245556
 20
56.924225
 30
0.0
 11
3.259980
 21
57.033787
 31
0.0
  0
LINE
  5
146
100
AcDbEntity
  8
0
 62
7
100
AcDbLine
 10
3.259980
 20
57.033787
 30
0.0
 11
3.302271
 21
57.135892
 31
0.0
  0
LINE
  5
147
100
AcDbEntity
  8
0
 62
7
100
AcDbLine
 10
3.302271
 20
57.135892
 30
0.0
 11
3.369547
 21
57.223570
 31
0.0
  0
LINE
  5
148
100
AcDbEntity
  8
0
 62
7
100
AcDbLine
 10
3.369547
 20
57.223570
 30
0.0
 11
3.457222
 21
57.290843
 31
0.0
  0
LINE
  5
149
100
AcDbEntity
  8
0
 62
7
100
AcDbLine
 10
3.457222
 20
57.290843
 30
0.0
 11
3.559322
 21
57.333131
 31
0.0
  0
LINE
  5
14a
100
AcDbEntity
  8
0
 62
7
100
AcDbLine
 10
3.559322
 20
57.333131
 30
0.0
 11
3.668889
 21
57.347558
 31
0.0
  0
LINE
  5
14b
100
AcDbEntity
  8
0
 62
7
100
AcDbLine
 10
3.668889
 20
57.347558
 30
0.0
 11
3.778455
 21
57.333137
 31
0.0
  0
LINE
  5
14c
100
AcDbEntity
  8
0
 62
7
100
AcDbLine
 10
3.778455
 20
57.333131
 30
0.0
 11
3.880556
 21
57.290843
 31
0.0
  0
LINE
  5
14d
100
AcDbEntity
  8
0
 62
7
100
AcDbLine
 10
3.880556
 20
57.290843
 30
0.0
 11
3.968231
 21
57.223570
 31
0.0
  0
LINE
  5
14e
100
AcDbEntity
  8
0
 62
7
100
AcDbLine
 10
3.968231
 20
57.223570
 30
0.0
 11
4.035506
 21
57.135892
 31
0.0
  0
LINE
  5
14f
100
AcDbEntity
  8
0
 62
7
100
AcDbLine
 10
4.035506
 20
57.135892
 30
0.0
 11
4.077798
 21
57.033787
 31
0.0
  0
LINE
  5
150
100
AcDbEntity
  8
0
 62
7
100
AcDbLine
 10
4.077798
 20
57.033787
 30
0.0
 11
4.092222
 21
56.924225
 31
0.0
  0
LINE
  5
151
100
AcDbEntity
  8
0
 62
7
100
AcDbLine
 10
4.092222
 20
56.924225
 30
0.0
 11
4.077798
 21
56.814652
 31
0.0
  0
LINE
  5
152
100
AcDbEntity
  8
0
 62
7
100
AcDbLine
 10
4.077798
 20
56.814652
 30
0.0
 11
4.035506
 21
56.712558
 31
0.0
  0
LINE
  5
153
100
AcDbEntity
  8
0
 62
7
100
AcDbLine
 10
4.035506
 20
56.712558
 30
0.0
 11
3.968231
 21
56.624880
 31
0.0
  0
LINE
  5
154
100
AcDbEntity
  8
0
 62
7
100
AcDbLine
 10
3.968231
 20
56.624880
 30
0.0
 11
3.880556
 21
56.557604
 31
0.0
  0
LINE
  5
155
100
AcDbEntity
  8
0
 62
7
100
AcDbLine
 10
3.880556
 20
56.557604
 30
0.0
 11
3.778455
 21
56.515316
 31
0.0
  0
LINE
  5
156
100
AcDbEntity
  8
0
 62
7
100
AcDbLine
 10
3.968231
 20
44.692895
 30
0.0
 11
4.035506
 21
44.605225
 31
0.0
  0
LINE
  5
157
100
AcDbEntity
  8
0
 62
7
100
AcDbLine
 10
4.035506
 20
44.605225
 30
0.0
 11
4.077798
 21
44.503123
 31
0.0
  0
LINE
  5
158
100
AcDbEntity
  8
0
 62
7
100
AcDbLine
 10
4.077798
 20
44.503123
 30
0.0
 11
4.092222
 21
44.393558
 31
0.0
  0
LINE
  5
159
100
AcDbEntity
  8
0
 62
7
100
AcDbLine
 10
4.092222
 20
44.393558
 30
0.0
 11
4.077798
 21
44.283988
 31
0.0
  0
LINE
  5
15a
100
AcDbEntity
  8
0
 62
7
100
AcDbLine
 10
4.077798
 20
44.283988
 30
0.0
 11
4.035506
 21
44.181892
 31
0.0
  0
LINE
  5
15b
100
AcDbEntity
  8
0
 62
7
100
AcDbLine
 10
4.035506
 20
44.181892
 30
0.0
 11
3.968231
 21
44.094214
 31
0.0
  0
LINE
  5
15c
100
AcDbEntity
  8
0
 62
7
100
AcDbLine
 10
3.968231
 20
44.094214
 30
0.0
 11
3.880556
 21
44.026940
 31
0.0
  0
LINE
  5
15d
100
AcDbEntity
  8
0
 62
7
100
AcDbLine
 10
3.880556
 20
44.026940
 30
0.0
 11
3.778455
 21
43.984644
 31
0.0
  0
LINE
  5
15e
100
AcDbEntity
  8
0
 62
7
100
AcDbLine
 10
3.778455
 20
43.984644
 30
0.0
 11
3.668889
 21
43.970225
 31
0.0
  0
LINE
  5
15f
100
AcDbEntity
  8
0
 62
7
100
AcDbLine
 10
3.668889
 20
43.970225
 30
0.0
 11
3.559322
 21
43.984647
 31
0.0
  0
LINE
  5
160
100
AcDbEntity
  8
0
 62
7
100
AcDbLine
 10
3.559322
 20
43.984644
 30
0.0
 11
3.457222
 21
44.026940
 31
0.0
  0
LINE
  5
161
100
AcDbEntity
  8
0
 62
7
100
AcDbLine
 10
3.457222
 20
44.026940
 30
0.0
 11
3.369547
 21
44.094214
 31
0.0
  0
LINE
  5
162
100
AcDbEntity
  8
0
 62
7
100
AcDbLine
 10
3.369547
 20
44.094214
 30
0.0
 11
3.302271
 21
44.181892
 31
0.0
  0
LINE
  5
163
100
AcDbEntity
  8
0
 62
7
100
AcDbLine
 10
3.302271
 20
44.181892
 30
0.0
 11
3.259980
 21
44.283988
 31
0.0
  0
LINE
  5
164
100
AcDbEntity
  8
0
 62
7
100
AcDbLine
 10
3.259980
 20
44.283988
 30
0.0
 11
3.245556
 21
44.393558
 31
0.0
  0
LINE
  5
165
100
AcDbEntity
  8
0
 62
7
100
AcDbLine
 10
3.245556
 20
44.393558
 30
0.0
 11
3.259980
 21
44.503123
 31
0.0
  0
LINE
  5
166
100
AcDbEntity
  8
0
 62
7
100
AcDbLine
 10
3.259980
 20
44.503123
 30
0.0
 11
3.302271
 21
44.605225
 31
0.0
  0
LINE
  5
167
100
AcDbEntity
  8
0
 62
7
100
AcDbLine
 10
3.302271
 20
44.605225
 30
0.0
 11
3.369547
 21
44.692895
 31
0.0
  0
LINE
  5
168
100
AcDbEntity
  8
0
 62
7
100
AcDbLine
 10
3.369547
 20
44.692895
 30
0.0
 11
3.457222
 21
44.760168
 31
0.0
  0
LINE
  5
169
100
AcDbEntity
  8
0
 62
7
100
AcDbLine
 10
3.457222
 20
44.760168
 30
0.0
 11
3.559322
 21
44.802467
 31
0.0
  0
LINE
  5
16a
100
AcDbEntity
  8
0
 62
7
100
AcDbLine
 10
3.559322
 20
44.802467
 30
0.0
 11
3.668889
 21
44.816892
 31
0.0
  0
LINE
  5
16b
100
AcDbEntity
  8
0
 62
7
100
AcDbLine
 10
3.668889
 20
44.816892
 30
0.0
 11
3.778455
 21
44.802470
 31
0.0
  0
LINE
  5
16c
100
AcDbEntity
  8
0
 62
7
100
AcDbLine
 10
3.778455
 20
44.802467
 30
0.0
 11
3.880556
 21
44.760168
 31
0.0
  0
LINE
  5
16d
100
AcDbEntity
  8
0
 62
7
100
AcDbLine
 10
3.880556
 20
44.760168
 30
0.0
 11
3.968231
 21
44.692895
 31
0.0
  0
LINE
  5
16e
100
AcDbEntity
  8
0
 62
7
100
AcDbLine
 10
26.811111
 20
21.279553
 30
0.0
 11
26.811111
 21
39.454669
 31
0.0
  0
LINE
  5
16f
100
AcDbEntity
  8
0
 62
7
100
AcDbLine
 10
26.811111
 20
39.454669
 30
0.0
 11
26.811111
 21
40.724669
 31
0.0
  0
LINE
  5
170
100
AcDbEntity
  8
0
 62
7
100
AcDbLine
 10
26.811111
 20
40.724669
 30
0.0
 11
2.822222
 21
40.724669
 31
0.0
  0
LINE
  5
171
100
AcDbEntity
  8
0
 62
7
100
AcDbLine
 10
2.822222
 20
40.724669
 30
0.0
 11
2.822222
 21
39.454669
 31
0.0
  0
LINE
  5
172
100
AcDbEntity
  8
0
 62
7
100
AcDbLine
 10
2.822222
 20
39.454669
 30
0.0
 11
2.822222
 21
21.279553
 31
0.0
  0
LINE
  5
173
100
AcDbEntity
  8
0
 62
7
100
AcDbLine
 10
2.822222
 20
21.279553
 30
0.0
 11
8.466667
 21
21.279553
 31
0.0
  0
LINE
  5
174
100
AcDbEntity
  8
0
 62
7
100
AcDbLine
 10
8.466667
 20
21.279553
 30
0.0
 11
14.816667
 21
21.279553
 31
0.0
  0
LINE
  5
175
100
AcDbEntity
  8
0
 62
7
100
AcDbLine
 10
14.816667
 20
21.279553
 30
0.0
 11
21.166667
 21
21.279553
 31
0.0
  0
LINE
  5
176
100
AcDbEntity
  8
0
 62
7
100
AcDbLine
 10
21.166667
 20
21.279553
 30
0.0
 11
26.811111
 21
21.279553
 31
0.0
  0
LINE
  5
177
100
AcDbEntity
  8
0
 62
7
100
AcDbLine
 10
14.707100
 20
39.722467
 30
0.0
 11
14.816667
 21
39.736892
 31
0.0
  0
LINE
  5
178
100
AcDbEntity
  8
0
 62
7
100
AcDbLine
 10
14.816667
 20
39.736892
 30
0.0
 11
14.926234
 21
39.722470
 31
0.0
  0
LINE
  5
179
100
AcDbEntity
  8
0
 62
7
100
AcDbLine
 10
14.926234
 20
39.722467
 30
0.0
 11
15.028333
 21
39.680168
 31
0.0
  0
LINE
  5
17a
100
AcDbEntity
  8
0
 62
7
100
AcDbLine
 10
15.028333
 20
39.680168
 30
0.0
 11
15.116009
 21
39.612895
 31
0.0
  0
LINE
  5
17b
100
AcDbEntity
  8
0
 62
7
100
AcDbLine
 10
15.116009
 20
39.612895
 30
0.0
 11
15.183284
 21
39.525225
 31
0.0
  0
LINE
  5
17c
100
AcDbEntity
  8
0
 62
7
100
AcDbLine
 10
15.183284
 20
39.525225
 30
0.0
 11
15.225575
 21
39.423123
 31
0.0
  0
LINE
  5
17d
100
AcDbEntity
  8
0
 62
7
100
AcDbLine
 10
15.225575
 20
39.423123
 30
0.0
 11
15.240000
 21
39.313558
 31
0.0
  0
LINE
  5
17e
100
AcDbEntity
  8
0
 62
7
100
AcDbLine
 10
15.240000
 20
39.313558
 30
0.0
 11
15.225576
 21
39.203988
 31
0.0
  0
LINE
  5
17f
100
AcDbEntity
  8
0
 62
7
100
AcDbLine
 10
15.225575
 20
39.203988
 30
0.0
 11
15.183284
 21
39.101892
 31
0.0
  0
LINE
  5
180
100
AcDbEntity
  8
0
 62
7
100
AcDbLine
 10
15.183284
 20
39.101892
 30
0.0
 11
15.116009
 21
39.014214
 31
0.0
  0
LINE
  5
181
100
AcDbEntity
  8
0
 62
7
100
AcDbLine
 10
15.116009
 20
39.014214
 30
0.0
 11
15.028333
 21
38.946940
 31
0.0
  0
LINE
  5
182
100
AcDbEntity
  8
0
 62
7
100
AcDbLine
 10
15.028333
 20
38.946940
 30
0.0
 11
14.926234
 21
38.904644
 31
0.0
  0
LINE
  5
183
100
AcDbEntity
  8
0
 62
7
100
AcDbLine
 10
14.926234
 20
38.904644
 30
0.0
 11
14.816667
 21
38.890225
 31
0.0
  0
LINE
  5
184
100
AcDbEntity
  8
0
 62
7
100
AcDbLine
 10
14.816667
 20
38.890225
 30
0.0
 11
14.707100
 21
38.904647
 31
0.0
  0
LINE
  5
185
100
AcDbEntity
  8
0
 62
7
100
AcDbLine
 10
14.707100
 20
38.904644
 30
0.0
 11
14.605000
 21
38.946940
 31
0.0
  0
LINE
  5
186
100
AcDbEntity
  8
0
 62
7
100
AcDbLine
 10
14.605000
 20
38.946940
 30
0.0
 11
14.517325
 21
39.014214
 31
0.0
  0
LINE
  5
187
100
AcDbEntity
  8
0
 62
7
100
AcDbLine
 10
14.517325
 20
39.014214
 30
0.0
 11
14.450049
 21
39.101892
 31
0.0
  0
LINE
  5
188
100
AcDbEntity
  8
0
 62
7
100
AcDbLine
 10
14.450049
 20
39.101892
 30
0.0
 11
14.407759
 21
39.203988
 31
0.0
  0
LINE
  5
189
100
AcDbEntity
  8
0
 62
7
100
AcDbLine
 10
14.407759
 20
39.203988
 30
0.0
 11
14.393333
 21
39.313558
 31
0.0
  0
LINE
  5
18a
100
AcDbEntity
  8
0
 62
7
100
AcDbLine
 10
14.393333
 20
39.313558
 30
0.0
 11
14.407758
 21
39.423123
 31
0.0
  0
LINE
  5
18b
100
AcDbEntity
  8
0
 62
7
100
AcDbLine
 10
14.407759
 20
39.423123
 30
0.0
 11
14.450049
 21
39.525225
 31
0.0
  0
LINE
  5
18c
100
AcDbEntity
  8
0
 62
7
100
AcDbLine
 10
14.450049
 20
39.525225
 30
0.0
 11
14.517325
 21
39.612895
 31
0.0
  0
LINE
  5
18d
100
AcDbEntity
  8
0
 62
7
100
AcDbLine
 10
14.517325
 20
39.612895
 30
0.0
 11
14.605000
 21
39.680168
 31
0.0
  0
LINE
  5
18e
100
AcDbEntity
  8
0
 62
7
100
AcDbLine
 10
14.605000
 20
39.680168
 30
0.0
 11
14.707100
 21
39.722467
 31
0.0
  0
LINE
  5
18f
100
AcDbEntity
  8
0
 62
5
100
AcDbLine
 10
30.070395
 20
59.100893
 30
0.0
 11
30.070395
 21
79.110457
 31
0.0
  0
LINE
  5
190
100
AcDbEntity
  8
0
 62
5
100
AcDbLine
 10
30.070395
 20
79.110457
 30
0.0
 11
30.070395
 21
80.098235
 31
0.0
  0
LINE
  5
191
100
AcDbEntity
  8
0
 62
5
100
AcDbLine
 10
30.070395
 20
80.098235
 30
0.0
 11
2.694834
 21
80.098235
 31
0.0
  0
LINE
  5
192
100
AcDbEntity
  8
0
 62
5
100
AcDbLine
 10
2.694834
 20
80.098235
 30
0.0
 11
2.694834
 21
79.110457
 31
0.0
  0
LINE
  5
193
100
AcDbEntity
  8
0
 62
5
100
AcDbLine
 10
2.694834
 20
79.110457
 30
0.0
 11
2.694834
 21
59.100893
 31
0.0
  0
LINE
  5
194
100
AcDbEntity
  8
0
 62
5
100
AcDbLine
 10
2.694834
 20
59.100893
 30
0.0
 11
30.070395
 21
59.100893
 31
0.0
  0
LINE
  5
195
100
AcDbEntity
  8
0
 62
5
100
AcDbLine
 10
26.542613
 20
76.993790
 30
0.0
 11
26.528188
 21
76.884217
 31
0.0
  0
LINE
  5
196
100
AcDbEntity
  8
0
 62
5
100
AcDbLine
 10
26.528189
 20
76.884217
 30
0.0
 11
26.485900
 21
76.782123
 31
0.0
  0
LINE
  5
197
100
AcDbEntity
  8
0
 62
5
100
AcDbLine
 10
26.485900
 20
76.782123
 30
0.0
 11
26.418624
 21
76.694445
 31
0.0
  0
LINE
  5
198
100
AcDbEntity
  8
0
 62
5
100
AcDbLine
 10
26.418624
 20
76.694445
 30
0.0
 11
26.330950
 21
76.627169
 31
0.0
  0
LINE
  5
199
100
AcDbEntity
  8
0
 62
5
100
AcDbLine
 10
26.330950
 20
76.627169
 30
0.0
 11
26.228846
 21
76.584881
 31
0.0
  0
LINE
  5
19a
100
AcDbEntity
  8
0
 62
5
100
AcDbLine
 10
26.228846
 20
76.584881
 30
0.0
 11
26.119284
 21
76.570460
 31
0.0
  0
LINE
  5
19b
100
AcDbEntity
  8
0
 62
5
100
AcDbLine
 10
26.119284
 20
76.570457
 30
0.0
 11
26.009713
 21
76.584878
 31
0.0
  0
LINE
  5
19c
100
AcDbEntity
  8
0
 62
5
100
AcDbLine
 10
26.009713
 20
76.584881
 30
0.0
 11
25.907613
 21
76.627169
 31
0.0
  0
LINE
  5
19d
100
AcDbEntity
  8
0
 62
5
100
AcDbLine
 10
25.907613
 20
76.627169
 30
0.0
 11
25.819937
 21
76.694445
 31
0.0
  0
LINE
  5
19e
100
AcDbEntity
  8
0
 62
5
100
AcDbLine
 10
25.819937
 20
76.694445
 30
0.0
 11
25.752663
 21
76.782123
 31
0.0
  0
LINE
  5
19f
100
AcDbEntity
  8
0
 62
5
100
AcDbLine
 10
25.752663
 20
76.782123
 30
0.0
 11
25.710370
 21
76.884217
 31
0.0
  0
LINE
  5
1a0
100
AcDbEntity
  8
0
 62
5
100
AcDbLine
 10
25.710370
 20
76.884217
 30
0.0
 11
25.695951
 21
76.993790
 31
0.0
  0
LINE
  5
1a1
100
AcDbEntity
  8
0
 62
5
100
AcDbLine
 10
25.695950
 20
76.993790
 30
0.0
 11
25.710369
 21
77.103357
 31
0.0
  0
LINE
  5
1a2
100
AcDbEntity
  8
0
 62
5
100
AcDbLine
 10
25.710370
 20
77.103357
 30
0.0
 11
25.752663
 21
77.205451
 31
0.0
  0
LINE
  5
1a3
100
AcDbEntity
  8
0
 62
5
100
AcDbLine
 10
25.752663
 20
77.205451
 30
0.0
 11
25.819937
 21
77.293129
 31
0.0
  0
LINE
  5
1a4
100
AcDbEntity
  8
0
 62
5
100
AcDbLine
 10
25.819937
 20
77.293129
 30
0.0
 11
25.907613
 21
77.360402
 31
0.0
  0
LINE
  5
1a5
100
AcDbEntity
  8
0
 62
5
100
AcDbLine
 10
25.907613
 20
77.360402
 30
0.0
 11
26.009713
 21
77.402696
 31
0.0
  0
LINE
  5
1a6
100
AcDbEntity
  8
0
 62
5
100
AcDbLine
 10
26.009713
 20
77.402696
 30
0.0
 11
26.119284
 21
77.417118
 31
0.0
  0
LINE
  5
1a7
100
AcDbEntity
  8
0
 62
5
100
AcDbLine
 10
26.119284
 20
77.417123
 30
0.0
 11
26.228846
 21
77.402702
 31
0.0
  0
LINE
  5
1a8
100
AcDbEntity
  8
0
 62
5
100
AcDbLine
 10
26.228846
 20
77.402696
 30
0.0
 11
26.330950
 21
77.360402
 31
0.0
  0
LINE
  5
1a9
100
AcDbEntity
  8
0
 62
5
100
AcDbLine
 10
26.330950
 20
77.360402
 30
0.0
 11
26.418624
 21
77.293129
 31
0.0
  0
LINE
  5
1aa
100
AcDbEntity
  8
0
 62
5
100
AcDbLine
 10
26.418624
 20
77.293129
 30
0.0
 11
26.485900
 21
77.205451
 31
0.0
  0
LINE
  5
1ab
100
AcDbEntity
  8
0
 62
5
100
AcDbLine
 10
26.485900
 20
77.205451
 30
0.0
 11
26.528189
 21
77.103357
 31
0.0
  0
LINE
  5
1ac
100
AcDbEntity
  8
0
 62
5
100
AcDbLine
 10
26.528189
 20
77.103357
 30
0.0
 11
26.542613
 21
76.993790
 31
0.0
  0
LINE
  5
1ad
100
AcDbEntity
  8
0
 62
5
100
AcDbLine
 10
25.710370
 20
64.572691
 30
0.0
 11
25.752663
 21
64.674787
 31
0.0
  0
LINE
  5
1ae
100
AcDbEntity
  8
0
 62
5
100
AcDbLine
 10
25.752663
 20
64.674787
 30
0.0
 11
25.819937
 21
64.762465
 31
0.0
  0
LINE
  5
1af
100
AcDbEntity
  8
0
 62
5
100
AcDbLine
 10
25.819937
 20
64.762465
 30
0.0
 11
25.907613
 21
64.829739
 31
0.0
  0
LINE
  5
1b0
100
AcDbEntity
  8
0
 62
5
100
AcDbLine
 10
25.907613
 20
64.829739
 30
0.0
 11
26.009713
 21
64.872027
 31
0.0
  0
LINE
  5
1b1
100
AcDbEntity
  8
0
 62
5
100
AcDbLine
 10
26.009713
 20
64.872027
 30
0.0
 11
26.119284
 21
64.886448
 31
0.0
  0
LINE
  5
1b2
100
AcDbEntity
  8
0
 62
5
100
AcDbLine
 10
26.119284
 20
64.886454
 30
0.0
 11
26.228846
 21
64.872032
 31
0.0
  0
LINE
  5
1b3
100
AcDbEntity
  8
0
 62
5
100
AcDbLine
 10
26.228846
 20
64.872027
 30
0.0
 11
26.330950
 21
64.829739
 31
0.0
  0
LINE
  5
1b4
100
AcDbEntity
  8
0
 62
5
100
AcDbLine
 10
26.330950
 20
64.829739
 30
0.0
 11
26.418624
 21
64.762465
 31
0.0
  0
LINE
  5
1b5
100
AcDbEntity
  8
0
 62
5
100
AcDbLine
 10
26.418624
 20
64.762465
 30
0.0
 11
26.485900
 21
64.674787
 31
0.0
  0
LINE
  5
1b6
100
AcDbEntity
  8
0
 62
5
100
AcDbLine
 10
26.485900
 20
64.674787
 30
0.0
 11
26.528189
 21
64.572691
 31
0.0
  0
LINE
  5
1b7
100
AcDbEntity
  8
0
 62
5
100
AcDbLine
 10
26.528189
 20
64.572691
 30
0.0
 11
26.542613
 21
64.463121
 31
0.0
  0
LINE
  5
1b8
100
AcDbEntity
  8
0
 62
5
100
AcDbLine
 10
26.542613
 20
64.463121
 30
0.0
 11
26.528188
 21
64.353556
 31
0.0
  0
LINE
  5
1b9
100
AcDbEntity
  8
0
 62
5
100
AcDbLine
 10
26.528189
 20
64.353556
 30
0.0
 11
26.485900
 21
64.251454
 31
0.0
  0
LINE
  5
1ba
100
AcDbEntity
  8
0
 62
5
100
AcDbLine
 10
26.485900
 20
64.251454
 30
0.0
 11
26.418624
 21
64.163776
 31
0.0
  0
LINE
  5
1bb
100
AcDbEntity
  8
0
 62
5
100
AcDbLine
 10
26.418624
 20
64.163776
 30
0.0
 11
26.330950
 21
64.096500
 31
0.0
  0
LINE
  5
1bc
100
AcDbEntity
  8
0
 62
5
100
AcDbLine
 10
26.330950
 20
64.096500
 30
0.0
 11
26.228846
 21
64.054212
 31
0.0
  0
LINE
  5
1bd
100
AcDbEntity
  8
0
 62
5
100
AcDbLine
 10
26.228846
 20
64.054212
 30
0.0
 11
26.119284
 21
64.039790
 31
0.0
  0
LINE
  5
1be
100
AcDbEntity
  8
0
 62
5
100
AcDbLine
 10
26.119284
 20
64.039787
 30
0.0
 11
26.009713
 21
64.054209
 31
0.0
  0
LINE
  5
1bf
100
AcDbEntity
  8
0
 62
5
100
AcDbLine
 10
26.009713
 20
64.054212
 30
0.0
 11
25.907613
 21
64.096500
 31
0.0
  0
LINE
  5
1c0
100
AcDbEntity
  8
0
 62
5
100
AcDbLine
 10
25.907613
 20
64.096500
 30
0.0
 11
25.819937
 21
64.163776
 31
0.0
  0
LINE
  5
1c1
100
AcDbEntity
  8
0
 62
5
100
AcDbLine
 10
25.819937
 20
64.163776
 30
0.0
 11
25.752663
 21
64.251454
 31
0.0
  0
LINE
  5
1c2
100
AcDbEntity
  8
0
 62
5
100
AcDbLine
 10
25.752663
 20
64.251454
 30
0.0
 11
25.710370
 21
64.353556
 31
0.0
  0
LINE
  5
1c3
100
AcDbEntity
  8
0
 62
5
100
AcDbLine
 10
25.710370
 20
64.353556
 30
0.0
 11
25.695951
 21
64.463121
 31
0.0
  0
LINE
  5
1c4
100
AcDbEntity
  8
0
 62
5
100
AcDbLine
 10
25.695950
 20
64.463121
 30
0.0
 11
25.710369
 21
64.572691
 31
0.0
  0
LINE
  5
1c5
100
AcDbEntity
  8
0
 62
5
100
AcDbLine
 10
7.054855
 20
76.884217
 30
0.0
 11
7.012564
 21
76.782123
 31
0.0
  0
LINE
  5
1c6
100
AcDbEntity
  8
0
 62
5
100
AcDbLine
 10
7.012564
 20
76.782123
 30
0.0
 11
6.945287
 21
76.694445
 31
0.0
  0
LINE
  5
1c7
100
AcDbEntity
  8
0
 62
5
100
AcDbLine
 10
6.945287
 20
76.694445
 30
0.0
 11
6.857612
 21
76.627169
 31
0.0
  0
LINE
  5
1c8
100
AcDbEntity
  8
0
 62
5
100
AcDbLine
 10
6.857612
 20
76.627169
 30
0.0
 11
6.755512
 21
76.584881
 31
0.0
  0
LINE
  5
1c9
100
AcDbEntity
  8
0
 62
5
100
AcDbLine
 10
6.755512
 20
76.584881
 30
0.0
 11
6.645945
 21
76.570460
 31
0.0
  0
LINE
  5
1ca
100
AcDbEntity
  8
0
 62
5
100
AcDbLine
 10
6.645945
 20
76.570457
 30
0.0
 11
6.536378
 21
76.584878
 31
0.0
  0
LINE
  5
1cb
100
AcDbEntity
  8
0
 62
5
100
AcDbLine
 10
6.536378
 20
76.584881
 30
0.0
 11
6.434279
 21
76.627169
 31
0.0
  0
LINE
  5
1cc
100
AcDbEntity
  8
0
 62
5
100
AcDbLine
 10
6.434279
 20
76.627169
 30
0.0
 11
6.346603
 21
76.694445
 31
0.0
  0
LINE
  5
1cd
100
AcDbEntity
  8
0
 62
5
100
AcDbLine
 10
6.346603
 20
76.694445
 30
0.0
 11
6.279329
 21
76.782123
 31
0.0
  0
LINE
  5
1ce
100
AcDbEntity
  8
0
 62
5
100
AcDbLine
 10
6.279329
 20
76.782123
 30
0.0
 11
6.237038
 21
76.884217
 31
0.0
  0
LINE
  5
1cf
100
AcDbEntity
  8
0
 62
5
100
AcDbLine
 10
6.237038
 20
76.884217
 30
0.0
 11
6.222611
 21
76.993790
 31
0.0
  0
LINE
  5
1d0
100
AcDbEntity
  8
0
 62
5
100
AcDbLine
 10
6.222612
 20
76.993790
 30
0.0
 11
6.237039
 21
77.103357
 31
0.0
  0
LINE
  5
1d1
100
AcDbEntity
  8
0
 62
5
100
AcDbLine
 10
6.237038
 20
77.103357
 30
0.0
 11
6.279329
 21
77.205451
 31
0.0
  0
LINE
  5
1d2
100
AcDbEntity
  8
0
 62
5
100
AcDbLine
 10
6.279329
 20
77.205451
 30
0.0
 11
6.346603
 21
77.293129
 31
0.0
  0
LINE
  5
1d3
100
AcDbEntity
  8
0
 62
5
100
AcDbLine
 10
6.346603
 20
77.293129
 30
0.0
 11
6.434279
 21
77.360402
 31
0.0
  0
LINE
  5
1d4
100
AcDbEntity
  8
0
 62
5
100
AcDbLine
 10
6.434279
 20
77.360402
 30
0.0
 11
6.536378
 21
77.402696
 31
0.0
  0
LINE
  5
1d5
100
AcDbEntity
  8
0
 62
5
100
AcDbLine
 10
6.536378
 20
77.402696
 30
0.0
 11
6.645945
 21
77.417118
 31
0.0
  0
LINE
  5
1d6
100
AcDbEntity
  8
0
 62
5
100
AcDbLine
 10
6.645945
 20
77.417123
 30
0.0
 11
6.755512
 21
77.402702
 31
0.0
  0
LINE
  5
1d7
100
AcDbEntity
  8
0
 62
5
100
AcDbLine
 10
6.755512
 20
77.402696
 30
0.0
 11
6.857612
 21
77.360402
 31
0.0
  0
LINE
  5
1d8
100
AcDbEntity
  8
0
 62
5
100
AcDbLine
 10
6.857612
 20
77.360402
 30
0.0
 11
6.945287
 21
77.293129
 31
0.0
  0
LINE
  5
1d9
100
AcDbEntity
  8
0
 62
5
100
AcDbLine
 10
6.945287
 20
77.293129
 30
0.0
 11
7.012564
 21
77.205451
 31
0.0
  0
LINE
  5
1da
100
AcDbEntity
  8
0
 62
5
100
AcDbLine
 10
7.012564
 20
77.205451
 30
0.0
 11
7.054855
 21
77.103357
 31
0.0
  0
LINE
  5
1db
100
AcDbEntity
  8
0
 62
5
100
AcDbLine
 10
7.054855
 20
77.103357
 30
0.0
 11
7.069279
 21
76.993790
 31
0.0
  0
LINE
  5
1dc
100
AcDbEntity
  8
0
 62
5
100
AcDbLine
 10
7.069279
 20
76.993790
 30
0.0
 11
7.054854
 21
76.884217
 31
0.0
  0
LINE
  5
1dd
100
AcDbEntity
  8
0
 62
5
100
AcDbLine
 10
6.279329
 20
64.251454
 30
0.0
 11
6.237038
 21
64.353556
 31
0.0
  0
LINE
  5
1de
100
AcDbEntity
  8
0
 62
5
100
AcDbLine
 10
6.237038
 20
64.353556
 30
0.0
 11
6.222611
 21
64.463121
 31
0.0
  0
LINE
  5
1df
100
AcDbEntity
  8
0
 62
5
100
AcDbLine
 10
6.222612
 20
64.463121
 30
0.0
 11
6.237039
 21
64.572691
 31
0.0
  0
LINE
  5
1e0
100
AcDbEntity
  8
0
 62
5
100
AcDbLine
 10
6.237038
 20
64.572691
 30
0.0
 11
6.279329
 21
64.674787
 31
0.0
  0
LINE
  5
1e1
100
AcDbEntity
  8
0
 62
5
100
AcDbLine
 10
6.279329
 20
64.674787
 30
0.0
 11
6.346603
 21
64.762465
 31
0.0
  0
LINE
  5
1e2
100
AcDbEntity
  8
0
 62
5
100
AcDbLine
 10
6.346603
 20
64.762465
 30
0.0
 11
6.434279
 21
64.829739
 31
0.0
  0
LINE
  5
1e3
100
AcDbEntity
  8
0
 62
5
100
AcDbLine
 10
6.434279
 20
64.829739
 30
0.0
 11
6.536378
 21
64.872027
 31
0.0
  0
LINE
  5
1e4
100
AcDbEntity
  8
0
 62
5
100
AcDbLine
 10
6.536378
 20
64.872027
 30
0.0
 11
6.645945
 21
64.886448
 31
0.0
  0
LINE
  5
1e5
100
AcDbEntity
  8
0
 62
5
100
AcDbLine
 10
6.645945
 20
64.886454
 30
0.0
 11
6.755512
 21
64.872032
 31
0.0
  0
LINE
  5
1e6
100
AcDbEntity
  8
0
 62
5
100
AcDbLine
 10
6.755512
 20
64.872027
 30
0.0
 11
6.857612
 21
64.829739
 31
0.0
  0
LINE
  5
1e7
100
AcDbEntity
  8
0
 62
5
100
AcDbLine
 10
6.857612
 20
64.829739
 30
0.0
 11
6.945287
 21
64.762465
 31
0.0
  0
LINE
  5
1e8
100
AcDbEntity
  8
0
 62
5
100
AcDbLine
 10
6.945287
 20
64.762465
 30
0.0
 11
7.012564
 21
64.674787
 31
0.0
  0
LINE
  5
1e9
100
AcDbEntity
  8
0
 62
5
100
AcDbLine
 10
7.012564
 20
64.674787
 30
0.0
 11
7.054855
 21
64.572691
 31
0.0
  0
LINE
  5
1ea
100
AcDbEntity
  8
0
 62
5
100
AcDbLine
 10
7.054855
 20
64.572691
 30
0.0
 11
7.069279
 21
64.463121
 31
0.0
  0
LINE
  5
1eb
100
AcDbEntity
  8
0
 62
5
100
AcDbLine
 10
7.069279
 20
64.463121
 30
0.0
 11
7.054854
 21
64.353556
 31
0.0
  0
LINE
  5
1ec
100
AcDbEntity
  8
0
 62
5
100
AcDbLine
 10
7.054855
 20
64.353556
 30
0.0
 11
7.012564
 21
64.251454
 31
0.0
  0
LINE
  5
1ed
100
AcDbEntity
  8
0
 62
5
100
AcDbLine
 10
7.012564
 20
64.251454
 30
0.0
 11
6.945287
 21
64.163776
 31
0.0
  0
LINE
  5
1ee
100
AcDbEntity
  8
0
 62
5
100
AcDbLine
 10
6.945287
 20
64.163776
 30
0.0
 11
6.857612
 21
64.096500
 31
0.0
  0
LINE
  5
1ef
100
AcDbEntity
  8
0
 62
5
100
AcDbLine
 10
6.857612
 20
64.096500
 30
0.0
 11
6.755512
 21
64.054212
 31
0.0
  0
LINE
  5
1f0
100
AcDbEntity
  8
0
 62
5
100
AcDbLine
 10
6.755512
 20
64.054212
 30
0.0
 11
6.645945
 21
64.039790
 31
0.0
  0
LINE
  5
1f1
100
AcDbEntity
  8
0
 62
5
100
AcDbLine
 10
6.645945
 20
64.039787
 30
0.0
 11
6.536378
 21
64.054209
 31
0.0
  0
LINE
  5
1f2
100
AcDbEntity
  8
0
 62
5
100
AcDbLine
 10
6.536378
 20
64.054212
 30
0.0
 11
6.434279
 21
64.096500
 31
0.0
  0
LINE
  5
1f3
100
AcDbEntity
  8
0
 62
5
100
AcDbLine
 10
6.434279
 20
64.096500
 30
0.0
 11
6.346603
 21
64.163776
 31
0.0
  0
LINE
  5
1f4
100
AcDbEntity
  8
0
 62
5
100
AcDbLine
 10
6.346603
 20
64.163776
 30
0.0
 11
6.279329
 21
64.251454
 31
0.0
  0
LINE
  5
1f5
100
AcDbEntity
  8
0
 62
5
100
AcDbLine
 10
22.396647
 20
75.768889
 30
0.0
 11
22.354356
 21
75.870989
 31
0.0
  0
LINE
  5
1f6
100
AcDbEntity
  8
0
 62
7
100
AcDbLine
 10
16.791521
 20
78.937797
 30
0.0
 11
16.805946
 21
78.828230
 31
0.0
  0
LINE
  5
1f7
100
AcDbEntity
  8
0
 62
7
100
AcDbLine
 10
16.805946
 20
78.828230
 30
0.0
 11
16.791522
 21
78.718663
 31
0.0
  0
LINE
  5
1f8
100
AcDbEntity
  8
0
 62
7
100
AcDbLine
 10
16.791521
 20
78.718663
 30
0.0
 11
16.749230
 21
78.616564
 31
0.0
  0
LINE
  5
1f9
100
AcDbEntity
  8
0
 62
7
100
AcDbLine
 10
16.749230
 20
78.616564
 30
0.0
 11
16.681955
 21
78.528891
 31
0.0
  0
LINE
  5
1fa
100
AcDbEntity
  8
0
 62
7
100
AcDbLine
 10
16.681955
 20
78.528891
 30
0.0
 11
16.594279
 21
78.461612
 31
0.0
  0
LINE
  5
1fb
100
AcDbEntity
  8
0
 62
7
100
AcDbLine
 10
16.594279
 20
78.461612
 30
0.0
 11
16.492180
 21
78.419324
 31
0.0
  0
LINE
  5
1fc
100
AcDbEntity
  8
0
 62
7
100
AcDbLine
 10
16.492180
 20
78.419324
 30
0.0
 11
16.382613
 21
78.404897
 31
0.0
  0
LINE
  5
1fd
100
AcDbEntity
  8
0
 62
7
100
AcDbLine
 10
16.382613
 20
78.404897
 30
0.0
 11
16.273046
 21
78.419319
 31
0.0
  0
LINE
  5
1fe
100
AcDbEntity
  8
0
 62
7
100
AcDbLine
 10
16.273046
 20
78.419324
 30
0.0
 11
16.170946
 21
78.461612
 31
0.0
  0
LINE
  5
1ff
100
AcDbEntity
  8
0
 62
7
100
AcDbLine
 10
16.170946
 20
78.461612
 30
0.0
 11
16.083271
 21
78.528891
 31
0.0
  0
LINE
  5
200
100
AcDbEntity
  8
0
 62
7
100
AcDbLine
 10
16.083271
 20
78.528891
 30
0.0
 11
16.015995
 21
78.616564
 31
0.0
  0
LINE
  5
201
100
AcDbEntity
  8
0
 62
7
100
AcDbLine
 10
16.015995
 20
78.616564
 30
0.0
 11
15.973705
 21
78.718663
 31
0.0
  0
LINE
  5
202
100
AcDbEntity
  8
0
 62
7
100
AcDbLine
 10
15.973705
 20
78.718663
 30
0.0
 11
15.959279
 21
78.828230
 31
0.0
  0
LINE
  5
203
100
AcDbEntity
  8
0
 62
7
100
AcDbLine
 10
15.959279
 20
78.828230
 30
0.0
 11
15.973704
 21
78.937797
 31
0.0
  0
LINE
  5
204
100
AcDbEntity
  8
0
 62
7
100
AcDbLine
 10
15.973705
 20
78.937797
 30
0.0
 11
16.015995
 21
79.039897
 31
0.0
  0
LINE
  5
205
100
AcDbEntity
  8
0
 62
7
100
AcDbLine
 10
16.015995
 20
79.039897
 30
0.0
 11
16.083271
 21
79.127569
 31
0.0
  0
LINE
  5
206
100
AcDbEntity
  8
0
 62
7
100
AcDbLine
 10
16.083271
 20
79.127569
 30
0.0
 11
16.170946
 21
79.194848
 31
0.0
  0
LINE
  5
207
100
AcDbEntity
  8
0
 62
7
100
AcDbLine
 10
16.170946
 20
79.194848
 30
0.0
 11
16.273046
 21
79.237136
 31
0.0
  0
LINE
  5
208
100
AcDbEntity
  8
0
 62
7
100
AcDbLine
 10
16.273046
 20
79.237136
 30
0.0
 11
16.382613
 21
79.251564
 31
0.0
  0
LINE
  5
209
100
AcDbEntity
  8
0
 62
7
100
AcDbLine
 10
16.382613
 20
79.251564
 30
0.0
 11
16.492180
 21
79.237142
 31
0.0
  0
LINE
  5
20a
100
AcDbEntity
  8
0
 62
7
100
AcDbLine
 10
16.492180
 20
79.237136
 30
0.0
 11
16.594279
 21
79.194848
 31
0.0
  0
LINE
  5
20b
100
AcDbEntity
  8
0
 62
7
100
AcDbLine
 10
16.594279
 20
79.194848
 30
0.0
 11
16.681955
 21
79.127569
 31
0.0
  0
LINE
  5
20c
100
AcDbEntity
  8
0
 62
7
100
AcDbLine
 10
16.681955
 20
79.127569
 30
0.0
 11
16.749230
 21
79.039897
 31
0.0
  0
LINE
  5
20d
100
AcDbEntity
  8
0
 62
7
100
AcDbLine
 10
16.749230
 20
79.039897
 30
0.0
 11
16.791521
 21
78.937797
 31
0.0
  0
LINE
  5
20e
100
AcDbEntity
  8
0
 62
7
100
AcDbLine
 10
2.797309
 20
6.333520
 30
0.0
 11
23.963976
 21
6.333520
 31
0.0
  0
LINE
  5
20f
100
AcDbEntity
  8
0
 62
7
100
AcDbLine
 10
23.963976
 20
6.333520
 30
0.0
 11
23.963976
 21
20.557520
 31
0.0
  0
LINE
  5
210
100
AcDbEntity
  8
0
 62
7
100
AcDbLine
 10
23.963976
 20
20.557520
 30
0.0
 11
2.797309
 21
20.557520
 31
0.0
  0
LINE
  5
211
100
AcDbEntity
  8
0
 62
7
100
AcDbLine
 10
2.797309
 20
20.557520
 30
0.0
 11
2.797309
 21
6.333520
 31
0.0
  0
LINE
  5
212
100
AcDbEntity
  8
0
 62
7
100
AcDbLine
 10
3.943317
 20
7.479531
 30
0.0
 11
4.010593
 21
7.391853
 31
0.0
  0
LINE
  5
213
100
AcDbEntity
  8
0
 62
7
100
AcDbLine
 10
4.010593
 20
7.391853
 30
0.0
 11
4.052884
 21
7.289759
 31
0.0
  0
LINE
  5
214
100
AcDbEntity
  8
0
 62
7
100
AcDbLine
 10
4.052884
 20
7.289759
 30
0.0
 11
4.067309
 21
7.180186
 31
0.0
  0
LINE
  5
215
100
AcDbEntity
  8
0
 62
7
100
AcDbLine
 10
4.067309
 20
7.180186
 30
0.0
 11
4.052885
 21
7.070625
 31
0.0
  0
LINE
  5
216
100
AcDbEntity
  8
0
 62
7
100
AcDbLine
 10
4.052884
 20
7.070625
 30
0.0
 11
4.010593
 21
6.968520
 31
0.0
  0
LINE
  5
217
100
AcDbEntity
  8
0
 62
7
100
AcDbLine
 10
4.010593
 20
6.968520
 30
0.0
 11
3.943317
 21
6.880842
 31
0.0
  0
LINE
  5
218
100
AcDbEntity
  8
0
 62
7
100
AcDbLine
 10
3.943317
 20
6.880842
 30
0.0
 11
3.855642
 21
6.813568
 31
0.0
  0
LINE
  5
219
100
AcDbEntity
  8
0
 62
7
100
AcDbLine
 10
3.855642
 20
6.813568
 30
0.0
 11
3.753542
 21
6.771280
 31
0.0
  0
LINE
  5
21a
100
AcDbEntity
  8
0
 62
7
100
AcDbLine
 10
3.753542
 20
6.771280
 30
0.0
 11
3.643976
 21
6.756853
 31
0.0
  0
LINE
  5
21b
100
AcDbEntity
  8
0
 62
7
100
AcDbLine
 10
3.643976
 20
6.756853
 30
0.0
 11
3.534409
 21
6.771275
 31
0.0
  0
LINE
  5
21c
100
AcDbEntity
  8
0
 62
7
100
AcDbLine
 10
3.534409
 20
6.771280
 30
0.0
 11
3.432309
 21
6.813568
 31
0.0
  0
LINE
  5
21d
100
AcDbEntity
  8
0
 62
7
100
AcDbLine
 10
3.432309
 20
6.813568
 30
0.0
 11
3.344634
 21
6.880842
 31
0.0
  0
LINE
  5
21e
100
AcDbEntity
  8
0
 62
7
100
AcDbLine
 10
3.344634
 20
6.880842
 30
0.0
 11
3.277358
 21
6.968520
 31
0.0
  0
LINE
  5
21f
100
AcDbEntity
  8
0
 62
7
100
AcDbLine
 10
3.277358
 20
6.968520
 30
0.0
 11
3.235067
 21
7.070625
 31
0.0
  0
LINE
  5
220
100
AcDbEntity
  8
0
 62
7
100
AcDbLine
 10
3.235067
 20
7.070625
 30
0.0
 11
3.220642
 21
7.180186
 31
0.0
  0
LINE
  5
221
100
AcDbEntity
  8
0
 62
7
100
AcDbLine
 10
3.220642
 20
7.180186
 30
0.0
 11
3.235067
 21
7.289759
 31
0.0
  0
LINE
  5
222
100
AcDbEntity
  8
0
 62
7
100
AcDbLine
 10
3.235067
 20
7.289759
 30
0.0
 11
3.277358
 21
7.391853
 31
0.0
  0
LINE
  5
223
100
AcDbEntity
  8
0
 62
7
100
AcDbLine
 10
3.277358
 20
7.391853
 30
0.0
 11
3.344634
 21
7.479531
 31
0.0
  0
LINE
  5
224
100
AcDbEntity
  8
0
 62
7
100
AcDbLine
 10
3.344634
 20
7.479531
 30
0.0
 11
3.432309
 21
7.546807
 31
0.0
  0
LINE
  5
225
100
AcDbEntity
  8
0
 62
7
100
AcDbLine
 10
3.432309
 20
7.546807
 30
0.0
 11
3.534409
 21
7.589095
 31
0.0
  0
LINE
  5
226
100
AcDbEntity
  8
0
 62
7
100
AcDbLine
 10
3.534409
 20
7.589095
 30
0.0
 11
3.643976
 21
7.603520
 31
0.0
  0
LINE
  5
227
100
AcDbEntity
  8
0
 62
7
100
AcDbLine
 10
3.643976
 20
7.603520
 30
0.0
 11
3.753542
 21
7.589098
 31
0.0
  0
LINE
  5
228
100
AcDbEntity
  8
0
 62
7
100
AcDbLine
 10
3.753542
 20
7.589095
 30
0.0
 11
3.855642
 21
7.546807
 31
0.0
  0
LINE
  5
229
100
AcDbEntity
  8
0
 62
7
100
AcDbLine
 10
3.855642
 20
7.546807
 30
0.0
 11
3.943317
 21
7.479531
 31
0.0
  0
LINE
  5
22a
100
AcDbEntity
  8
0
 62
7
100
AcDbLine
 10
3.753542
 20
19.301944
 30
0.0
 11
3.643976
 21
19.287520
 31
0.0
  0
LINE
  5
22b
100
AcDbEntity
  8
0
 62
7
100
AcDbLine
 10
3.643976
 20
19.287520
 30
0.0
 11
3.534409
 21
19.301941
 31
0.0
  0
LINE
  5
22c
100
AcDbEntity
  8
0
 62
7
100
AcDbLine
 10
3.534409
 20
19.301944
 30
0.0
 11
3.432309
 21
19.344243
 31
0.0
  0
LINE
  5
22d
100
AcDbEntity
  8
0
 62
7
100
AcDbLine
 10
3.432309
 20
19.344243
 30
0.0
 11
3.344634
 21
19.411517
 31
0.0
  0
LINE
  5
22e
100
AcDbEntity
  8
0
 62
7
100
AcDbLine
 10
3.344634
 20
19.411517
 30
0.0
 11
3.277358
 21
19.499186
 31
0.0
  0
LINE
  5
22f
100
AcDbEntity
  8
0
 62
7
100
AcDbLine
 10
3.277358
 20
19.499186
 30
0.0
 11
3.235067
 21
19.601289
 31
0.0
  0
LINE
  5
230
100
AcDbEntity
  8
0
 62
7
100
AcDbLine
 10
3.235067
 20
19.601289
 30
0.0
 11
3.220642
 21
19.710853
 31
0.0
  0
LINE
  5
231
100
AcDbEntity
  8
0
 62
7
100
AcDbLine
 10
3.220642
 20
19.710853
 30
0.0
 11
3.235067
 21
19.820423
 31
0.0
  0
LINE
  5
232
100
AcDbEntity
  8
0
 62
7
100
AcDbLine
 10
3.235067
 20
19.820423
 30
0.0
 11
3.277358
 21
19.922520
 31
0.0
  0
LINE
  5
233
100
AcDbEntity
  8
0
 62
7
100
AcDbLine
 10
3.277358
 20
19.922520
 30
0.0
 11
3.344634
 21
20.010198
 31
0.0
  0
LINE
  5
234
100
AcDbEntity
  8
0
 62
7
100
AcDbLine
 10
3.344634
 20
20.010198
 30
0.0
 11
3.432309
 21
20.077471
 31
0.0
  0
LINE
  5
235
100
AcDbEntity
  8
0
 62
7
100
AcDbLine
 10
3.432309
 20
20.077471
 30
0.0
 11
3.534409
 21
20.119768
 31
0.0
  0
LINE
  5
236
100
AcDbEntity
  8
0
 62
7
100
AcDbLine
 10
3.534409
 20
20.119768
 30
0.0
 11
3.643976
 21
20.134186
 31
0.0
  0
LINE
  5
237
100
AcDbEntity
  8
0
 62
7
100
AcDbLine
 10
3.643976
 20
20.134186
 30
0.0
 11
3.753542
 21
20.119765
 31
0.0
  0
LINE
  5
238
100
AcDbEntity
  8
0
 62
7
100
AcDbLine
 10
3.753542
 20
20.119768
 30
0.0
 11
3.855642
 21
20.077471
 31
0.0
  0
LINE
  5
239
100
AcDbEntity
  8
0
 62
7
100
AcDbLine
 10
3.855642
 20
20.077471
 30
0.0
 11
3.943317
 21
20.010198
 31
0.0
  0
LINE
  5
23a
100
AcDbEntity
  8
0
 62
7
100
AcDbLine
 10
3.943317
 20
20.010198
 30
0.0
 11
4.010593
 21
19.922520
 31
0.0
  0
LINE
  5
23b
100
AcDbEntity
  8
0
 62
7
100
AcDbLine
 10
4.010593
 20
19.922520
 30
0.0
 11
4.052884
 21
19.820423
 31
0.0
  0
LINE
  5
23c
100
AcDbEntity
  8
0
 62
7
100
AcDbLine
 10
4.052884
 20
19.820423
 30
0.0
 11
4.067309
 21
19.710853
 31
0.0
  0
LINE
  5
23d
100
AcDbEntity
  8
0
 62
7
100
AcDbLine
 10
4.067309
 20
19.710853
 30
0.0
 11
4.052885
 21
19.601289
 31
0.0
  0
LINE
  5
23e
100
AcDbEntity
  8
0
 62
7
100
AcDbLine
 10
4.052884
 20
19.601289
 30
0.0
 11
4.010593
 21
19.499186
 31
0.0
  0
LINE
  5
23f
100
AcDbEntity
  8
0
 62
7
100
AcDbLine
 10
4.010593
 20
19.499186
 30
0.0
 11
3.943317
 21
19.411517
 31
0.0
  0
LINE
  5
240
100
AcDbEntity
  8
0
 62
7
100
AcDbLine
 10
3.943317
 20
19.411517
 30
0.0
 11
3.855642
 21
19.344243
 31
0.0
  0
LINE
  5
241
100
AcDbEntity
  8
0
 62
7
100
AcDbLine
 10
3.855642
 20
19.344243
 30
0.0
 11
3.753542
 21
19.301944
 31
0.0
  0
LINE
  5
242
100
AcDbEntity
  8
0
 62
7
100
AcDbLine
 10
23.226876
 20
19.301944
 30
0.0
 11
23.117309
 21
19.287520
 31
0.0
  0
LINE
  5
243
100
AcDbEntity
  8
0
 62
7
100
AcDbLine
 10
23.117309
 20
19.287520
 30
0.0
 11
23.007742
 21
19.301941
 31
0.0
  0
LINE
  5
244
100
AcDbEntity
  8
0
 62
7
100
AcDbLine
 10
23.007742
 20
19.301944
 30
0.0
 11
22.905642
 21
19.344243
 31
0.0
  0
LINE
  5
245
100
AcDbEntity
  8
0
 62
7
100
AcDbLine
 10
22.905642
 20
19.344243
 30
0.0
 11
22.817967
 21
19.411517
 31
0.0
  0
LINE
  5
246
100
AcDbEntity
  8
0
 62
7
100
AcDbLine
 10
22.817967
 20
19.411517
 30
0.0
 11
22.750690
 21
19.499186
 31
0.0
  0
LINE
  5
247
100
AcDbEntity
  8
0
 62
7
100
AcDbLine
 10
22.750690
 20
19.499186
 30
0.0
 11
22.708400
 21
19.601289
 31
0.0
  0
LINE
  5
248
100
AcDbEntity
  8
0
 62
7
100
AcDbLine
 10
22.708400
 20
19.601289
 30
0.0
 11
22.693976
 21
19.710853
 31
0.0
  0
LINE
  5
249
100
AcDbEntity
  8
0
 62
7
100
AcDbLine
 10
22.693976
 20
19.710853
 30
0.0
 11
22.708400
 21
19.820423
 31
0.0
  0
LINE
  5
24a
100
AcDbEntity
  8
0
 62
7
100
AcDbLine
 10
22.708400
 20
19.820423
 30
0.0
 11
22.750690
 21
19.922520
 31
0.0
  0
LINE
  5
24b
100
AcDbEntity
  8
0
 62
7
100
AcDbLine
 10
22.750690
 20
19.922520
 30
0.0
 11
22.817967
 21
20.010198
 31
0.0
  0
LINE
  5
24c
100
AcDbEntity
  8
0
 62
7
100
AcDbLine
 10
22.817967
 20
20.010198
 30
0.0
 11
22.905642
 21
20.077471
 31
0.0
  0
LINE
  5
24d
100
AcDbEntity
  8
0
 62
7
100
AcDbLine
 10
22.905642
 20
20.077471
 30
0.0
 11
23.007742
 21
20.119768
 31
0.0
  0
LINE
  5
24e
100
AcDbEntity
  8
0
 62
7
100
AcDbLine
 10
23.007742
 20
20.119768
 30
0.0
 11
23.117309
 21
20.134186
 31
0.0
  0
LINE
  5
24f
100
AcDbEntity
  8
0
 62
7
100
AcDbLine
 10
23.117309
 20
20.134186
 30
0.0
 11
23.226876
 21
20.119765
 31
0.0
  0
LINE
  5
250
100
AcDbEntity
  8
0
 62
7
100
AcDbLine
 10
23.226876
 20
20.119768
 30
0.0
 11
23.328976
 21
20.077471
 31
0.0
  0
LINE
  5
251
100
AcDbEntity
  8
0
 62
7
100
AcDbLine
 10
23.328976
 20
20.077471
 30
0.0
 11
23.416651
 21
20.010198
 31
0.0
  0
LINE
  5
252
100
AcDbEntity
  8
0
 62
7
100
AcDbLine
 10
23.416651
 20
20.010198
 30
0.0
 11
23.483927
 21
19.922520
 31
0.0
  0
LINE
  5
253
100
AcDbEntity
  8
0
 62
7
100
AcDbLine
 10
23.483927
 20
19.922520
 30
0.0
 11
23.526218
 21
19.820423
 31
0.0
  0
LINE
  5
254
100
AcDbEntity
  8
0
 62
7
100
AcDbLine
 10
23.526218
 20
19.820423
 30
0.0
 11
23.540642
 21
19.710853
 31
0.0
  0
LINE
  5
255
100
AcDbEntity
  8
0
 62
7
100
AcDbLine
 10
23.540642
 20
19.710853
 30
0.0
 11
23.526218
 21
19.601289
 31
0.0
  0
LINE
  5
256
100
AcDbEntity
  8
0
 62
7
100
AcDbLine
 10
23.526218
 20
19.601289
 30
0.0
 11
23.483927
 21
19.499186
 31
0.0
  0
LINE
  5
257
100
AcDbEntity
  8
0
 62
7
100
AcDbLine
 10
23.483927
 20
19.499186
 30
0.0
 11
23.416651
 21
19.411517
 31
0.0
  0
LINE
  5
258
100
AcDbEntity
  8
0
 62
7
100
AcDbLine
 10
23.416651
 20
19.411517
 30
0.0
 11
23.328976
 21
19.344243
 31
0.0
  0
LINE
  5
259
100
AcDbEntity
  8
0
 62
7
100
AcDbLine
 10
23.328976
 20
19.344243
 30
0.0
 11
23.226876
 21
19.301944
 31
0.0
  0
LINE
  5
25a
100
AcDbEntity
  8
0
 62
7
100
AcDbLine
 10
23.117309
 20
7.603520
 30
0.0
 11
23.226876
 21
7.589098
 31
0.0
  0
LINE
  5
25b
100
AcDbEntity
  8
0
 62
7
100
AcDbLine
 10
23.226876
 20
7.589095
 30
0.0
 11
23.328976
 21
7.546807
 31
0.0
  0
LINE
  5
25c
100
AcDbEntity
  8
0
 62
7
100
AcDbLine
 10
23.328976
 20
7.546807
 30
0.0
 11
23.416651
 21
7.479531
 31
0.0
  0
LINE
  5
25d
100
AcDbEntity
  8
0
 62
7
100
AcDbLine
 10
23.416651
 20
7.479531
 30
0.0
 11
23.483927
 21
7.391853
 31
0.0
  0
LINE
  5
25e
100
AcDbEntity
  8
0
 62
7
100
AcDbLine
 10
23.483927
 20
7.391853
 30
0.0
 11
23.526218
 21
7.289759
 31
0.0
  0
LINE
  5
25f
100
AcDbEntity
  8
0
 62
7
100
AcDbLine
 10
23.526218
 20
7.289759
 30
0.0
 11
23.540642
 21
7.180186
 31
0.0
  0
LINE
  5
260
100
AcDbEntity
  8
0
 62
7
100
AcDbLine
 10
23.540642
 20
7.180186
 30
0.0
 11
23.526218
 21
7.070625
 31
0.0
  0
LINE
  5
261
100
AcDbEntity
  8
0
 62
7
100
AcDbLine
 10
23.526218
 20
7.070625
 30
0.0
 11
23.483927
 21
6.968520
 31
0.0
  0
LINE
  5
262
100
AcDbEntity
  8
0
 62
7
100
AcDbLine
 10
23.483927
 20
6.968520
 30
0.0
 11
23.416651
 21
6.880842
 31
0.0
  0
LINE
  5
263
100
AcDbEntity
  8
0
 62
7
100
AcDbLine
 10
23.416651
 20
6.880842
 30
0.0
 11
23.328976
 21
6.813568
 31
0.0
  0
LINE
  5
264
100
AcDbEntity
  8
0
 62
7
100
AcDbLine
 10
23.328976
 20
6.813568
 30
0.0
 11
23.226876
 21
6.771280
 31
0.0
  0
LINE
  5
265
100
AcDbEntity
  8
0
 62
7
100
AcDbLine
 10
23.226876
 20
6.771280
 30
0.0
 11
23.117309
 21
6.756853
 31
0.0
  0
LINE
  5
266
100
AcDbEntity
  8
0
 62
7
100
AcDbLine
 10
23.117309
 20
6.756853
 30
0.0
 11
23.007742
 21
6.771275
 31
0.0
  0
LINE
  5
267
100
AcDbEntity
  8
0
 62
7
100
AcDbLine
 10
23.007742
 20
6.771280
 30
0.0
 11
22.905642
 21
6.813568
 31
0.0
  0
LINE
  5
268
100
AcDbEntity
  8
0
 62
7
100
AcDbLine
 10
22.905642
 20
6.813568
 30
0.0
 11
22.817967
 21
6.880842
 31
0.0
  0
LINE
  5
269
100
AcDbEntity
  8
0
 62
7
100
AcDbLine
 10
22.817967
 20
6.880842
 30
0.0
 11
22.750690
 21
6.968520
 31
0.0
  0
LINE
  5
26a
100
AcDbEntity
  8
0
 62
7
100
AcDbLine
 10
22.750690
 20
6.968520
 30
0.0
 11
22.708400
 21
7.070625
 31
0.0
  0
LINE
  5
26b
100
AcDbEntity
  8
0
 62
7
100
AcDbLine
 10
22.708400
 20
7.070625
 30
0.0
 11
22.693976
 21
7.180186
 31
0.0
  0
LINE
  5
26c
100
AcDbEntity
  8
0
 62
7
100
AcDbLine
 10
22.693976
 20
7.180186
 30
0.0
 11
22.708400
 21
7.289759
 31
0.0
  0
LINE
  5
26d
100
AcDbEntity
  8
0
 62
7
100
AcDbLine
 10
22.708400
 20
7.289759
 30
0.0
 11
22.750690
 21
7.391853
 31
0.0
  0
LINE
  5
26e
100
AcDbEntity
  8
0
 62
7
100
AcDbLine
 10
22.750690
 20
7.391853
 30
0.0
 11
22.817967
 21
7.479531
 31
0.0
  0
LINE
  5
26f
100
AcDbEntity
  8
0
 62
7
100
AcDbLine
 10
22.817967
 20
7.479531
 30
0.0
 11
22.905642
 21
7.546807
 31
0.0
  0
LINE
  5
270
100
AcDbEntity
  8
0
 62
7
100
AcDbLine
 10
22.905642
 20
7.546807
 30
0.0
 11
23.007742
 21
7.589095
 31
0.0
  0
LINE
  5
271
100
AcDbEntity
  8
0
 62
7
100
AcDbLine
 10
23.007742
 20
7.589095
 30
0.0
 11
23.117309
 21
7.603520
 31
0.0
  0
LINE
  5
272
100
AcDbEntity
  8
0
 62
7
100
AcDbLine
 10
17.670420
 20
17.876409
 30
0.0
 11
17.670420
 21
10.256409
 31
0.0
  0
LINE
  5
273
100
AcDbEntity
  8
0
 62
7
100
AcDbLine
 10
17.670420
 20
10.256409
 30
0.0
 11
9.090864
 21
10.256409
 31
0.0
  0
LINE
  5
274
100
AcDbEntity
  8
0
 62
7
100
AcDbLine
 10
9.090864
 20
10.256409
 30
0.0
 11
9.090864
 21
17.876409
 31
0.0
  0
LINE
  5
275
100
AcDbEntity
  8
0
 62
7
100
AcDbLine
 10
9.090864
 20
17.876409
 30
0.0
 11
17.670420
 21
17.876409
 31
0.0
  0
LINE
  5
276
100
AcDbEntity
  8
0
 62
5
100
AcDbLine
 10
24.165053
 20
25.050267
 30
0.0
 11
24.207344
 21
25.152367
 31
0.0
  0
LINE
  5
277
100
AcDbEntity
  8
0
 62
5
100
AcDbLine
 10
24.207344
 20
25.152367
 30
0.0
 11
24.274620
 21
25.240039
 31
0.0
  0
LINE
  5
278
100
AcDbEntity
  8
0
 62
5
100
AcDbLine
 10
24.274620
 20
25.240039
 30
0.0
 11
24.362296
 21
25.307313
 31
0.0
  0
LINE
  5
279
100
AcDbEntity
  8
0
 62
5
100
AcDbLine
 10
24.362296
 20
25.307313
 30
0.0
 11
24.464395
 21
25.349606
 31
0.0
  0
LINE
  5
27a
100
AcDbEntity
  8
0
 62
5
100
AcDbLine
 10
24.464395
 20
25.349606
 30
0.0
 11
24.573962
 21
25.364034
 31
0.0
  0
LINE
  5
27b
100
AcDbEntity
  8
0
 62
5
100
AcDbLine
 10
24.573962
 20
25.364034
 30
0.0
 11
24.683529
 21
25.349612
 31
0.0
  0
LINE
  5
27c
100
AcDbEntity
  8
0
 62
5
100
AcDbLine
 10
24.683529
 20
25.349606
 30
0.0
 11
24.785629
 21
25.307313
 31
0.0
  0
LINE
  5
27d
100
AcDbEntity
  8
0
 62
5
100
AcDbLine
 10
24.785629
 20
25.307313
 30
0.0
 11
24.873304
 21
25.240039
 31
0.0
  0
LINE
  5
27e
100
AcDbEntity
  8
0
 62
5
100
AcDbLine
 10
24.873304
 20
25.240039
 30
0.0
 11
24.940581
 21
25.152367
 31
0.0
  0
LINE
  5
27f
100
AcDbEntity
  8
0
 62
5
100
AcDbLine
 10
24.940581
 20
25.152367
 30
0.0
 11
24.982871
 21
25.050267
 31
0.0
  0
LINE
  5
280
100
AcDbEntity
  8
0
 62
5
100
AcDbLine
 10
24.982871
 20
25.050267
 30
0.0
 11
24.997296
 21
24.940700
 31
0.0
  0
LINE
  5
281
100
AcDbEntity
  8
0
 62
5
100
AcDbLine
 10
24.997296
 20
24.940700
 30
0.0
 11
24.982871
 21
24.831133
 31
0.0
  0
LINE
  5
282
100
AcDbEntity
  8
0
 62
5
100
AcDbLine
 10
24.982871
 20
24.831133
 30
0.0
 11
24.940581
 21
24.729034
 31
0.0
  0
LINE
  5
283
100
AcDbEntity
  8
0
 62
5
100
AcDbLine
 10
24.940581
 20
24.729034
 30
0.0
 11
24.873304
 21
24.641356
 31
0.0
  0
LINE
  5
284
100
AcDbEntity
  8
0
 62
5
100
AcDbLine
 10
24.873304
 20
24.641356
 30
0.0
 11
24.785629
 21
24.574079
 31
0.0
  0
LINE
  5
285
100
AcDbEntity
  8
0
 62
5
100
AcDbLine
 10
24.785629
 20
24.574079
 30
0.0
 11
24.683529
 21
24.531788
 31
0.0
  0
LINE
  5
286
100
AcDbEntity
  8
0
 62
5
100
AcDbLine
 10
24.683529
 20
24.531788
 30
0.0
 11
24.573962
 21
24.517367
 31
0.0
  0
LINE
  5
287
100
AcDbEntity
  8
0
 62
5
100
AcDbLine
 10
24.573962
 20
24.517367
 30
0.0
 11
24.464395
 21
24.531788
 31
0.0
  0
LINE
  5
288
100
AcDbEntity
  8
0
 62
5
100
AcDbLine
 10
24.464395
 20
24.531788
 30
0.0
 11
24.362296
 21
24.574079
 31
0.0
  0
LINE
  5
289
100
AcDbEntity
  8
0
 62
5
100
AcDbLine
 10
24.362296
 20
24.574079
 30
0.0
 11
24.274620
 21
24.641356
 31
0.0
  0
LINE
  5
28a
100
AcDbEntity
  8
0
 62
5
100
AcDbLine
 10
24.274620
 20
24.641356
 30
0.0
 11
24.207344
 21
24.729034
 31
0.0
  0
LINE
  5
28b
100
AcDbEntity
  8
0
 62
5
100
AcDbLine
 10
24.207344
 20
24.729034
 30
0.0
 11
24.165053
 21
24.831133
 31
0.0
  0
LINE
  5
28c
100
AcDbEntity
  8
0
 62
5
100
AcDbLine
 10
24.165053
 20
24.831133
 30
0.0
 11
24.150629
 21
24.940700
 31
0.0
  0
LINE
  5
28d
100
AcDbEntity
  8
0
 62
5
100
AcDbLine
 10
24.150629
 20
24.940700
 30
0.0
 11
24.165053
 21
25.050267
 31
0.0
  0
LINE
  5
28e
100
AcDbEntity
  8
0
 62
5
100
AcDbLine
 10
4.734011
 20
24.729034
 30
0.0
 11
4.691720
 21
24.831133
 31
0.0
  0
LINE
  5
28f
100
AcDbEntity
  8
0
 62
5
100
AcDbLine
 10
4.691720
 20
24.831133
 30
0.0
 11
4.677296
 21
24.940700
 31
0.0
  0
LINE
  5
290
100
AcDbEntity
  8
0
 62
5
100
AcDbLine
 10
4.677296
 20
24.940700
 30
0.0
 11
4.691720
 21
25.050267
 31
0.0
  0
LINE
  5
291
100
AcDbEntity
  8
0
 62
5
100
AcDbLine
 10
4.691720
 20
25.050267
 30
0.0
 11
4.734011
 21
25.152367
 31
0.0
  0
LINE
  5
292
100
AcDbEntity
  8
0
 62
5
100
AcDbLine
 10
4.734011
 20
25.152367
 30
0.0
 11
4.801287
 21
25.240039
 31
0.0
  0
LINE
  5
293
100
AcDbEntity
  8
0
 62
5
100
AcDbLine
 10
4.801287
 20
25.240039
 30
0.0
 11
4.888962
 21
25.307313
 31
0.0
  0
LINE
  5
294
100
AcDbEntity
  8
0
 62
5
100
AcDbLine
 10
4.888962
 20
25.307313
 30
0.0
 11
4.991062
 21
25.349606
 31
0.0
  0
LINE
  5
295
100
AcDbEntity
  8
0
 62
5
100
AcDbLine
 10
4.991062
 20
25.349606
 30
0.0
 11
5.100629
 21
25.364034
 31
0.0
  0
LINE
  5
296
100
AcDbEntity
  8
0
 62
5
100
AcDbLine
 10
5.100629
 20
25.364034
 30
0.0
 11
5.210196
 21
25.349612
 31
0.0
  0
LINE
  5
297
100
AcDbEntity
  8
0
 62
5
100
AcDbLine
 10
5.210196
 20
25.349606
 30
0.0
 11
5.312296
 21
25.307313
 31
0.0
  0
LINE
  5
298
100
AcDbEntity
  8
0
 62
5
100
AcDbLine
 10
5.312296
 20
25.307313
 30
0.0
 11
5.399970
 21
25.240039
 31
0.0
  0
LINE
  5
299
100
AcDbEntity
  8
0
 62
5
100
AcDbLine
 10
5.399970
 20
25.240039
 30
0.0
 11
5.467246
 21
25.152367
 31
0.0
  0
LINE
  5
29a
100
AcDbEntity
  8
0
 62
5
100
AcDbLine
 10
5.467246
 20
25.152367
 30
0.0
 11
5.509538
 21
25.050267
 31
0.0
  0
LINE
  5
29b
100
AcDbEntity
  8
0
 62
5
100
AcDbLine
 10
5.509538
 20
25.050267
 30
0.0
 11
5.523962
 21
24.940700
 31
0.0
  0
LINE
  5
29c
100
AcDbEntity
  8
0
 62
5
100
AcDbLine
 10
5.523962
 20
24.940700
 30
0.0
 11
5.509538
 21
24.831133
 31
0.0
  0
LINE
  5
29d
100
AcDbEntity
  8
0
 62
5
100
AcDbLine
 10
5.509538
 20
24.831133
 30
0.0
 11
5.467246
 21
24.729034
 31
0.0
  0
LINE
  5
29e
100
AcDbEntity
  8
0
 62
5
100
AcDbLine
 10
5.467246
 20
24.729034
 30
0.0
 11
5.399970
 21
24.641356
 31
0.0
  0
LINE
  5
29f
100
AcDbEntity
  8
0
 62
5
100
AcDbLine
 10
5.399970
 20
24.641356
 30
0.0
 11
5.312296
 21
24.574079
 31
0.0
  0
LINE
  5
2a0
100
AcDbEntity
  8
0
 62
5
100
AcDbLine
 10
5.312296
 20
24.574079
 30
0.0
 11
5.210196
 21
24.531788
 31
0.0
  0
LINE
  5
2a1
100
AcDbEntity
  8
0
 62
5
100
AcDbLine
 10
5.210196
 20
24.531788
 30
0.0
 11
5.100629
 21
24.517367
 31
0.0
  0
LINE
  5
2a2
100
AcDbEntity
  8
0
 62
5
100
AcDbLine
 10
5.100629
 20
24.517367
 30
0.0
 11
4.991062
 21
24.531788
 31
0.0
  0
LINE
  5
2a3
100
AcDbEntity
  8
0
 62
5
100
AcDbLine
 10
4.991062
 20
24.531788
 30
0.0
 11
4.888962
 21
24.574079
 31
0.0
  0
LINE
  5
2a4
100
AcDbEntity
  8
0
 62
5
100
AcDbLine
 10
4.888962
 20
24.574079
 30
0.0
 11
4.801287
 21
24.641356
 31
0.0
  0
LINE
  5
2a5
100
AcDbEntity
  8
0
 62
5
100
AcDbLine
 10
4.801287
 20
24.641356
 30
0.0
 11
4.734011
 21
24.729034
 31
0.0
  0
LINE
  5
2a6
100
AcDbEntity
  8
0
 62
7
100
AcDbLine
 10
15.246204
 20
39.415376
 30
0.0
 11
15.260629
 21
39.305809
 31
0.0
  0
LINE
  5
2a7
100
AcDbEntity
  8
0
 62
7
100
AcDbLine
 10
15.260629
 20
39.305809
 30
0.0
 11
15.246204
 21
39.196241
 31
0.0
  0
LINE
  5
2a8
100
AcDbEntity
  8
0
 62
7
100
AcDbLine
 10
15.246204
 20
39.196241
 30
0.0
 11
15.203913
 21
39.094142
 31
0.0
  0
LINE
  5
2a9
100
AcDbEntity
  8
0
 62
7
100
AcDbLine
 10
15.203913
 20
39.094142
 30
0.0
 11
15.136638
 21
39.006470
 31
0.0
  0
LINE
  5
2aa
100
AcDbEntity
  8
0
 62
7
100
AcDbLine
 10
15.136638
 20
39.006470
 30
0.0
 11
15.048962
 21
38.939191
 31
0.0
  0
LINE
  5
2ab
100
AcDbEntity
  8
0
 62
7
100
AcDbLine
 10
15.048962
 20
38.939191
 30
0.0
 11
14.946862
 21
38.896902
 31
0.0
  0
LINE
  5
2ac
100
AcDbEntity
  8
0
 62
7
100
AcDbLine
 10
14.946862
 20
38.896902
 30
0.0
 11
14.837296
 21
38.882475
 31
0.0
  0
LINE
  5
2ad
100
AcDbEntity
  8
0
 62
7
100
AcDbLine
 10
14.837296
 20
38.882475
 30
0.0
 11
14.727729
 21
38.896897
 31
0.0
  0
LINE
  5
2ae
100
AcDbEntity
  8
0
 62
7
100
AcDbLine
 10
14.727729
 20
38.896902
 30
0.0
 11
14.625629
 21
38.939191
 31
0.0
  0
LINE
  5
2af
100
AcDbEntity
  8
0
 62
7
100
AcDbLine
 10
14.625629
 20
38.939191
 30
0.0
 11
14.537953
 21
39.006470
 31
0.0
  0
LINE
  5
2b0
100
AcDbEntity
  8
0
 62
7
100
AcDbLine
 10
14.537953
 20
39.006470
 30
0.0
 11
14.470678
 21
39.094142
 31
0.0
  0
LINE
  5
2b1
100
AcDbEntity
  8
0
 62
7
100
AcDbLine
 10
14.470678
 20
39.094142
 30
0.0
 11
14.428387
 21
39.196241
 31
0.0
  0
LINE
  5
2b2
100
AcDbEntity
  8
0
 62
7
100
AcDbLine
 10
14.428387
 20
39.196241
 30
0.0
 11
14.413962
 21
39.305809
 31
0.0
  0
LINE
  5
2b3
100
AcDbEntity
  8
0
 62
7
100
AcDbLine
 10
14.413962
 20
39.305809
 30
0.0
 11
14.428387
 21
39.415376
 31
0.0
  0
LINE
  5
2b4
100
AcDbEntity
  8
0
 62
7
100
AcDbLine
 10
14.428387
 20
39.415376
 30
0.0
 11
14.470678
 21
39.517475
 31
0.0
  0
LINE
  5
2b5
100
AcDbEntity
  8
0
 62
7
100
AcDbLine
 10
14.470678
 20
39.517475
 30
0.0
 11
14.537953
 21
39.605148
 31
0.0
  0
LINE
  5
2b6
100
AcDbEntity
  8
0
 62
7
100
AcDbLine
 10
14.537953
 20
39.605148
 30
0.0
 11
14.625629
 21
39.672427
 31
0.0
  0
LINE
  5
2b7
100
AcDbEntity
  8
0
 62
7
100
AcDbLine
 10
14.625629
 20
39.672427
 30
0.0
 11
14.727729
 21
39.714715
 31
0.0
  0
LINE
  5
2b8
100
AcDbEntity
  8
0
 62
7
100
AcDbLine
 10
14.727729
 20
39.714715
 30
0.0
 11
14.837296
 21
39.729142
 31
0.0
  0
LINE
  5
2b9
100
AcDbEntity
  8
0
 62
7
100
AcDbLine
 10
14.837296
 20
39.729142
 30
0.0
 11
14.946862
 21
39.714720
 31
0.0
  0
LINE
  5
2ba
100
AcDbEntity
  8
0
 62
7
100
AcDbLine
 10
14.946862
 20
39.714715
 30
0.0
 11
15.048962
 21
39.672427
 31
0.0
  0
LINE
  5
2bb
100
AcDbEntity
  8
0
 62
7
100
AcDbLine
 10
15.048962
 20
39.672427
 30
0.0
 11
15.136638
 21
39.605148
 31
0.0
  0
LINE
  5
2bc
100
AcDbEntity
  8
0
 62
7
100
AcDbLine
 10
15.136638
 20
39.605148
 30
0.0
 11
15.203913
 21
39.517475
 31
0.0
  0
LINE
  5
2bd
100
AcDbEntity
  8
0
 62
7
100
AcDbLine
 10
15.203913
 20
39.517475
 30
0.0
 11
15.246204
 21
39.415376
 31
0.0
  0
LINE
  5
2be
100
AcDbEntity
  8
0
 62
7
100
AcDbLine
 10
17.673702
 20
29.064392
 30
0.0
 11
12.056384
 21
29.064392
 31
0.0
  0
LINE
  5
2bf
100
AcDbEntity
  8
0
 62
7
100
AcDbLine
 10
12.056384
 20
29.064392
 30
0.0
 11
12.056384
 21
34.623386
 31
0.0
  0
LINE
  5
2c0
100
AcDbEntity
  8
0
 62
7
100
AcDbLine
 10
12.056384
 20
34.623385
 30
0.0
 11
17.673702
 21
34.623385
 31
0.0
  0
LINE
  5
2c1
100
AcDbEntity
  8
0
 62
7
100
AcDbLine
 10
17.673702
 20
34.623385
 30
0.0
 11
17.673702
 21
29.064391
 31
0.0
  0
LINE
  5
2c2
100
AcDbEntity
  8
0
 62
7
100
AcDbLine
 10
18.002519
 20
91.079707
 30
0.0
 11
14.944038
 21
91.079707
 31
0.0
  0
LINE
  5
2c3
100
AcDbEntity
  8
0
 62
7
100
AcDbLine
 10
14.944038
 20
91.079707
 30
0.0
 11
14.944038
 21
94.069899
 31
0.0
  0
LINE
  5
2c4
100
AcDbEntity
  8
0
 62
7
100
AcDbLine
 10
14.944038
 20
94.069899
 30
0.0
 11
18.002519
 21
94.069899
 31
0.0
  0
LINE
  5
2c5
100
AcDbEntity
  8
0
 62
7
100
AcDbLine
 10
18.002519
 20
94.069899
 30
0.0
 11
18.002519
 21
91.079707
 31
0.0
  0
LINE
  5
2c6
100
AcDbEntity
  8
0
 62
7
100
AcDbLine
 10
12.319858
 20
96.588734
 30
0.0
 11
14.365180
 21
96.588734
 31
0.0
  0
SPLINE
  5
2c7
100
AcDbEntity
  8
0
 62
7
100
AcDbSpline
 70
8
 71
3
 72
8
 73
4
 74
0
 40
0
 40
0
 40
0
 40
0
 40
1
 40
1
 40
1
 40
1
 10
14.365180
 20
96.588734
 30
0.0
 10
14.365180
 20
96.588734
 30
0.0
 10
14.850617
 20
101.283073
 30
0.0
 10
16.410502
 20
101.197708
 30
0.0
  0
SPLINE
  5
2c8
100
AcDbEntity
  8
0
 62
7
100
AcDbSpline
 70
8
 71
3
 72
8
 73
4
 74
0
 40
0
 40
0
 40
0
 40
0
 40
1
 40
1
 40
1
 40
1
 10
16.410502
 20
101.197708
 30
0.0
 10
18.102318
 20
101.105129
 30
0.0
 10
18.455824
 20
96.588734
 30
0.0
 10
18.455824
 20
96.588734
 30
0.0
  0
LINE
  5
2c9
100
AcDbEntity
  8
0
 62
7
100
AcDbLine
 10
18.455824
 20
96.588734
 30
0.0
 11
20.501146
 21
96.588734
 31
0.0
  0
LINE
  5
2ca
100
AcDbEntity
  8
0
 62
7
100
AcDbLine
 10
20.501146
 20
96.588734
 30
0.0
 11
20.501146
 21
95.111455
 31
0.0
  0
SPLINE
  5
2cb
100
AcDbEntity
  8
0
 62
7
100
AcDbSpline
 70
8
 71
3
 72
8
 73
4
 74
0
 40
0
 40
0
 40
0
 40
0
 40
1
 40
1
 40
1
 40
1
 10
20.501146
 20
95.111455
 30
0.0
 10
20.501146
 20
95.111455
 30
0.0
 10
28.851575
 20
85.589488
 30
0.0
 10
28.127905
 20
83.808488
 30
0.0
  0
SPLINE
  5
2cc
100
AcDbEntity
  8
0
 62
7
100
AcDbSpline
 70
8
 71
3
 72
8
 73
4
 74
0
 40
0
 40
0
 40
0
 40
0
 40
1
 40
1
 40
1
 40
1
 10
28.127905
 20
83.808488
 30
0.0
 10
27.402135
 20
82.022326
 30
0.0
 10
20.788426
 20
87.319374
 30
0.0
 10
20.788426
 20
87.319374
 30
0.0
  0
LINE
  5
2cd
100
AcDbEntity
  8
0
 62
7
100
AcDbLine
 10
20.788426
 20
87.319374
 30
0.0
 11
11.614083
 21
87.319374
 31
0.0
  0
SPLINE
  5
2ce
100
AcDbEntity
  8
0
 62
7
100
AcDbSpline
 70
8
 71
3
 72
8
 73
4
 74
0
 40
0
 40
0
 40
0
 40
0
 40
1
 40
1
 40
1
 40
1
 10
11.614083
 20
87.319374
 30
0.0
 10
11.614083
 20
87.319374
 30
0.0
 10
5.355325
 20
82.284246
 30
0.0
 10
4.669227
 20
83.474176
 30
0.0
  0
SPLINE
  5
2cf
100
AcDbEntity
  8
0
 62
7
100
AcDbSpline
 70
8
 71
3
 72
8
 73
4
 74
0
 40
0
 40
0
 40
0
 40
0
 40
1
 40
1
 40
1
 40
1
 10
4.669227
 20
83.474176
 30
0.0
 10
3.543731
 20
85.426169
 30
0.0
 10
12.351247
 20
95.147783
 30
0.0
 10
12.351247
 20
95.147783
 30
0.0
  0
LINE
  5
2d0
100
AcDbEntity
  8
0
 62
7
100
AcDbLine
 10
12.351247
 20
95.147783
 30
0.0
 11
12.351247
 21
96.588734
 31
0.0
  0
LINE
  5
2d1
100
AcDbEntity
  8
0
 62
5
100
AcDbLine
 10
25.675480
 20
85.816262
 30
0.0
 11
25.717771
 21
85.918362
 31
0.0
  0
LINE
  5
2d2
100
AcDbEntity
  8
0
 62
5
100
AcDbLine
 10
25.717771
 20
85.918362
 30
0.0
 11
25.785048
 21
86.006034
 31
0.0
  0
LINE
  5
2d3
100
AcDbEntity
  8
0
 62
5
100
AcDbLine
 10
25.785048
 20
86.006034
 30
0.0
 11
25.872723
 21
86.073307
 31
0.0
  0
LINE
  5
2d4
100
AcDbEntity
  8
0
 62
5
100
AcDbLine
 10
25.872723
 20
86.073307
 30
0.0
 11
25.974823
 21
86.115601
 31
0.0
  0
LINE
  5
2d5
100
AcDbEntity
  8
0
 62
5
100
AcDbLine
 10
25.974823
 20
86.115601
 30
0.0
 11
26.084390
 21
86.130028
 31
0.0
  0
LINE
  5
2d6
100
AcDbEntity
  8
0
 62
5
100
AcDbLine
 10
26.084390
 20
86.130028
 30
0.0
 11
26.193957
 21
86.115607
 31
0.0
  0
LINE
  5
2d7
100
AcDbEntity
  8
0
 62
5
100
AcDbLine
 10
26.193957
 20
86.115601
 30
0.0
 11
26.296056
 21
86.073307
 31
0.0
  0
LINE
  5
2d8
100
AcDbEntity
  8
0
 62
5
100
AcDbLine
 10
26.296056
 20
86.073307
 30
0.0
 11
26.383732
 21
86.006034
 31
0.0
  0
LINE
  5
2d9
100
AcDbEntity
  8
0
 62
5
100
AcDbLine
 10
26.383732
 20
86.006034
 30
0.0
 11
26.451008
 21
85.918362
 31
0.0
  0
LINE
  5
2da
100
AcDbEntity
  8
0
 62
5
100
AcDbLine
 10
26.451008
 20
85.918362
 30
0.0
 11
26.493299
 21
85.816262
 31
0.0
  0
LINE
  5
2db
100
AcDbEntity
  8
0
 62
5
100
AcDbLine
 10
26.493299
 20
85.816262
 30
0.0
 11
26.507723
 21
85.706695
 31
0.0
  0
LINE
  5
2dc
100
AcDbEntity
  8
0
 62
5
100
AcDbLine
 10
26.507723
 20
85.706695
 30
0.0
 11
26.493299
 21
85.597128
 31
0.0
  0
LINE
  5
2dd
100
AcDbEntity
  8
0
 62
5
100
AcDbLine
 10
26.493299
 20
85.597128
 30
0.0
 11
26.451008
 21
85.495028
 31
0.0
  0
LINE
  5
2de
100
AcDbEntity
  8
0
 62
5
100
AcDbLine
 10
26.451008
 20
85.495028
 30
0.0
 11
26.383732
 21
85.407350
 31
0.0
  0
LINE
  5
2df
100
AcDbEntity
  8
0
 62
5
100
AcDbLine
 10
26.383732
 20
85.407350
 30
0.0
 11
26.296056
 21
85.340074
 31
0.0
  0
LINE
  5
2e0
100
AcDbEntity
  8
0
 62
5
100
AcDbLine
 10
26.296056
 20
85.340074
 30
0.0
 11
26.193957
 21
85.297783
 31
0.0
  0
LINE
  5
2e1
100
AcDbEntity
  8
0
 62
5
100
AcDbLine
 10
26.193957
 20
85.297783
 30
0.0
 11
26.084390
 21
85.283362
 31
0.0
  0
LINE
  5
2e2
100
AcDbEntity
  8
0
 62
5
100
AcDbLine
 10
26.084390
 20
85.283362
 30
0.0
 11
25.974823
 21
85.297783
 31
0.0
  0
LINE
  5
2e3
100
AcDbEntity
  8
0
 62
5
100
AcDbLine
 10
25.974823
 20
85.297783
 30
0.0
 11
25.872723
 21
85.340074
 31
0.0
  0
LINE
  5
2e4
100
AcDbEntity
  8
0
 62
5
100
AcDbLine
 10
25.872723
 20
85.340074
 30
0.0
 11
25.785048
 21
85.407350
 31
0.0
  0
LINE
  5
2e5
100
AcDbEntity
  8
0
 62
5
100
AcDbLine
 10
25.785048
 20
85.407350
 30
0.0
 11
25.717771
 21
85.495028
 31
0.0
  0
LINE
  5
2e6
100
AcDbEntity
  8
0
 62
5
100
AcDbLine
 10
25.717771
 20
85.495028
 30
0.0
 11
25.675480
 21
85.597128
 31
0.0
  0
LINE
  5
2e7
100
AcDbEntity
  8
0
 62
5
100
AcDbLine
 10
25.675480
 20
85.597128
 30
0.0
 11
25.661056
 21
85.706695
 31
0.0
  0
LINE
  5
2e8
100
AcDbEntity
  8
0
 62
5
100
AcDbLine
 10
25.661056
 20
85.706695
 30
0.0
 11
25.675481
 21
85.816262
 31
0.0
  0
LINE
  5
2e9
100
AcDbEntity
  8
0
 62
5
100
AcDbLine
 10
6.244439
 20
85.495028
 30
0.0
 11
6.202148
 21
85.597128
 31
0.0
  0
LINE
  5
2ea
100
AcDbEntity
  8
0
 62
5
100
AcDbLine
 10
6.202148
 20
85.597128
 30
0.0
 11
6.187723
 21
85.706695
 31
0.0
  0
LINE
  5
2eb
100
AcDbEntity
  8
0
 62
5
100
AcDbLine
 10
6.187723
 20
85.706695
 30
0.0
 11
6.202147
 21
85.816262
 31
0.0
  0
LINE
  5
2ec
100
AcDbEntity
  8
0
 62
5
100
AcDbLine
 10
6.202148
 20
85.816262
 30
0.0
 11
6.244439
 21
85.918362
 31
0.0
  0
LINE
  5
2ed
100
AcDbEntity
  8
0
 62
5
100
AcDbLine
 10
6.244439
 20
85.918362
 30
0.0
 11
6.311715
 21
86.006034
 31
0.0
  0
LINE
  5
2ee
100
AcDbEntity
  8
0
 62
5
100
AcDbLine
 10
6.311715
 20
86.006034
 30
0.0
 11
6.399390
 21
86.073307
 31
0.0
  0
LINE
  5
2ef
100
AcDbEntity
  8
0
 62
5
100
AcDbLine
 10
6.399390
 20
86.073307
 30
0.0
 11
6.501490
 21
86.115601
 31
0.0
  0
LINE
  5
2f0
100
AcDbEntity
  8
0
 62
5
100
AcDbLine
 10
6.501490
 20
86.115601
 30
0.0
 11
6.611056
 21
86.130028
 31
0.0
  0
LINE
  5
2f1
100
AcDbEntity
  8
0
 62
5
100
AcDbLine
 10
6.611056
 20
86.130028
 30
0.0
 11
6.720623
 21
86.115607
 31
0.0
  0
LINE
  5
2f2
100
AcDbEntity
  8
0
 62
5
100
AcDbLine
 10
6.720623
 20
86.115601
 30
0.0
 11
6.822723
 21
86.073307
 31
0.0
  0
LINE
  5
2f3
100
AcDbEntity
  8
0
 62
5
100
AcDbLine
 10
6.822723
 20
86.073307
 30
0.0
 11
6.910398
 21
86.006034
 31
0.0
  0
LINE
  5
2f4
100
AcDbEntity
  8
0
 62
5
100
AcDbLine
 10
6.910398
 20
86.006034
 30
0.0
 11
6.977674
 21
85.918362
 31
0.0
  0
LINE
  5
2f5
100
AcDbEntity
  8
0
 62
5
100
AcDbLine
 10
6.977674
 20
85.918362
 30
0.0
 11
7.019965
 21
85.816262
 31
0.0
  0
LINE
  5
2f6
100
AcDbEntity
  8
0
 62
5
100
AcDbLine
 10
7.019965
 20
85.816262
 30
0.0
 11
7.034390
 21
85.706695
 31
0.0
  0
LINE
  5
2f7
100
AcDbEntity
  8
0
 62
5
100
AcDbLine
 10
7.034390
 20
85.706695
 30
0.0
 11
7.019965
 21
85.597128
 31
0.0
  0
LINE
  5
2f8
100
AcDbEntity
  8
0
 62
5
100
AcDbLine
 10
7.019965
 20
85.597128
 30
0.0
 11
6.977674
 21
85.495028
 31
0.0
  0
LINE
  5
2f9
100
AcDbEntity
  8
0
 62
5
100
AcDbLine
 10
6.977674
 20
85.495028
 30
0.0
 11
6.910398
 21
85.407350
 31
0.0
  0
LINE
  5
2fa
100
AcDbEntity
  8
0
 62
5
100
AcDbLine
 10
6.910398
 20
85.407350
 30
0.0
 11
6.822723
 21
85.340074
 31
0.0
  0
LINE
  5
2fb
100
AcDbEntity
  8
0
 62
5
100
AcDbLine
 10
6.822723
 20
85.340074
 30
0.0
 11
6.720623
 21
85.297783
 31
0.0
  0
LINE
  5
2fc
100
AcDbEntity
  8
0
 62
5
100
AcDbLine
 10
6.720623
 20
85.297783
 30
0.0
 11
6.611056
 21
85.283362
 31
0.0
  0
LINE
  5
2fd
100
AcDbEntity
  8
0
 62
5
100
AcDbLine
 10
6.611056
 20
85.283362
 30
0.0
 11
6.501490
 21
85.297783
 31
0.0
  0
LINE
  5
2fe
100
AcDbEntity
  8
0
 62
5
100
AcDbLine
 10
6.501490
 20
85.297783
 30
0.0
 11
6.399390
 21
85.340074
 31
0.0
  0
LINE
  5
2ff
100
AcDbEntity
  8
0
 62
5
100
AcDbLine
 10
6.399390
 20
85.340074
 30
0.0
 11
6.311715
 21
85.407350
 31
0.0
  0
LINE
  5
300
100
AcDbEntity
  8
0
 62
5
100
AcDbLine
 10
6.311715
 20
85.407350
 30
0.0
 11
6.244439
 21
85.495028
 31
0.0
  0
LINE
  5
301
100
AcDbEntity
  8
0
 62
7
100
AcDbLine
 10
16.756631
 20
100.181370
 30
0.0
 11
16.771056
 21
100.071803
 31
0.0
  0
LINE
  5
302
100
AcDbEntity
  8
0
 62
7
100
AcDbLine
 10
16.771056
 20
100.071803
 30
0.0
 11
16.756632
 21
99.962236
 31
0.0
  0
LINE
  5
303
100
AcDbEntity
  8
0
 62
7
100
AcDbLine
 10
16.756631
 20
99.962236
 30
0.0
 11
16.714340
 21
99.860137
 31
0.0
  0
LINE
  5
304
100
AcDbEntity
  8
0
 62
7
100
AcDbLine
 10
16.714340
 20
99.860137
 30
0.0
 11
16.647065
 21
99.772464
 31
0.0
  0
LINE
  5
305
100
AcDbEntity
  8
0
 62
7
100
AcDbLine
 10
16.647065
 20
99.772464
 30
0.0
 11
16.559390
 21
99.705185
 31
0.0
  0
LINE
  5
306
100
AcDbEntity
  8
0
 62
7
100
AcDbLine
 10
16.559390
 20
99.705185
 30
0.0
 11
16.457290
 21
99.662897
 31
0.0
  0
LINE
  5
307
100
AcDbEntity
  8
0
 62
7
100
AcDbLine
 10
16.457290
 20
99.662897
 30
0.0
 11
16.347723
 21
99.648470
 31
0.0
  0
LINE
  5
308
100
AcDbEntity
  8
0
 62
7
100
AcDbLine
 10
16.347723
 20
99.648470
 30
0.0
 11
16.238156
 21
99.662892
 31
0.0
  0
LINE
  5
309
100
AcDbEntity
  8
0
 62
7
100
AcDbLine
 10
16.238156
 20
99.662897
 30
0.0
 11
16.136056
 21
99.705185
 31
0.0
  0
LINE
  5
30a
100
AcDbEntity
  8
0
 62
7
100
AcDbLine
 10
16.136056
 20
99.705185
 30
0.0
 11
16.048381
 21
99.772464
 31
0.0
  0
LINE
  5
30b
100
AcDbEntity
  8
0
 62
7
100
AcDbLine
 10
16.048381
 20
99.772464
 30
0.0
 11
15.981106
 21
99.860137
 31
0.0
  0
LINE
  5
30c
100
AcDbEntity
  8
0
 62
7
100
AcDbLine
 10
15.981106
 20
99.860137
 30
0.0
 11
15.938815
 21
99.962236
 31
0.0
  0
LINE
  5
30d
100
AcDbEntity
  8
0
 62
7
100
AcDbLine
 10
15.938815
 20
99.962236
 30
0.0
 11
15.924390
 21
100.071803
 31
0.0
  0
LINE
  5
30e
100
AcDbEntity
  8
0
 62
7
100
AcDbLine
 10
15.924390
 20
100.071803
 30
0.0
 11
15.938814
 21
100.181370
 31
0.0
  0
LINE
  5
30f
100
AcDbEntity
  8
0
 62
7
100
AcDbLine
 10
15.938815
 20
100.181370
 30
0.0
 11
15.981106
 21
100.283470
 31
0.0
  0
LINE
  5
310
100
AcDbEntity
  8
0
 62
7
100
AcDbLine
 10
15.981106
 20
100.283470
 30
0.0
 11
16.048381
 21
100.371142
 31
0.0
  0
LINE
  5
311
100
AcDbEntity
  8
0
 62
7
100
AcDbLine
 10
16.048381
 20
100.371142
 30
0.0
 11
16.136056
 21
100.438421
 31
0.0
  0
LINE
  5
312
100
AcDbEntity
  8
0
 62
7
100
AcDbLine
 10
16.136056
 20
100.438421
 30
0.0
 11
16.238156
 21
100.480709
 31
0.0
  0
LINE
  5
313
100
AcDbEntity
  8
0
 62
7
100
AcDbLine
 10
16.238156
 20
100.480709
 30
0.0
 11
16.347723
 21
100.495137
 31
0.0
  0
LINE
  5
314
100
AcDbEntity
  8
0
 62
7
100
AcDbLine
 10
16.347723
 20
100.495137
 30
0.0
 11
16.457290
 21
100.480715
 31
0.0
  0
LINE
  5
315
100
AcDbEntity
  8
0
 62
7
100
AcDbLine
 10
16.457290
 20
100.480709
 30
0.0
 11
16.559390
 21
100.438421
 31
0.0
  0
LINE
  5
316
100
AcDbEntity
  8
0
 62
7
100
AcDbLine
 10
16.559390
 20
100.438421
 30
0.0
 11
16.647065
 21
100.371142
 31
0.0
  0
LINE
  5
317
100
AcDbEntity
  8
0
 62
7
100
AcDbLine
 10
16.647065
 20
100.371142
 30
0.0
 11
16.714340
 21
100.283470
 31
0.0
  0
LINE
  5
318
100
AcDbEntity
  8
0
 62
7
100
AcDbLine
 10
16.714340
 20
100.283470
 30
0.0
 11
16.756631
 21
100.181370
 31
0.0
  0
LINE
  5
319
100
AcDbEntity
  8
0
 62
1
100
AcDbLine
 10
18.318613
 20
91.747298
 30
0.0
 11
18.318613
 21
93.402352
 31
0.0
  0
LINE
  5
31a
100
AcDbEntity
  8
0
 62
1
100
AcDbLine
 10
18.318613
 20
93.402352
 30
0.0
 11
20.911244
 21
93.402352
 31
0.0
  0
LINE
  5
31b
100
AcDbEntity
  8
0
 62
1
100
AcDbLine
 10
20.911243
 20
93.402352
 30
0.0
 11
20.911243
 21
91.747298
 31
0.0
  0
LINE
  5
31c
100
AcDbEntity
  8
0
 62
1
100
AcDbLine
 10
20.911243
 20
91.747298
 30
0.0
 11
18.318612
 21
91.747298
 31
0.0
  0
LINE
  5
31d
100
AcDbEntity
  8
0
 62
1
100
AcDbLine
 10
11.955729
 20
91.747298
 30
0.0
 11
11.955729
 21
93.402352
 31
0.0
  0
LINE
  5
31e
100
AcDbEntity
  8
0
 62
1
100
AcDbLine
 10
11.955729
 20
93.402352
 30
0.0
 11
14.548360
 21
93.402352
 31
0.0
  0
LINE
  5
31f
100
AcDbEntity
  8
0
 62
1
100
AcDbLine
 10
14.548360
 20
93.402352
 30
0.0
 11
14.548360
 21
91.747298
 31
0.0
  0
LINE
  5
320
100
AcDbEntity
  8
0
 62
1
100
AcDbLine
 10
14.548360
 20
91.747298
 30
0.0
 11
11.955729
 21
91.747298
 31
0.0
  0
LINE
  5
321
100
AcDbEntity
  8
0
 62
1
100
AcDbLine
 10
15.645752
 20
97.045472
 30
0.0
 11
17.300806
 21
97.045472
 31
0.0
  0
LINE
  5
322
100
AcDbEntity
  8
0
 62
1
100
AcDbLine
 10
17.300806
 20
97.045472
 30
0.0
 11
17.300806
 21
94.452841
 31
0.0
  0
LINE
  5
323
100
AcDbEntity
  8
0
 62
1
100
AcDbLine
 10
17.300806
 20
94.452841
 30
0.0
 11
15.645752
 21
94.452841
 31
0.0
  0
LINE
  5
324
100
AcDbEntity
  8
0
 62
1
100
AcDbLine
 10
15.645752
 20
94.452841
 30
0.0
 11
15.645752
 21
97.045472
 31
0.0
  0
LINE
  5
325
100
AcDbEntity
  8
0
 62
1
100
AcDbLine
 10
15.683743
 20
90.760182
 30
0.0
 11
17.338797
 21
90.760182
 31
0.0
  0
LINE
  5
326
100
AcDbEntity
  8
0
 62
1
100
AcDbLine
 10
17.338797
 20
90.760182
 30
0.0
 11
17.338797
 21
88.167552
 31
0.0
  0
LINE
  5
327
100
AcDbEntity
  8
0
 62
1
100
AcDbLine
 10
17.338797
 20
88.167552
 30
0.0
 11
15.683743
 21
88.167552
 31
0.0
  0
LINE
  5
328
100
AcDbEntity
  8
0
 62
1
100
AcDbLine
 10
15.683743
 20
88.167552
 30
0.0
 11
15.683743
 21
90.760183
 31
0.0
  0
SPLINE
  5
329
100
AcDbEntity
  8
0
 62
7
100
AcDbSpline
 70
8
 71
3
 72
8
 73
4
 74
0
 40
0
 40
0
 40
0
 40
0
 40
1
 40
1
 40
1
 40
1
 10
217.485824
 20
17.779303
 30
0.0
 10
217.429534
 20
17.835592
 30
0.0
 10
217.520952
 20
17.943122
 30
0.0
 10
217.625097
 20
17.943122
 30
0.0
  0
SPLINE
  5
32a
100
AcDbEntity
  8
0
 62
7
100
AcDbSpline
 70
8
 71
3
 72
8
 73
4
 74
0
 40
0
 40
0
 40
0
 40
0
 40
1
 40
1
 40
1
 40
1
 10
217.625097
 20
17.943122
 30
0.0
 10
217.677433
 20
17.943122
 30
0.0
 10
217.720254
 20
17.898319
 30
0.0
 10
217.720254
 20
17.843559
 30
0.0
  0
SPLINE
  5
32b
100
AcDbEntity
  8
0
 62
7
100
AcDbSpline
 70
8
 71
3
 72
8
 73
4
 74
0
 40
0
 40
0
 40
0
 40
0
 40
1
 40
1
 40
1
 40
1
 10
217.720254
 20
17.843559
 30
0.0
 10
217.720254
 20
17.748617
 30
0.0
 10
217.560342
 20
17.704785
 30
0.0
 10
217.485824
 20
17.779303
 30
0.0
  0
LINE
  5
32c
100
AcDbEntity
  8
0
 62
7
100
AcDbLine
 10
217.485824
 20
17.779303
 30
0.0
 11
217.485824
 21
17.779303
 31
0.0
  0
SPLINE
  5
32d
100
AcDbEntity
  8
0
 62
7
100
AcDbSpline
 70
8
 71
3
 72
8
 73
4
 74
0
 40
0
 40
0
 40
0
 40
0
 40
1
 40
1
 40
1
 40
1
 10
193.327630
 20
29.278947
 30
0.0
 10
193.327630
 20
29.319045
 30
0.0
 10
193.380843
 20
29.372269
 30
0.0
 10
193.445878
 20
29.397226
 30
0.0
  0
SPLINE
  5
32e
100
AcDbEntity
  8
0
 62
7
100
AcDbSpline
 70
8
 71
3
 72
8
 73
4
 74
0
 40
0
 40
0
 40
0
 40
0
 40
1
 40
1
 40
1
 40
1
 10
193.445878
 20
29.397226
 30
0.0
 10
193.518601
 20
29.425138
 30
0.0
 10
193.552739
 20
29.408459
 30
0.0
 10
193.534549
 20
29.353880
 30
0.0
  0
SPLINE
  5
32f
100
AcDbEntity
  8
0
 62
7
100
AcDbSpline
 70
8
 71
3
 72
8
 73
4
 74
0
 40
0
 40
0
 40
0
 40
0
 40
1
 40
1
 40
1
 40
1
 10
193.534549
 20
29.353880
 30
0.0
 10
193.497341
 20
29.242258
 30
0.0
 10
193.327630
 20
29.180798
 30
0.0
 10
193.327630
 20
29.278947
 30
0.0
  0
LINE
  5
330
100
AcDbEntity
  8
0
 62
7
100
AcDbLine
 10
193.327630
 20
29.278947
 30
0.0
 11
193.327630
 21
29.278947
 31
0.0
  0
SPLINE
  5
331
100
AcDbEntity
  8
0
 62
7
100
AcDbSpline
 70
8
 71
3
 72
8
 73
4
 74
0
 40
0
 40
0
 40
0
 40
0
 40
1
 40
1
 40
1
 40
1
 10
193.053835
 20
45.148362
 30
0.0
 10
193.053835
 20
45.203121
 30
0.0
 10
193.098104
 20
45.247924
 30
0.0
 10
193.152212
 20
45.247924
 30
0.0
  0
SPLINE
  5
332
100
AcDbEntity
  8
0
 62
7
100
AcDbSpline
 70
8
 71
3
 72
8
 73
4
 74
0
 40
0
 40
0
 40
0
 40
0
 40
1
 40
1
 40
1
 40
1
 10
193.152212
 20
45.247924
 30
0.0
 10
193.225725
 20
45.247924
 30
0.0
 10
193.229704
 20
45.222750
 30
0.0
 10
193.167960
 20
45.148362
 30
0.0
  0
SPLINE
  5
333
100
AcDbEntity
  8
0
 62
7
100
AcDbSpline
 70
8
 71
3
 72
8
 73
4
 74
0
 40
0
 40
0
 40
0
 40
0
 40
1
 40
1
 40
1
 40
1
 10
193.167960
 20
45.148362
 30
0.0
 10
193.122513
 20
45.093602
 30
0.0
 10
193.078244
 20
45.048799
 30
0.0
 10
193.069583
 20
45.048799
 30
0.0
  0
SPLINE
  5
334
100
AcDbEntity
  8
0
 62
7
100
AcDbSpline
 70
8
 71
3
 72
8
 73
4
 74
0
 40
0
 40
0
 40
0
 40
0
 40
1
 40
1
 40
1
 40
1
 10
193.069583
 20
45.048799
 30
0.0
 10
193.060918
 20
45.048799
 30
0.0
 10
193.053835
 20
45.093602
 30
0.0
 10
193.053835
 20
45.148362
 30
0.0
  0
LINE
  5
335
100
AcDbEntity
  8
0
 62
7
100
AcDbLine
 10
193.053835
 20
45.148362
 30
0.0
 11
193.053835
 21
45.148362
 31
0.0
  0
LINE
  5
336
100
AcDbEntity
  8
0
 62
7
100
AcDbLine
 10
-35.247854
 20
51.878511
 30
0.0
 11
-35.128225
 21
51.878511
 31
0.0
  0
SPLINE
  5
337
100
AcDbEntity
  8
0
 62
7
100
AcDbSpline
 70
8
 71
3
 72
8
 73
4
 74
0
 40
0
 40
0
 40
0
 40
0
 40
1
 40
1
 40
1
 40
1
 10
-35.128225
 20
51.878511
 30
0.0
 10
-35.150491
 20
51.831956
 30
0.0
 10
-35.167089
 20
51.788031
 30
0.0
 10
-35.178020
 20
51.746736
 30
0.0
  0
SPLINE
  5
338
100
AcDbEntity
  8
0
 62
7
100
AcDbSpline
 70
8
 71
3
 72
8
 73
4
 74
0
 40
0
 40
0
 40
0
 40
0
 40
1
 40
1
 40
1
 40
1
 10
-35.178020
 20
51.746736
 30
0.0
 10
-35.188951
 20
51.705443
 30
0.0
 10
-35.194417
 20
51.665567
 30
0.0
 10
-35.194417
 20
51.627107
 30
0.0
  0
SPLINE
  5
339
100
AcDbEntity
  8
0
 62
7
100
AcDbSpline
 70
8
 71
3
 72
8
 73
4
 74
0
 40
0
 40
0
 40
0
 40
0
 40
1
 40
1
 40
1
 40
1
 10
-35.194417
 20
51.627107
 30
0.0
 10
-35.194417
 20
51.560309
 30
0.0
 10
-35.181462
 20
51.508693
 30
0.0
 10
-35.155552
 20
51.472258
 30
0.0
  0
SPLINE
  5
33a
100
AcDbEntity
  8
0
 62
7
100
AcDbSpline
 70
8
 71
3
 72
8
 73
4
 74
0
 40
0
 40
0
 40
0
 40
0
 40
1
 40
1
 40
1
 40
1
 10
-35.155552
 20
51.472258
 30
0.0
 10
-35.129643
 20
51.436226
 30
0.0
 10
-35.092802
 20
51.418209
 30
0.0
 10
-35.045032
 20
51.418209
 30
0.0
  0
SPLINE
  5
33b
100
AcDbEntity
  8
0
 62
7
100
AcDbSpline
 70
8
 71
3
 72
8
 73
4
 74
0
 40
0
 40
0
 40
0
 40
0
 40
1
 40
1
 40
1
 40
1
 10
-35.045032
 20
51.418209
 30
0.0
 10
-35.004953
 20
51.418209
 30
0.0
 10
-34.974590
 20
51.430152
 30
0.0
 10
-34.953943
 20
51.454038
 30
0.0
  0
SPLINE
  5
33c
100
AcDbEntity
  8
0
 62
7
100
AcDbSpline
 70
8
 71
3
 72
8
 73
4
 74
0
 40
0
 40
0
 40
0
 40
0
 40
1
 40
1
 40
1
 40
1
 10
-34.953943
 20
51.454038
 30
0.0
 10
-34.933701
 20
51.478329
 30
0.0
 10
-34.917305
 20
51.524077
 30
0.0
 10
-34.904755
 20
51.591279
 30
0.0
  0
LINE
  5
33d
100
AcDbEntity
  8
0
 62
7
100
AcDbLine
 10
-34.904755
 20
51.591279
 30
0.0
 11
-34.889575
 21
51.665363
 31
0.0
  0
SPLINE
  5
33e
100
AcDbEntity
  8
0
 62
7
100
AcDbSpline
 70
8
 71
3
 72
8
 73
4
 74
0
 40
0
 40
0
 40
0
 40
0
 40
1
 40
1
 40
1
 40
1
 10
-34.889575
 20
51.665363
 30
0.0
 10
-34.872167
 20
51.756857
 30
0.0
 10
-34.841399
 20
51.824263
 30
0.0
 10
-34.797271
 20
51.867581
 30
0.0
  0
SPLINE
  5
33f
100
AcDbEntity
  8
0
 62
7
100
AcDbSpline
 70
8
 71
3
 72
8
 73
4
 74
0
 40
0
 40
0
 40
0
 40
0
 40
1
 40
1
 40
1
 40
1
 10
-34.797271
 20
51.867581
 30
0.0
 10
-34.753549
 20
51.911302
 30
0.0
 10
-34.694848
 20
51.933163
 30
0.0
 10
-34.621167
 20
51.933163
 30
0.0
  0
SPLINE
  5
340
100
AcDbEntity
  8
0
 62
7
100
AcDbSpline
 70
8
 71
3
 72
8
 73
4
 74
0
 40
0
 40
0
 40
0
 40
0
 40
1
 40
1
 40
1
 40
1
 10
-34.621167
 20
51.933163
 30
0.0
 10
-34.533317
 20
51.933163
 30
0.0
 10
-34.466721
 20
51.903611
 30
0.0
 10
-34.421380
 20
51.844506
 30
0.0
  0
SPLINE
  5
341
100
AcDbEntity
  8
0
 62
7
100
AcDbSpline
 70
8
 71
3
 72
8
 73
4
 74
0
 40
0
 40
0
 40
0
 40
0
 40
1
 40
1
 40
1
 40
1
 10
-34.421380
 20
51.844506
 30
0.0
 10
-34.376038
 20
51.785804
 30
0.0
 10
-34.353367
 20
51.699573
 30
0.0
 10
-34.353367
 20
51.585813
 30
0.0
  0
SPLINE
  5
342
100
AcDbEntity
  8
0
 62
7
100
AcDbSpline
 70
8
 71
3
 72
8
 73
4
 74
0
 40
0
 40
0
 40
0
 40
0
 40
1
 40
1
 40
1
 40
1
 10
-34.353367
 20
51.585813
 30
0.0
 10
-34.353367
 20
51.542900
 30
0.0
 10
-34.358225
 20
51.497154
 30
0.0
 10
-34.367941
 20
51.448574
 30
0.0
  0
SPLINE
  5
343
100
AcDbEntity
  8
0
 62
7
100
AcDbSpline
 70
8
 71
3
 72
8
 73
4
 74
0
 40
0
 40
0
 40
0
 40
0
 40
1
 40
1
 40
1
 40
1
 10
-34.367941
 20
51.448574
 30
0.0
 10
-34.377657
 20
51.400398
 30
0.0
 10
-34.392029
 20
51.350401
 30
0.0
 10
-34.411056
 20
51.298581
 30
0.0
  0
LINE
  5
344
100
AcDbEntity
  8
0
 62
7
100
AcDbLine
 10
-34.411056
 20
51.298581
 30
0.0
 11
-34.537365
 21
51.298581
 31
0.0
  0
SPLINE
  5
345
100
AcDbEntity
  8
0
 62
7
100
AcDbSpline
 70
8
 71
3
 72
8
 73
4
 74
0
 40
0
 40
0
 40
0
 40
0
 40
1
 40
1
 40
1
 40
1
 10
-34.537365
 20
51.298581
 30
0.0
 10
-34.509432
 20
51.348376
 30
0.0
 10
-34.488380
 20
51.397159
 30
0.0
 10
-34.474211
 20
51.444930
 30
0.0
  0
SPLINE
  5
346
100
AcDbEntity
  8
0
 62
7
100
AcDbSpline
 70
8
 71
3
 72
8
 73
4
 74
0
 40
0
 40
0
 40
0
 40
0
 40
1
 40
1
 40
1
 40
1
 10
-34.474211
 20
51.444930
 30
0.0
 10
-34.460041
 20
51.492701
 30
0.0
 10
-34.452957
 20
51.539662
 30
0.0
 10
-34.452957
 20
51.585813
 30
0.0
  0
SPLINE
  5
347
100
AcDbEntity
  8
0
 62
7
100
AcDbSpline
 70
8
 71
3
 72
8
 73
4
 74
0
 40
0
 40
0
 40
0
 40
0
 40
1
 40
1
 40
1
 40
1
 10
-34.452957
 20
51.585813
 30
0.0
 10
-34.452957
 20
51.655851
 30
0.0
 10
-34.466721
 20
51.709897
 30
0.0
 10
-34.494250
 20
51.747952
 30
0.0
  0
SPLINE
  5
348
100
AcDbEntity
  8
0
 62
7
100
AcDbSpline
 70
8
 71
3
 72
8
 73
4
 74
0
 40
0
 40
0
 40
0
 40
0
 40
1
 40
1
 40
1
 40
1
 10
-34.494250
 20
51.747952
 30
0.0
 10
-34.521779
 20
51.786005
 30
0.0
 10
-34.561048
 20
51.805032
 30
0.0
 10
-34.612058
 20
51.805032
 30
0.0
  0
SPLINE
  5
349
100
AcDbEntity
  8
0
 62
7
100
AcDbSpline
 70
8
 71
3
 72
8
 73
4
 74
0
 40
0
 40
0
 40
0
 40
0
 40
1
 40
1
 40
1
 40
1
 10
-34.612058
 20
51.805032
 30
0.0
 10
-34.656590
 20
51.805032
 30
0.0
 10
-34.691406
 20
51.791268
 30
0.0
 10
-34.716506
 20
51.763740
 30
0.0
  0
SPLINE
  5
34a
100
AcDbEntity
  8
0
 62
7
100
AcDbSpline
 70
8
 71
3
 72
8
 73
4
 74
0
 40
0
 40
0
 40
0
 40
0
 40
1
 40
1
 40
1
 40
1
 10
-34.716506
 20
51.763740
 30
0.0
 10
-34.741606
 20
51.736616
 30
0.0
 10
-34.760431
 20
51.691881
 30
0.0
 10
-34.772981
 20
51.629535
 30
0.0
  0
LINE
  5
34b
100
AcDbEntity
  8
0
 62
7
100
AcDbLine
 10
-34.772981
 20
51.629535
 30
0.0
 11
-34.787555
 21
51.554844
 31
0.0
  0
SPLINE
  5
34c
100
AcDbEntity
  8
0
 62
7
100
AcDbSpline
 70
8
 71
3
 72
8
 73
4
 74
0
 40
0
 40
0
 40
0
 40
0
 40
1
 40
1
 40
1
 40
1
 10
-34.787555
 20
51.554844
 30
0.0
 10
-34.805773
 20
51.463350
 30
0.0
 10
-34.834314
 20
51.397158
 30
0.0
 10
-34.873178
 20
51.356270
 30
0.0
  0
SPLINE
  5
34d
100
AcDbEntity
  8
0
 62
7
100
AcDbSpline
 70
8
 71
3
 72
8
 73
4
 74
0
 40
0
 40
0
 40
0
 40
0
 40
1
 40
1
 40
1
 40
1
 10
-34.873178
 20
51.356270
 30
0.0
 10
-34.912042
 20
51.315382
 30
0.0
 10
-34.966088
 20
51.294938
 30
0.0
 10
-35.035315
 20
51.294938
 30
0.0
  0
SPLINE
  5
34e
100
AcDbEntity
  8
0
 62
7
100
AcDbSpline
 70
8
 71
3
 72
8
 73
4
 74
0
 40
0
 40
0
 40
0
 40
0
 40
1
 40
1
 40
1
 40
1
 10
-35.035315
 20
51.294938
 30
0.0
 10
-35.115473
 20
51.294938
 30
0.0
 10
-35.178628
 20
51.323074
 30
0.0
 10
-35.224779
 20
51.379347
 30
0.0
  0
SPLINE
  5
34f
100
AcDbEntity
  8
0
 62
7
100
AcDbSpline
 70
8
 71
3
 72
8
 73
4
 74
0
 40
0
 40
0
 40
0
 40
0
 40
1
 40
1
 40
1
 40
1
 10
-35.224779
 20
51.379347
 30
0.0
 10
-35.270931
 20
51.436023
 30
0.0
 10
-35.294007
 20
51.513954
 30
0.0
 10
-35.294007
 20
51.613140
 30
0.0
  0
SPLINE
  5
350
100
AcDbEntity
  8
0
 62
7
100
AcDbSpline
 70
8
 71
3
 72
8
 73
4
 74
0
 40
0
 40
0
 40
0
 40
0
 40
1
 40
1
 40
1
 40
1
 10
-35.294007
 20
51.613140
 30
0.0
 10
-35.294007
 20
51.655649
 30
0.0
 10
-35.290161
 20
51.698966
 30
0.0
 10
-35.282470
 20
51.743092
 30
0.0
  0
SPLINE
  5
351
100
AcDbEntity
  8
0
 62
7
100
AcDbSpline
 70
8
 71
3
 72
8
 73
4
 74
0
 40
0
 40
0
 40
0
 40
0
 40
1
 40
1
 40
1
 40
1
 10
-35.282470
 20
51.743092
 30
0.0
 10
-35.274778
 20
51.787221
 30
0.0
 10
-35.263240
 20
51.832360
 30
0.0
 10
-35.247856
 20
51.878511
 30
0.0
  0
LINE
  5
352
100
AcDbEntity
  8
0
 62
7
100
AcDbLine
 10
-35.247856
 20
51.878511
 30
0.0
 11
-35.247854
 21
51.878511
 31
0.0
  0
LINE
  5
353
100
AcDbEntity
  8
0
 62
7
100
AcDbLine
 10
-34.472995
 20
52.227685
 30
0.0
 11
-34.112284
 21
52.227685
 31
0.0
  0
LINE
  5
354
100
AcDbEntity
  8
0
 62
7
100
AcDbLine
 10
-34.112284
 20
52.227685
 30
0.0
 11
-34.112284
 21
52.115341
 31
0.0
  0
LINE
  5
355
100
AcDbEntity
  8
0
 62
7
100
AcDbLine
 10
-34.112284
 20
52.115341
 30
0.0
 11
-35.051103
 21
52.115341
 31
0.0
  0
LINE
  5
356
100
AcDbEntity
  8
0
 62
7
100
AcDbLine
 10
-35.051103
 20
52.115341
 30
0.0
 11
-35.051103
 21
52.227685
 31
0.0
  0
LINE
  5
357
100
AcDbEntity
  8
0
 62
7
100
AcDbLine
 10
-35.051103
 20
52.227685
 30
0.0
 11
-34.947869
 21
52.227685
 31
0.0
  0
SPLINE
  5
358
100
AcDbEntity
  8
0
 62
7
100
AcDbSpline
 70
8
 71
3
 72
8
 73
4
 74
0
 40
0
 40
0
 40
0
 40
0
 40
1
 40
1
 40
1
 40
1
 10
-34.947869
 20
52.227685
 30
0.0
 10
-34.988353
 20
52.251164
 30
0.0
 10
-35.018311
 20
52.280716
 30
0.0
 10
-35.037743
 20
52.316342
 30
0.0
  0
SPLINE
  5
359
100
AcDbEntity
  8
0
 62
7
100
AcDbSpline
 70
8
 71
3
 72
8
 73
4
 74
0
 40
0
 40
0
 40
0
 40
0
 40
1
 40
1
 40
1
 40
1
 10
-35.037743
 20
52.316342
 30
0.0
 10
-35.057580
 20
52.352372
 30
0.0
 10
-35.067499
 20
52.395285
 30
0.0
 10
-35.067499
 20
52.445081
 30
0.0
  0
SPLINE
  5
35a
100
AcDbEntity
  8
0
 62
7
100
AcDbSpline
 70
8
 71
3
 72
8
 73
4
 74
0
 40
0
 40
0
 40
0
 40
0
 40
1
 40
1
 40
1
 40
1
 10
-35.067499
 20
52.445081
 30
0.0
 10
-35.067499
 20
52.527668
 30
0.0
 10
-35.034707
 20
52.594669
 30
0.0
 10
-34.969123
 20
52.646082
 30
0.0
  0
SPLINE
  5
35b
100
AcDbEntity
  8
0
 62
7
100
AcDbSpline
 70
8
 71
3
 72
8
 73
4
 74
0
 40
0
 40
0
 40
0
 40
0
 40
1
 40
1
 40
1
 40
1
 10
-34.969123
 20
52.646082
 30
0.0
 10
-34.903540
 20
52.697902
 30
0.0
 10
-34.817309
 20
52.723812
 30
0.0
 10
-34.710432
 20
52.723812
 30
0.0
  0
SPLINE
  5
35c
100
AcDbEntity
  8
0
 62
7
100
AcDbSpline
 70
8
 71
3
 72
8
 73
4
 74
0
 40
0
 40
0
 40
0
 40
0
 40
1
 40
1
 40
1
 40
1
 10
-34.710432
 20
52.723812
 30
0.0
 10
-34.603555
 20
52.723812
 30
0.0
 10
-34.517325
 20
52.697902
 30
0.0
 10
-34.451741
 20
52.646082
 30
0.0
  0
SPLINE
  5
35d
100
AcDbEntity
  8
0
 62
7
100
AcDbSpline
 70
8
 71
3
 72
8
 73
4
 74
0
 40
0
 40
0
 40
0
 40
0
 40
1
 40
1
 40
1
 40
1
 10
-34.451741
 20
52.646082
 30
0.0
 10
-34.386157
 20
52.594669
 30
0.0
 10
-34.353365
 20
52.527668
 30
0.0
 10
-34.353365
 20
52.445081
 30
0.0
  0
SPLINE
  5
35e
100
AcDbEntity
  8
0
 62
7
100
AcDbSpline
 70
8
 71
3
 72
8
 73
4
 74
0
 40
0
 40
0
 40
0
 40
0
 40
1
 40
1
 40
1
 40
1
 10
-34.353365
 20
52.445081
 30
0.0
 10
-34.353365
 20
52.395285
 30
0.0
 10
-34.363081
 20
52.352372
 30
0.0
 10
-34.382514
 20
52.316342
 30
0.0
  0
SPLINE
  5
35f
100
AcDbEntity
  8
0
 62
7
100
AcDbSpline
 70
8
 71
3
 72
8
 73
4
 74
0
 40
0
 40
0
 40
0
 40
0
 40
1
 40
1
 40
1
 40
1
 10
-34.382514
 20
52.316342
 30
0.0
 10
-34.402351
 20
52.280716
 30
0.0
 10
-34.432511
 20
52.251164
 30
0.0
 10
-34.472995
 20
52.227685
 30
0.0
  0
LINE
  5
360
100
AcDbEntity
  8
0
 62
7
100
AcDbLine
 10
-34.472995
 20
52.227685
 30
0.0
 11
-34.472995
 21
52.227685
 31
0.0
  0
SPLINE
  5
361
100
AcDbEntity
  8
0
 62
7
100
AcDbSpline
 70
8
 71
3
 72
8
 73
4
 74
0
 40
0
 40
0
 40
0
 40
0
 40
1
 40
1
 40
1
 40
1
 10
-34.710432
 20
52.607827
 30
0.0
 10
-34.792614
 20
52.607827
 30
0.0
 10
-34.856983
 20
52.590823
 30
0.0
 10
-34.903540
 20
52.556815
 30
0.0
  0
SPLINE
  5
362
100
AcDbEntity
  8
0
 62
7
100
AcDbSpline
 70
8
 71
3
 72
8
 73
4
 74
0
 40
0
 40
0
 40
0
 40
0
 40
1
 40
1
 40
1
 40
1
 10
-34.903540
 20
52.556815
 30
0.0
 10
-34.950501
 20
52.523214
 30
0.0
 10
-34.973982
 20
52.476861
 30
0.0
 10
-34.973982
 20
52.417756
 30
0.0
  0
SPLINE
  5
363
100
AcDbEntity
  8
0
 62
7
100
AcDbSpline
 70
8
 71
3
 72
8
 73
4
 74
0
 40
0
 40
0
 40
0
 40
0
 40
1
 40
1
 40
1
 40
1
 10
-34.973982
 20
52.417756
 30
0.0
 10
-34.973982
 20
52.358649
 30
0.0
 10
-34.950501
 20
52.312093
 30
0.0
 10
-34.903540
 20
52.278087
 30
0.0
  0
SPLINE
  5
364
100
AcDbEntity
  8
0
 62
7
100
AcDbSpline
 70
8
 71
3
 72
8
 73
4
 74
0
 40
0
 40
0
 40
0
 40
0
 40
1
 40
1
 40
1
 40
1
 10
-34.903540
 20
52.278087
 30
0.0
 10
-34.856983
 20
52.244485
 30
0.0
 10
-34.792614
 20
52.227685
 30
0.0
 10
-34.710432
 20
52.227685
 30
0.0
  0
SPLINE
  5
365
100
AcDbEntity
  8
0
 62
7
100
AcDbSpline
 70
8
 71
3
 72
8
 73
4
 74
0
 40
0
 40
0
 40
0
 40
0
 40
1
 40
1
 40
1
 40
1
 10
-34.710432
 20
52.227685
 30
0.0
 10
-34.628250
 20
52.227685
 30
0.0
 10
-34.563678
 20
52.244485
 30
0.0
 10
-34.516717
 20
52.278087
 30
0.0
  0
SPLINE
  5
366
100
AcDbEntity
  8
0
 62
7
100
AcDbSpline
 70
8
 71
3
 72
8
 73
4
 74
0
 40
0
 40
0
 40
0
 40
0
 40
1
 40
1
 40
1
 40
1
 10
-34.516717
 20
52.278087
 30
0.0
 10
-34.470161
 20
52.312093
 30
0.0
 10
-34.446883
 20
52.358649
 30
0.0
 10
-34.446883
 20
52.417756
 30
0.0
  0
SPLINE
  5
367
100
AcDbEntity
  8
0
 62
7
100
AcDbSpline
 70
8
 71
3
 72
8
 73
4
 74
0
 40
0
 40
0
 40
0
 40
0
 40
1
 40
1
 40
1
 40
1
 10
-34.446883
 20
52.417756
 30
0.0
 10
-34.446883
 20
52.476861
 30
0.0
 10
-34.470161
 20
52.523214
 30
0.0
 10
-34.516717
 20
52.556815
 30
0.0
  0
SPLINE
  5
368
100
AcDbEntity
  8
0
 62
7
100
AcDbSpline
 70
8
 71
3
 72
8
 73
4
 74
0
 40
0
 40
0
 40
0
 40
0
 40
1
 40
1
 40
1
 40
1
 10
-34.516717
 20
52.556815
 30
0.0
 10
-34.563678
 20
52.590823
 30
0.0
 10
-34.628250
 20
52.607827
 30
0.0
 10
-34.710432
 20
52.607827
 30
0.0
  0
LINE
  5
369
100
AcDbEntity
  8
0
 62
7
100
AcDbLine
 10
-34.710432
 20
52.607827
 30
0.0
 11
-34.710432
 21
52.607827
 31
0.0
  0
SPLINE
  5
36a
100
AcDbEntity
  8
0
 62
7
100
AcDbSpline
 70
8
 71
3
 72
8
 73
4
 74
0
 40
0
 40
0
 40
0
 40
0
 40
1
 40
1
 40
1
 40
1
 10
-34.712861
 20
53.218118
 30
0.0
 10
-34.712861
 20
53.127839
 30
0.0
 10
-34.702538
 20
53.065292
 30
0.0
 10
-34.681891
 20
53.030477
 30
0.0
  0
SPLINE
  5
36b
100
AcDbEntity
  8
0
 62
7
100
AcDbSpline
 70
8
 71
3
 72
8
 73
4
 74
0
 40
0
 40
0
 40
0
 40
0
 40
1
 40
1
 40
1
 40
1
 10
-34.681891
 20
53.030477
 30
0.0
 10
-34.661244
 20
52.995660
 30
0.0
 10
-34.626023
 20
52.978252
 30
0.0
 10
-34.576229
 20
52.978252
 30
0.0
  0
SPLINE
  5
36c
100
AcDbEntity
  8
0
 62
7
100
AcDbSpline
 70
8
 71
3
 72
8
 73
4
 74
0
 40
0
 40
0
 40
0
 40
0
 40
1
 40
1
 40
1
 40
1
 10
-34.576229
 20
52.978252
 30
0.0
 10
-34.536554
 20
52.978252
 30
0.0
 10
-34.504977
 20
52.991207
 30
0.0
 10
-34.481496
 20
53.017117
 30
0.0
  0
SPLINE
  5
36d
100
AcDbEntity
  8
0
 62
7
100
AcDbSpline
 70
8
 71
3
 72
8
 73
4
 74
0
 40
0
 40
0
 40
0
 40
0
 40
1
 40
1
 40
1
 40
1
 10
-34.481496
 20
53.017117
 30
0.0
 10
-34.458421
 20
53.043431
 30
0.0
 10
-34.446883
 20
53.079057
 30
0.0
 10
-34.446883
 20
53.123994
 30
0.0
  0
SPLINE
  5
36e
100
AcDbEntity
  8
0
 62
7
100
AcDbSpline
 70
8
 71
3
 72
8
 73
4
 74
0
 40
0
 40
0
 40
0
 40
0
 40
1
 40
1
 40
1
 40
1
 10
-34.446883
 20
53.123994
 30
0.0
 10
-34.446883
 20
53.185934
 30
0.0
 10
-34.468744
 20
53.235527
 30
0.0
 10
-34.512467
 20
53.272770
 30
0.0
  0
SPLINE
  5
36f
100
AcDbEntity
  8
0
 62
7
100
AcDbSpline
 70
8
 71
3
 72
8
 73
4
 74
0
 40
0
 40
0
 40
0
 40
0
 40
1
 40
1
 40
1
 40
1
 10
-34.512467
 20
53.272770
 30
0.0
 10
-34.556594
 20
53.310421
 30
0.0
 10
-34.615093
 20
53.329246
 30
0.0
 10
-34.687964
 20
53.329246
 30
0.0
  0
LINE
  5
370
100
AcDbEntity
  8
0
 62
7
100
AcDbLine
 10
-34.687964
 20
53.329246
 30
0.0
 11
-34.712861
 21
53.329246
 31
0.0
  0
LINE
  5
371
100
AcDbEntity
  8
0
 62
7
100
AcDbLine
 10
-34.712861
 20
53.329246
 30
0.0
 11
-34.712861
 21
53.218118
 31
0.0
  0
LINE
  5
372
100
AcDbEntity
  8
0
 62
7
100
AcDbLine
 10
-34.712861
 20
53.218118
 30
0.0
 11
-34.712861
 21
53.218118
 31
0.0
  0
LINE
  5
373
100
AcDbEntity
  8
0
 62
7
100
AcDbLine
 10
-34.759013
 20
53.440981
 30
0.0
 11
-34.370976
 21
53.440981
 31
0.0
  0
LINE
  5
374
100
AcDbEntity
  8
0
 62
7
100
AcDbLine
 10
-34.370976
 20
53.440981
 30
0.0
 11
-34.370976
 21
53.329246
 31
0.0
  0
LINE
  5
375
100
AcDbEntity
  8
0
 62
7
100
AcDbLine
 10
-34.370976
 20
53.329246
 30
0.0
 11
-34.474209
 21
53.329246
 31
0.0
  0
SPLINE
  5
376
100
AcDbEntity
  8
0
 62
7
100
AcDbSpline
 70
8
 71
3
 72
8
 73
4
 74
0
 40
0
 40
0
 40
0
 40
0
 40
1
 40
1
 40
1
 40
1
 10
-34.474209
 20
53.329246
 30
0.0
 10
-34.432916
 20
53.303742
 30
0.0
 10
-34.402351
 20
53.271963
 30
0.0
 10
-34.382514
 20
53.233908
 30
0.0
  0
SPLINE
  5
377
100
AcDbEntity
  8
0
 62
7
100
AcDbSpline
 70
8
 71
3
 72
8
 73
4
 74
0
 40
0
 40
0
 40
0
 40
0
 40
1
 40
1
 40
1
 40
1
 10
-34.382514
 20
53.233908
 30
0.0
 10
-34.363081
 20
53.195854
 30
0.0
 10
-34.353365
 20
53.149297
 30
0.0
 10
-34.353365
 20
53.094240
 30
0.0
  0
SPLINE
  5
378
100
AcDbEntity
  8
0
 62
7
100
AcDbSpline
 70
8
 71
3
 72
8
 73
4
 74
0
 40
0
 40
0
 40
0
 40
0
 40
1
 40
1
 40
1
 40
1
 10
-34.353365
 20
53.094240
 30
0.0
 10
-34.353365
 20
53.024606
 30
0.0
 10
-34.372797
 20
52.969143
 30
0.0
 10
-34.411662
 20
52.927850
 30
0.0
  0
SPLINE
  5
379
100
AcDbEntity
  8
0
 62
7
100
AcDbSpline
 70
8
 71
3
 72
8
 73
4
 74
0
 40
0
 40
0
 40
0
 40
0
 40
1
 40
1
 40
1
 40
1
 10
-34.411662
 20
52.927850
 30
0.0
 10
-34.450931
 20
52.886961
 30
0.0
 10
-34.503358
 20
52.866517
 30
0.0
 10
-34.568941
 20
52.866517
 30
0.0
  0
SPLINE
  5
37a
100
AcDbEntity
  8
0
 62
7
100
AcDbSpline
 70
8
 71
3
 72
8
 73
4
 74
0
 40
0
 40
0
 40
0
 40
0
 40
1
 40
1
 40
1
 40
1
 10
-34.568941
 20
52.866517
 30
0.0
 10
-34.645456
 20
52.866517
 30
0.0
 10
-34.703145
 20
52.892022
 30
0.0
 10
-34.742010
 20
52.943031
 30
0.0
  0
SPLINE
  5
37b
100
AcDbEntity
  8
0
 62
7
100
AcDbSpline
 70
8
 71
3
 72
8
 73
4
 74
0
 40
0
 40
0
 40
0
 40
0
 40
1
 40
1
 40
1
 40
1
 10
-34.742010
 20
52.943031
 30
0.0
 10
-34.780874
 20
52.994446
 30
0.0
 10
-34.800306
 20
53.070960
 30
0.0
 10
-34.800306
 20
53.172573
 30
0.0
  0
LINE
  5
37c
100
AcDbEntity
  8
0
 62
7
100
AcDbLine
 10
-34.800306
 20
53.172573
 30
0.0
 11
-34.800306
 21
53.329246
 31
0.0
  0
LINE
  5
37d
100
AcDbEntity
  8
0
 62
7
100
AcDbLine
 10
-34.800306
 20
53.329246
 30
0.0
 11
-34.811237
 21
53.329246
 31
0.0
  0
SPLINE
  5
37e
100
AcDbEntity
  8
0
 62
7
100
AcDbSpline
 70
8
 71
3
 72
8
 73
4
 74
0
 40
0
 40
0
 40
0
 40
0
 40
1
 40
1
 40
1
 40
1
 10
-34.811237
 20
53.329246
 30
0.0
 10
-34.862651
 20
53.329246
 30
0.0
 10
-34.902325
 20
53.312243
 30
0.0
 10
-34.930259
 20
53.278237
 30
0.0
  0
SPLINE
  5
37f
100
AcDbEntity
  8
0
 62
7
100
AcDbSpline
 70
8
 71
3
 72
8
 73
4
 74
0
 40
0
 40
0
 40
0
 40
0
 40
1
 40
1
 40
1
 40
1
 10
-34.930259
 20
53.278237
 30
0.0
 10
-34.958598
 20
53.244636
 30
0.0
 10
-34.972767
 20
53.197269
 30
0.0
 10
-34.972767
 20
53.136138
 30
0.0
  0
SPLINE
  5
380
100
AcDbEntity
  8
0
 62
7
100
AcDbSpline
 70
8
 71
3
 72
8
 73
4
 74
0
 40
0
 40
0
 40
0
 40
0
 40
1
 40
1
 40
1
 40
1
 10
-34.972767
 20
53.136138
 30
0.0
 10
-34.972767
 20
53.097274
 30
0.0
 10
-34.968111
 20
53.059423
 30
0.0
 10
-34.958800
 20
53.022583
 30
0.0
  0
SPLINE
  5
381
100
AcDbEntity
  8
0
 62
7
100
AcDbSpline
 70
8
 71
3
 72
8
 73
4
 74
0
 40
0
 40
0
 40
0
 40
0
 40
1
 40
1
 40
1
 40
1
 10
-34.958800
 20
53.022583
 30
0.0
 10
-34.949488
 20
52.985742
 30
0.0
 10
-34.935521
 20
52.950318
 30
0.0
 10
-34.916899
 20
52.916313
 30
0.0
  0
LINE
  5
382
100
AcDbEntity
  8
0
 62
7
100
AcDbLine
 10
-34.916899
 20
52.916313
 30
0.0
 11
-35.020133
 21
52.916313
 31
0.0
  0
SPLINE
  5
383
100
AcDbEntity
  8
0
 62
7
100
AcDbSpline
 70
8
 71
3
 72
8
 73
4
 74
0
 40
0
 40
0
 40
0
 40
0
 40
1
 40
1
 40
1
 40
1
 10
-35.020133
 20
52.916313
 30
0.0
 10
-35.035922
 20
52.957201
 30
0.0
 10
-35.047662
 20
52.996875
 30
0.0
 10
-35.055354
 20
53.035334
 30
0.0
  0
SPLINE
  5
384
100
AcDbEntity
  8
0
 62
7
100
AcDbSpline
 70
8
 71
3
 72
8
 73
4
 74
0
 40
0
 40
0
 40
0
 40
0
 40
1
 40
1
 40
1
 40
1
 10
-35.055354
 20
53.035334
 30
0.0
 10
-35.063450
 20
53.073793
 30
0.0
 10
-35.067498
 20
53.111242
 30
0.0
 10
-35.067498
 20
53.147678
 30
0.0
  0
SPLINE
  5
385
100
AcDbEntity
  8
0
 62
7
100
AcDbSpline
 70
8
 71
3
 72
8
 73
4
 74
0
 40
0
 40
0
 40
0
 40
0
 40
1
 40
1
 40
1
 40
1
 10
-35.067498
 20
53.147678
 30
0.0
 10
-35.067498
 20
53.246053
 30
0.0
 10
-35.041993
 20
53.319531
 30
0.0
 10
-34.990983
 20
53.368111
 30
0.0
  0
SPLINE
  5
386
100
AcDbEntity
  8
0
 62
7
100
AcDbSpline
 70
8
 71
3
 72
8
 73
4
 74
0
 40
0
 40
0
 40
0
 40
0
 40
1
 40
1
 40
1
 40
1
 10
-34.990983
 20
53.368111
 30
0.0
 10
-34.939974
 20
53.416691
 30
0.0
 10
-34.862650
 20
53.440981
 30
0.0
 10
-34.759011
 20
53.440981
 30
0.0
  0
LINE
  5
387
100
AcDbEntity
  8
0
 62
7
100
AcDbLine
 10
-34.759011
 20
53.440981
 30
0.0
 11
-34.759013
 21
53.440981
 31
0.0
  0
LINE
  5
388
100
AcDbEntity
  8
0
 62
7
100
AcDbLine
 10
-35.024991
 20
54.161189
 30
0.0
 11
-34.920543
 21
54.161189
 31
0.0
  0
SPLINE
  5
389
100
AcDbEntity
  8
0
 62
7
100
AcDbSpline
 70
8
 71
3
 72
8
 73
4
 74
0
 40
0
 40
0
 40
0
 40
0
 40
1
 40
1
 40
1
 40
1
 10
-34.920543
 20
54.161189
 30
0.0
 10
-34.937951
 20
54.129610
 30
0.0
 10
-34.950905
 20
54.097830
 30
0.0
 10
-34.959407
 20
54.065849
 30
0.0
  0
SPLINE
  5
38a
100
AcDbEntity
  8
0
 62
7
100
AcDbSpline
 70
8
 71
3
 72
8
 73
4
 74
0
 40
0
 40
0
 40
0
 40
0
 40
1
 40
1
 40
1
 40
1
 10
-34.959407
 20
54.065849
 30
0.0
 10
-34.968314
 20
54.034272
 30
0.0
 10
-34.972768
 20
54.002289
 30
0.0
 10
-34.972768
 20
53.969902
 30
0.0
  0
SPLINE
  5
38b
100
AcDbEntity
  8
0
 62
7
100
AcDbSpline
 70
8
 71
3
 72
8
 73
4
 74
0
 40
0
 40
0
 40
0
 40
0
 40
1
 40
1
 40
1
 40
1
 10
-34.972768
 20
53.969902
 30
0.0
 10
-34.972768
 20
53.897436
 30
0.0
 10
-34.949692
 20
53.841164
 30
0.0
 10
-34.903541
 20
53.801085
 30
0.0
  0
SPLINE
  5
38c
100
AcDbEntity
  8
0
 62
7
100
AcDbSpline
 70
8
 71
3
 72
8
 73
4
 74
0
 40
0
 40
0
 40
0
 40
0
 40
1
 40
1
 40
1
 40
1
 10
-34.903541
 20
53.801085
 30
0.0
 10
-34.857794
 20
53.761005
 30
0.0
 10
-34.793425
 20
53.740966
 30
0.0
 10
-34.710433
 20
53.740966
 30
0.0
  0
SPLINE
  5
38d
100
AcDbEntity
  8
0
 62
7
100
AcDbSpline
 70
8
 71
3
 72
8
 73
4
 74
0
 40
0
 40
0
 40
0
 40
0
 40
1
 40
1
 40
1
 40
1
 10
-34.710433
 20
53.740966
 30
0.0
 10
-34.627441
 20
53.740966
 30
0.0
 10
-34.562870
 20
53.761005
 30
0.0
 10
-34.516718
 20
53.801085
 30
0.0
  0
SPLINE
  5
38e
100
AcDbEntity
  8
0
 62
7
100
AcDbSpline
 70
8
 71
3
 72
8
 73
4
 74
0
 40
0
 40
0
 40
0
 40
0
 40
1
 40
1
 40
1
 40
1
 10
-34.516718
 20
53.801085
 30
0.0
 10
-34.470972
 20
53.841164
 30
0.0
 10
-34.448098
 20
53.897436
 30
0.0
 10
-34.448098
 20
53.969902
 30
0.0
  0
SPLINE
  5
38f
100
AcDbEntity
  8
0
 62
7
100
AcDbSpline
 70
8
 71
3
 72
8
 73
4
 74
0
 40
0
 40
0
 40
0
 40
0
 40
1
 40
1
 40
1
 40
1
 10
-34.448098
 20
53.969902
 30
0.0
 10
-34.448098
 20
54.002289
 30
0.0
 10
-34.452349
 20
54.034272
 30
0.0
 10
-34.460852
 20
54.065849
 30
0.0
  0
SPLINE
  5
390
100
AcDbEntity
  8
0
 62
7
100
AcDbSpline
 70
8
 71
3
 72
8
 73
4
 74
0
 40
0
 40
0
 40
0
 40
0
 40
1
 40
1
 40
1
 40
1
 10
-34.460852
 20
54.065849
 30
0.0
 10
-34.469759
 20
54.097830
 30
0.0
 10
-34.482916
 20
54.129610
 30
0.0
 10
-34.500324
 20
54.161189
 30
0.0
  0
LINE
  5
391
100
AcDbEntity
  8
0
 62
7
100
AcDbLine
 10
-34.500324
 20
54.161189
 30
0.0
 11
-34.397090
 21
54.161189
 31
0.0
  0
SPLINE
  5
392
100
AcDbEntity
  8
0
 62
7
100
AcDbSpline
 70
8
 71
3
 72
8
 73
4
 74
0
 40
0
 40
0
 40
0
 40
0
 40
1
 40
1
 40
1
 40
1
 10
-34.397090
 20
54.161189
 30
0.0
 10
-34.382516
 20
54.130017
 30
0.0
 10
-34.371585
 20
54.097629
 30
0.0
 10
-34.364298
 20
54.064026
 30
0.0
  0
SPLINE
  5
393
100
AcDbEntity
  8
0
 62
7
100
AcDbSpline
 70
8
 71
3
 72
8
 73
4
 74
0
 40
0
 40
0
 40
0
 40
0
 40
1
 40
1
 40
1
 40
1
 10
-34.364298
 20
54.064026
 30
0.0
 10
-34.357011
 20
54.030831
 30
0.0
 10
-34.353368
 20
53.995408
 30
0.0
 10
-34.353368
 20
53.957758
 30
0.0
  0
SPLINE
  5
394
100
AcDbEntity
  8
0
 62
7
100
AcDbSpline
 70
8
 71
3
 72
8
 73
4
 74
0
 40
0
 40
0
 40
0
 40
0
 40
1
 40
1
 40
1
 40
1
 10
-34.353368
 20
53.957758
 30
0.0
 10
-34.353368
 20
53.855334
 30
0.0
 10
-34.385552
 20
53.773961
 30
0.0
 10
-34.449922
 20
53.713641
 30
0.0
  0
SPLINE
  5
395
100
AcDbEntity
  8
0
 62
7
100
AcDbSpline
 70
8
 71
3
 72
8
 73
4
 74
0
 40
0
 40
0
 40
0
 40
0
 40
1
 40
1
 40
1
 40
1
 10
-34.449922
 20
53.713641
 30
0.0
 10
-34.514291
 20
53.653319
 30
0.0
 10
-34.601129
 20
53.623158
 30
0.0
 10
-34.710435
 20
53.623158
 30
0.0
  0
SPLINE
  5
396
100
AcDbEntity
  8
0
 62
7
100
AcDbSpline
 70
8
 71
3
 72
8
 73
4
 74
0
 40
0
 40
0
 40
0
 40
0
 40
1
 40
1
 40
1
 40
1
 10
-34.710435
 20
53.623158
 30
0.0
 10
-34.821360
 20
53.623158
 30
0.0
 10
-34.908603
 20
53.653521
 30
0.0
 10
-34.972162
 20
53.714248
 30
0.0
  0
SPLINE
  5
397
100
AcDbEntity
  8
0
 62
7
100
AcDbSpline
 70
8
 71
3
 72
8
 73
4
 74
0
 40
0
 40
0
 40
0
 40
0
 40
1
 40
1
 40
1
 40
1
 10
-34.972162
 20
53.714248
 30
0.0
 10
-35.035722
 20
53.775377
 30
0.0
 10
-35.067502
 20
53.858976
 30
0.0
 10
-35.067502
 20
53.965045
 30
0.0
  0
SPLINE
  5
398
100
AcDbEntity
  8
0
 62
7
100
AcDbSpline
 70
8
 71
3
 72
8
 73
4
 74
0
 40
0
 40
0
 40
0
 40
0
 40
1
 40
1
 40
1
 40
1
 10
-35.067502
 20
53.965045
 30
0.0
 10
-35.067502
 20
53.999455
 30
0.0
 10
-35.063858
 20
54.033056
 30
0.0
 10
-35.056571
 20
54.065849
 30
0.0
  0
SPLINE
  5
399
100
AcDbEntity
  8
0
 62
7
100
AcDbSpline
 70
8
 71
3
 72
8
 73
4
 74
0
 40
0
 40
0
 40
0
 40
0
 40
1
 40
1
 40
1
 40
1
 10
-35.056571
 20
54.065849
 30
0.0
 10
-35.049689
 20
54.098641
 30
0.0
 10
-35.039163
 20
54.130421
 30
0.0
 10
-35.024994
 20
54.161189
 30
0.0
  0
LINE
  5
39a
100
AcDbEntity
  8
0
 62
7
100
AcDbLine
 10
-35.024994
 20
54.161189
 30
0.0
 11
-35.024991
 21
54.161189
 31
0.0
  0
LINE
  5
39b
100
AcDbEntity
  8
0
 62
7
100
AcDbLine
 10
-34.738973
 20
54.938477
 30
0.0
 11
-34.684320
 21
54.938477
 31
0.0
  0
LINE
  5
39c
100
AcDbEntity
  8
0
 62
7
100
AcDbLine
 10
-34.684320
 20
54.938477
 30
0.0
 11
-34.684320
 21
54.424737
 31
0.0
  0
SPLINE
  5
39d
100
AcDbEntity
  8
0
 62
7
100
AcDbSpline
 70
8
 71
3
 72
8
 73
4
 74
0
 40
0
 40
0
 40
0
 40
0
 40
1
 40
1
 40
1
 40
1
 10
-34.684320
 20
54.424737
 30
0.0
 10
-34.607401
 20
54.429591
 30
0.0
 10
-34.548699
 20
54.452667
 30
0.0
 10
-34.508216
 20
54.493966
 30
0.0
  0
SPLINE
  5
39e
100
AcDbEntity
  8
0
 62
7
100
AcDbSpline
 70
8
 71
3
 72
8
 73
4
 74
0
 40
0
 40
0
 40
0
 40
0
 40
1
 40
1
 40
1
 40
1
 10
-34.508216
 20
54.493966
 30
0.0
 10
-34.468137
 20
54.535663
 30
0.0
 10
-34.448097
 20
54.593554
 30
0.0
 10
-34.448097
 20
54.667640
 30
0.0
  0
SPLINE
  5
39f
100
AcDbEntity
  8
0
 62
7
100
AcDbSpline
 70
8
 71
3
 72
8
 73
4
 74
0
 40
0
 40
0
 40
0
 40
0
 40
1
 40
1
 40
1
 40
1
 10
-34.448097
 20
54.667640
 30
0.0
 10
-34.448097
 20
54.710552
 30
0.0
 10
-34.453360
 20
54.752048
 30
0.0
 10
-34.463885
 20
54.792128
 30
0.0
  0
SPLINE
  5
3a0
100
AcDbEntity
  8
0
 62
7
100
AcDbSpline
 70
8
 71
3
 72
8
 73
4
 74
0
 40
0
 40
0
 40
0
 40
0
 40
1
 40
1
 40
1
 40
1
 10
-34.463885
 20
54.792128
 30
0.0
 10
-34.474410
 20
54.832612
 30
0.0
 10
-34.490199
 20
54.872690
 30
0.0
 10
-34.511251
 20
54.912363
 30
0.0
  0
LINE
  5
3a1
100
AcDbEntity
  8
0
 62
7
100
AcDbLine
 10
-34.511251
 20
54.912363
 30
0.0
 11
-34.405588
 21
54.912363
 31
0.0
  0
SPLINE
  5
3a2
100
AcDbEntity
  8
0
 62
7
100
AcDbSpline
 70
8
 71
3
 72
8
 73
4
 74
0
 40
0
 40
0
 40
0
 40
0
 40
1
 40
1
 40
1
 40
1
 10
-34.405588
 20
54.912363
 30
0.0
 10
-34.388585
 20
54.872285
 30
0.0
 10
-34.375630
 20
54.831195
 30
0.0
 10
-34.366724
 20
54.789091
 30
0.0
  0
SPLINE
  5
3a3
100
AcDbEntity
  8
0
 62
7
100
AcDbSpline
 70
8
 71
3
 72
8
 73
4
 74
0
 40
0
 40
0
 40
0
 40
0
 40
1
 40
1
 40
1
 40
1
 10
-34.366724
 20
54.789091
 30
0.0
 10
-34.357817
 20
54.746987
 30
0.0
 10
-34.353364
 20
54.704277
 30
0.0
 10
-34.353364
 20
54.660959
 30
0.0
  0
SPLINE
  5
3a4
100
AcDbEntity
  8
0
 62
7
100
AcDbSpline
 70
8
 71
3
 72
8
 73
4
 74
0
 40
0
 40
0
 40
0
 40
0
 40
1
 40
1
 40
1
 40
1
 10
-34.353364
 20
54.660959
 30
0.0
 10
-34.353364
 20
54.552464
 30
0.0
 10
-34.384941
 20
54.466436
 30
0.0
 10
-34.448096
 20
54.402876
 30
0.0
  0
SPLINE
  5
3a5
100
AcDbEntity
  8
0
 62
7
100
AcDbSpline
 70
8
 71
3
 72
8
 73
4
 74
0
 40
0
 40
0
 40
0
 40
0
 40
1
 40
1
 40
1
 40
1
 10
-34.448096
 20
54.402876
 30
0.0
 10
-34.511250
 20
54.339722
 30
0.0
 10
-34.596671
 20
54.308145
 30
0.0
 10
-34.704358
 20
54.308145
 30
0.0
  0
SPLINE
  5
3a6
100
AcDbEntity
  8
0
 62
7
100
AcDbSpline
 70
8
 71
3
 72
8
 73
4
 74
0
 40
0
 40
0
 40
0
 40
0
 40
1
 40
1
 40
1
 40
1
 10
-34.704358
 20
54.308145
 30
0.0
 10
-34.815688
 20
54.308145
 30
0.0
 10
-34.903943
 20
54.338103
 30
0.0
 10
-34.969122
 20
54.398019
 30
0.0
  0
SPLINE
  5
3a7
100
AcDbEntity
  8
0
 62
7
100
AcDbSpline
 70
8
 71
3
 72
8
 73
4
 74
0
 40
0
 40
0
 40
0
 40
0
 40
1
 40
1
 40
1
 40
1
 10
-34.969122
 20
54.398019
 30
0.0
 10
-35.034705
 20
54.458339
 30
0.0
 10
-35.067497
 20
54.539509
 30
0.0
 10
-35.067497
 20
54.641528
 30
0.0
  0
SPLINE
  5
3a8
100
AcDbEntity
  8
0
 62
7
100
AcDbSpline
 70
8
 71
3
 72
8
 73
4
 74
0
 40
0
 40
0
 40
0
 40
0
 40
1
 40
1
 40
1
 40
1
 10
-35.067497
 20
54.641528
 30
0.0
 10
-35.067497
 20
54.733021
 30
0.0
 10
-35.037944
 20
54.805284
 30
0.0
 10
-34.978838
 20
54.858317
 30
0.0
  0
SPLINE
  5
3a9
100
AcDbEntity
  8
0
 62
7
100
AcDbSpline
 70
8
 71
3
 72
8
 73
4
 74
0
 40
0
 40
0
 40
0
 40
0
 40
1
 40
1
 40
1
 40
1
 10
-34.978838
 20
54.858317
 30
0.0
 10
-34.920136
 20
54.911757
 30
0.0
 10
-34.840181
 20
54.938477
 30
0.0
 10
-34.738971
 20
54.938477
 30
0.0
  0
LINE
  5
3aa
100
AcDbEntity
  8
0
 62
7
100
AcDbLine
 10
-34.738971
 20
54.938477
 30
0.0
 11
-34.738973
 21
54.938477
 31
0.0
  0
SPLINE
  5
3ab
100
AcDbEntity
  8
0
 62
7
100
AcDbSpline
 70
8
 71
3
 72
8
 73
4
 74
0
 40
0
 40
0
 40
0
 40
0
 40
1
 40
1
 40
1
 40
1
 10
-34.771765
 20
54.826742
 30
0.0
 10
-34.832896
 20
54.825990
 30
0.0
 10
-34.881679
 20
54.808784
 30
0.0
 10
-34.918114
 20
54.775124
 30
0.0
  0
SPLINE
  5
3ac
100
AcDbEntity
  8
0
 62
7
100
AcDbSpline
 70
8
 71
3
 72
8
 73
4
 74
0
 40
0
 40
0
 40
0
 40
0
 40
1
 40
1
 40
1
 40
1
 10
-34.918114
 20
54.775124
 30
0.0
 10
-34.954549
 20
54.741927
 30
0.0
 10
-34.972767
 20
54.697800
 30
0.0
 10
-34.972767
 20
54.642742
 30
0.0
  0
SPLINE
  5
3ad
100
AcDbEntity
  8
0
 62
7
100
AcDbSpline
 70
8
 71
3
 72
8
 73
4
 74
0
 40
0
 40
0
 40
0
 40
0
 40
1
 40
1
 40
1
 40
1
 10
-34.972767
 20
54.642742
 30
0.0
 10
-34.972767
 20
54.580397
 30
0.0
 10
-34.955156
 20
54.530400
 30
0.0
 10
-34.919936
 20
54.492749
 30
0.0
  0
SPLINE
  5
3ae
100
AcDbEntity
  8
0
 62
7
100
AcDbSpline
 70
8
 71
3
 72
8
 73
4
 74
0
 40
0
 40
0
 40
0
 40
0
 40
1
 40
1
 40
1
 40
1
 10
-34.919936
 20
54.492749
 30
0.0
 10
-34.884715
 20
54.455505
 30
0.0
 10
-34.835122
 20
54.434049
 30
0.0
 10
-34.771158
 20
54.428380
 30
0.0
  0
LINE
  5
3af
100
AcDbEntity
  8
0
 62
7
100
AcDbLine
 10
-34.771158
 20
54.428380
 30
0.0
 11
-34.771779
 21
54.826742
 31
0.0
  0
LINE
  5
3b0
100
AcDbEntity
  8
0
 62
7
100
AcDbLine
 10
-34.771779
 20
54.826742
 30
0.0
 11
-34.771765
 21
54.826742
 31
0.0
  0
LINE
  5
3b1
100
AcDbEntity
  8
0
 62
7
100
AcDbLine
 10
-35.031064
 20
55.555449
 30
0.0
 11
-34.925401
 21
55.555449
 31
0.0
  0
SPLINE
  5
3b2
100
AcDbEntity
  8
0
 62
7
100
AcDbSpline
 70
8
 71
3
 72
8
 73
4
 74
0
 40
0
 40
0
 40
0
 40
0
 40
1
 40
1
 40
1
 40
1
 10
-34.925401
 20
55.555449
 30
0.0
 10
-34.941595
 20
55.523872
 30
0.0
 10
-34.953740
 20
55.491080
 30
0.0
 10
-34.961836
 20
55.457074
 30
0.0
  0
SPLINE
  5
3b3
100
AcDbEntity
  8
0
 62
7
100
AcDbSpline
 70
8
 71
3
 72
8
 73
4
 74
0
 40
0
 40
0
 40
0
 40
0
 40
1
 40
1
 40
1
 40
1
 10
-34.961836
 20
55.457074
 30
0.0
 10
-34.969932
 20
55.423067
 30
0.0
 10
-34.973980
 20
55.387845
 30
0.0
 10
-34.973980
 20
55.351410
 30
0.0
  0
SPLINE
  5
3b4
100
AcDbEntity
  8
0
 62
7
100
AcDbSpline
 70
8
 71
3
 72
8
 73
4
 74
0
 40
0
 40
0
 40
0
 40
0
 40
1
 40
1
 40
1
 40
1
 10
-34.973980
 20
55.351410
 30
0.0
 10
-34.973980
 20
55.295948
 30
0.0
 10
-34.965479
 20
55.254250
 30
0.0
 10
-34.948476
 20
55.226315
 30
0.0
  0
SPLINE
  5
3b5
100
AcDbEntity
  8
0
 62
7
100
AcDbSpline
 70
8
 71
3
 72
8
 73
4
 74
0
 40
0
 40
0
 40
0
 40
0
 40
1
 40
1
 40
1
 40
1
 10
-34.948476
 20
55.226315
 30
0.0
 10
-34.931473
 20
55.198787
 30
0.0
 10
-34.905968
 20
55.185023
 30
0.0
 10
-34.871962
 20
55.185023
 30
0.0
  0
SPLINE
  5
3b6
100
AcDbEntity
  8
0
 62
7
100
AcDbSpline
 70
8
 71
3
 72
8
 73
4
 74
0
 40
0
 40
0
 40
0
 40
0
 40
1
 40
1
 40
1
 40
1
 10
-34.871962
 20
55.185023
 30
0.0
 10
-34.846052
 20
55.185023
 30
0.0
 10
-34.825608
 20
55.194942
 30
0.0
 10
-34.810629
 20
55.214778
 30
0.0
  0
SPLINE
  5
3b7
100
AcDbEntity
  8
0
 62
7
100
AcDbSpline
 70
8
 71
3
 72
8
 73
4
 74
0
 40
0
 40
0
 40
0
 40
0
 40
1
 40
1
 40
1
 40
1
 10
-34.810629
 20
55.214778
 30
0.0
 10
-34.796055
 20
55.234615
 30
0.0
 10
-34.782088
 20
55.274491
 30
0.0
 10
-34.768728
 20
55.334406
 30
0.0
  0
LINE
  5
3b8
100
AcDbEntity
  8
0
 62
7
100
AcDbLine
 10
-34.768728
 20
55.334406
 30
0.0
 11
-34.760227
 21
55.372665
 31
0.0
  0
SPLINE
  5
3b9
100
AcDbEntity
  8
0
 62
7
100
AcDbSpline
 70
8
 71
3
 72
8
 73
4
 74
0
 40
0
 40
0
 40
0
 40
0
 40
1
 40
1
 40
1
 40
1
 10
-34.760227
 20
55.372665
 30
0.0
 10
-34.743224
 20
55.452012
 30
0.0
 10
-34.719136
 20
55.508285
 30
0.0
 10
-34.687964
 20
55.541481
 30
0.0
  0
SPLINE
  5
3ba
100
AcDbEntity
  8
0
 62
7
100
AcDbSpline
 70
8
 71
3
 72
8
 73
4
 74
0
 40
0
 40
0
 40
0
 40
0
 40
1
 40
1
 40
1
 40
1
 10
-34.687964
 20
55.541481
 30
0.0
 10
-34.657196
 20
55.575083
 30
0.0
 10
-34.614081
 20
55.591883
 30
0.0
 10
-34.558618
 20
55.591883
 30
0.0
  0
SPLINE
  5
3bb
100
AcDbEntity
  8
0
 62
7
100
AcDbSpline
 70
8
 71
3
 72
8
 73
4
 74
0
 40
0
 40
0
 40
0
 40
0
 40
1
 40
1
 40
1
 40
1
 10
-34.558618
 20
55.591883
 30
0.0
 10
-34.495463
 20
55.591883
 30
0.0
 10
-34.445466
 20
55.566784
 30
0.0
 10
-34.408626
 20
55.516584
 30
0.0
  0
SPLINE
  5
3bc
100
AcDbEntity
  8
0
 62
7
100
AcDbSpline
 70
8
 71
3
 72
8
 73
4
 74
0
 40
0
 40
0
 40
0
 40
0
 40
1
 40
1
 40
1
 40
1
 10
-34.408626
 20
55.516584
 30
0.0
 10
-34.371785
 20
55.466788
 30
0.0
 10
-34.353365
 20
55.398169
 30
0.0
 10
-34.353365
 20
55.310725
 30
0.0
  0
SPLINE
  5
3bd
100
AcDbEntity
  8
0
 62
7
100
AcDbSpline
 70
8
 71
3
 72
8
 73
4
 74
0
 40
0
 40
0
 40
0
 40
0
 40
1
 40
1
 40
1
 40
1
 10
-34.353365
 20
55.310725
 30
0.0
 10
-34.353365
 20
55.274288
 30
0.0
 10
-34.357009
 20
55.236234
 30
0.0
 10
-34.364296
 20
55.196561
 30
0.0
  0
SPLINE
  5
3be
100
AcDbEntity
  8
0
 62
7
100
AcDbSpline
 70
8
 71
3
 72
8
 73
4
 74
0
 40
0
 40
0
 40
0
 40
0
 40
1
 40
1
 40
1
 40
1
 10
-34.364296
 20
55.196561
 30
0.0
 10
-34.371178
 20
55.157290
 30
0.0
 10
-34.381704
 20
55.115794
 30
0.0
 10
-34.395873
 20
55.072072
 30
0.0
  0
LINE
  5
3bf
100
AcDbEntity
  8
0
 62
7
100
AcDbLine
 10
-34.395873
 20
55.072072
 30
0.0
 11
-34.511252
 21
55.072072
 31
0.0
  0
SPLINE
  5
3c0
100
AcDbEntity
  8
0
 62
7
100
AcDbSpline
 70
8
 71
3
 72
8
 73
4
 74
0
 40
0
 40
0
 40
0
 40
0
 40
1
 40
1
 40
1
 40
1
 10
-34.511252
 20
55.072072
 30
0.0
 10
-34.489795
 20
55.113365
 30
0.0
 10
-34.473602
 20
55.154051
 30
0.0
 10
-34.462671
 20
55.194131
 30
0.0
  0
SPLINE
  5
3c1
100
AcDbEntity
  8
0
 62
7
100
AcDbSpline
 70
8
 71
3
 72
8
 73
4
 74
0
 40
0
 40
0
 40
0
 40
0
 40
1
 40
1
 40
1
 40
1
 10
-34.462671
 20
55.194131
 30
0.0
 10
-34.452144
 20
55.234210
 30
0.0
 10
-34.446881
 20
55.273884
 30
0.0
 10
-34.446881
 20
55.313152
 30
0.0
  0
SPLINE
  5
3c2
100
AcDbEntity
  8
0
 62
7
100
AcDbSpline
 70
8
 71
3
 72
8
 73
4
 74
0
 40
0
 40
0
 40
0
 40
0
 40
1
 40
1
 40
1
 40
1
 10
-34.446881
 20
55.313152
 30
0.0
 10
-34.446881
 20
55.365781
 30
0.0
 10
-34.455788
 20
55.406265
 30
0.0
 10
-34.473602
 20
55.434604
 30
0.0
  0
SPLINE
  5
3c3
100
AcDbEntity
  8
0
 62
7
100
AcDbSpline
 70
8
 71
3
 72
8
 73
4
 74
0
 40
0
 40
0
 40
0
 40
0
 40
1
 40
1
 40
1
 40
1
 10
-34.473602
 20
55.434604
 30
0.0
 10
-34.491820
 20
55.462943
 30
0.0
 10
-34.517325
 20
55.477112
 30
0.0
 10
-34.550116
 20
55.477112
 30
0.0
  0
SPLINE
  5
3c4
100
AcDbEntity
  8
0
 62
7
100
AcDbSpline
 70
8
 71
3
 72
8
 73
4
 74
0
 40
0
 40
0
 40
0
 40
0
 40
1
 40
1
 40
1
 40
1
 10
-34.550116
 20
55.477112
 30
0.0
 10
-34.580479
 20
55.477112
 30
0.0
 10
-34.603757
 20
55.466789
 30
0.0
 10
-34.619951
 20
55.446144
 30
0.0
  0
SPLINE
  5
3c5
100
AcDbEntity
  8
0
 62
7
100
AcDbSpline
 70
8
 71
3
 72
8
 73
4
 74
0
 40
0
 40
0
 40
0
 40
0
 40
1
 40
1
 40
1
 40
1
 10
-34.619951
 20
55.446144
 30
0.0
 10
-34.636145
 20
55.425901
 30
0.0
 10
-34.651731
 20
55.381166
 30
0.0
 10
-34.666709
 20
55.311939
 30
0.0
  0
LINE
  5
3c6
100
AcDbEntity
  8
0
 62
7
100
AcDbLine
 10
-34.666709
 20
55.311939
 30
0.0
 11
-34.675819
 21
55.273074
 31
0.0
  0
SPLINE
  5
3c7
100
AcDbEntity
  8
0
 62
7
100
AcDbSpline
 70
8
 71
3
 72
8
 73
4
 74
0
 40
0
 40
0
 40
0
 40
0
 40
1
 40
1
 40
1
 40
1
 10
-34.675819
 20
55.273074
 30
0.0
 10
-34.690393
 20
55.203847
 30
0.0
 10
-34.712659
 20
55.153849
 30
0.0
 10
-34.742618
 20
55.123081
 30
0.0
  0
SPLINE
  5
3c8
100
AcDbEntity
  8
0
 62
7
100
AcDbSpline
 70
8
 71
3
 72
8
 73
4
 74
0
 40
0
 40
0
 40
0
 40
0
 40
1
 40
1
 40
1
 40
1
 10
-34.742618
 20
55.123081
 30
0.0
 10
-34.772981
 20
55.092313
 30
0.0
 10
-34.814476
 20
55.076930
 30
0.0
 10
-34.867105
 20
55.076930
 30
0.0
  0
SPLINE
  5
3c9
100
AcDbEntity
  8
0
 62
7
100
AcDbSpline
 70
8
 71
3
 72
8
 73
4
 74
0
 40
0
 40
0
 40
0
 40
0
 40
1
 40
1
 40
1
 40
1
 10
-34.867105
 20
55.076930
 30
0.0
 10
-34.931069
 20
55.076930
 30
0.0
 10
-34.980460
 20
55.099600
 30
0.0
 10
-35.015276
 20
55.144942
 30
0.0
  0
SPLINE
  5
3ca
100
AcDbEntity
  8
0
 62
7
100
AcDbSpline
 70
8
 71
3
 72
8
 73
4
 74
0
 40
0
 40
0
 40
0
 40
0
 40
1
 40
1
 40
1
 40
1
 10
-35.015276
 20
55.144942
 30
0.0
 10
-35.050092
 20
55.190284
 30
0.0
 10
-35.067500
 20
55.254653
 30
0.0
 10
-35.067500
 20
55.338050
 30
0.0
  0
SPLINE
  5
3cb
100
AcDbEntity
  8
0
 62
7
100
AcDbSpline
 70
8
 71
3
 72
8
 73
4
 74
0
 40
0
 40
0
 40
0
 40
0
 40
1
 40
1
 40
1
 40
1
 10
-35.067500
 20
55.338050
 30
0.0
 10
-35.067500
 20
55.379345
 30
0.0
 10
-35.064463
 20
55.418210
 30
0.0
 10
-35.058390
 20
55.454644
 30
0.0
  0
SPLINE
  5
3cc
100
AcDbEntity
  8
0
 62
7
100
AcDbSpline
 70
8
 71
3
 72
8
 73
4
 74
0
 40
0
 40
0
 40
0
 40
0
 40
1
 40
1
 40
1
 40
1
 10
-35.058390
 20
55.454644
 30
0.0
 10
-35.052316
 20
55.491079
 30
0.0
 10
-35.043207
 20
55.524681
 30
0.0
 10
-35.031062
 20
55.555449
 30
0.0
  0
LINE
  5
3cd
100
AcDbEntity
  8
0
 62
7
100
AcDbLine
 10
-35.031062
 20
55.555449
 30
0.0
 11
-35.031064
 21
55.555449
 31
0.0
  0
LINE
  5
3ce
100
AcDbEntity
  8
0
 62
7
100
AcDbLine
 10
-34.781481
 20
56.335773
 30
0.0
 11
-34.370976
 21
56.335773
 31
0.0
  0
LINE
  5
3cf
100
AcDbEntity
  8
0
 62
7
100
AcDbLine
 10
-34.370976
 20
56.335773
 30
0.0
 11
-34.370976
 21
56.224039
 31
0.0
  0
LINE
  5
3d0
100
AcDbEntity
  8
0
 62
7
100
AcDbLine
 10
-34.370976
 20
56.224039
 30
0.0
 11
-34.777838
 21
56.224039
 31
0.0
  0
SPLINE
  5
3d1
100
AcDbEntity
  8
0
 62
7
100
AcDbSpline
 70
8
 71
3
 72
8
 73
4
 74
0
 40
0
 40
0
 40
0
 40
0
 40
1
 40
1
 40
1
 40
1
 10
-34.777838
 20
56.224039
 30
0.0
 10
-34.842207
 20
56.224039
 30
0.0
 10
-34.890383
 20
56.211488
 30
0.0
 10
-34.922365
 20
56.186387
 30
0.0
  0
SPLINE
  5
3d2
100
AcDbEntity
  8
0
 62
7
100
AcDbSpline
 70
8
 71
3
 72
8
 73
4
 74
0
 40
0
 40
0
 40
0
 40
0
 40
1
 40
1
 40
1
 40
1
 10
-34.922365
 20
56.186387
 30
0.0
 10
-34.954347
 20
56.161288
 30
0.0
 10
-34.970338
 20
56.123639
 30
0.0
 10
-34.970338
 20
56.073439
 30
0.0
  0
SPLINE
  5
3d3
100
AcDbEntity
  8
0
 62
7
100
AcDbSpline
 70
8
 71
3
 72
8
 73
4
 74
0
 40
0
 40
0
 40
0
 40
0
 40
1
 40
1
 40
1
 40
1
 10
-34.970338
 20
56.073439
 30
0.0
 10
-34.970338
 20
56.013117
 30
0.0
 10
-34.951108
 20
55.965548
 30
0.0
 10
-34.912648
 20
55.930734
 30
0.0
  0
SPLINE
  5
3d4
100
AcDbEntity
  8
0
 62
7
100
AcDbSpline
 70
8
 71
3
 72
8
 73
4
 74
0
 40
0
 40
0
 40
0
 40
0
 40
1
 40
1
 40
1
 40
1
 10
-34.912648
 20
55.930734
 30
0.0
 10
-34.874189
 20
55.895917
 30
0.0
 10
-34.821762
 20
55.878508
 30
0.0
 10
-34.755369
 20
55.878508
 30
0.0
  0
LINE
  5
3d5
100
AcDbEntity
  8
0
 62
7
100
AcDbLine
 10
-34.755369
 20
55.878508
 30
0.0
 11
-34.370976
 21
55.878508
 31
0.0
  0
LINE
  5
3d6
100
AcDbEntity
  8
0
 62
7
100
AcDbLine
 10
-34.370976
 20
55.878508
 30
0.0
 11
-34.370976
 21
55.766167
 31
0.0
  0
LINE
  5
3d7
100
AcDbEntity
  8
0
 62
7
100
AcDbLine
 10
-34.370976
 20
55.766167
 30
0.0
 11
-35.315867
 21
55.766167
 31
0.0
  0
LINE
  5
3d8
100
AcDbEntity
  8
0
 62
7
100
AcDbLine
 10
-35.315867
 20
55.766167
 30
0.0
 11
-35.315867
 21
55.878508
 31
0.0
  0
LINE
  5
3d9
100
AcDbEntity
  8
0
 62
7
100
AcDbLine
 10
-35.315867
 20
55.878508
 30
0.0
 11
-34.945440
 21
55.878508
 31
0.0
  0
SPLINE
  5
3da
100
AcDbEntity
  8
0
 62
7
100
AcDbSpline
 70
8
 71
3
 72
8
 73
4
 74
0
 40
0
 40
0
 40
0
 40
0
 40
1
 40
1
 40
1
 40
1
 10
-34.945440
 20
55.878508
 30
0.0
 10
-34.986329
 20
55.905229
 30
0.0
 10
-35.016894
 20
55.936605
 30
0.0
 10
-35.037136
 20
55.972635
 30
0.0
  0
SPLINE
  5
3db
100
AcDbEntity
  8
0
 62
7
100
AcDbSpline
 70
8
 71
3
 72
8
 73
4
 74
0
 40
0
 40
0
 40
0
 40
0
 40
1
 40
1
 40
1
 40
1
 10
-35.037136
 20
55.972635
 30
0.0
 10
-35.057378
 20
56.009070
 30
0.0
 10
-35.067499
 20
56.050971
 30
0.0
 10
-35.067499
 20
56.098337
 30
0.0
  0
SPLINE
  5
3dc
100
AcDbEntity
  8
0
 62
7
100
AcDbSpline
 70
8
 71
3
 72
8
 73
4
 74
0
 40
0
 40
0
 40
0
 40
0
 40
1
 40
1
 40
1
 40
1
 10
-35.067499
 20
56.098337
 30
0.0
 10
-35.067499
 20
56.176469
 30
0.0
 10
-35.043209
 20
56.235575
 30
0.0
 10
-34.994628
 20
56.275654
 30
0.0
  0
SPLINE
  5
3dd
100
AcDbEntity
  8
0
 62
7
100
AcDbSpline
 70
8
 71
3
 72
8
 73
4
 74
0
 40
0
 40
0
 40
0
 40
0
 40
1
 40
1
 40
1
 40
1
 10
-34.994628
 20
56.275654
 30
0.0
 10
-34.946453
 20
56.315733
 30
0.0
 10
-34.875404
 20
56.335773
 30
0.0
 10
-34.781481
 20
56.335773
 30
0.0
  0
LINE
  5
3de
100
AcDbEntity
  8
0
 62
7
100
AcDbLine
 10
-34.781481
 20
56.335773
 30
0.0
 11
-34.781481
 21
56.335773
 31
0.0
  0
LINE
  5
3df
100
AcDbEntity
  8
0
 62
7
100
AcDbLine
 10
-35.051103
 20
56.559852
 30
0.0
 11
-35.051103
 21
56.671587
 31
0.0
  0
LINE
  5
3e0
100
AcDbEntity
  8
0
 62
7
100
AcDbLine
 10
-35.051103
 20
56.671587
 30
0.0
 11
-34.370976
 21
56.671587
 31
0.0
  0
LINE
  5
3e1
100
AcDbEntity
  8
0
 62
7
100
AcDbLine
 10
-34.370976
 20
56.671587
 30
0.0
 11
-34.370976
 21
56.559852
 31
0.0
  0
LINE
  5
3e2
100
AcDbEntity
  8
0
 62
7
100
AcDbLine
 10
-34.370976
 20
56.559852
 30
0.0
 11
-35.051103
 21
56.559852
 31
0.0
  0
LINE
  5
3e3
100
AcDbEntity
  8
0
 62
7
100
AcDbLine
 10
-35.051103
 20
56.559852
 30
0.0
 11
-35.051103
 21
56.559852
 31
0.0
  0
LINE
  5
3e4
100
AcDbEntity
  8
0
 62
7
100
AcDbLine
 10
-35.315867
 20
56.559852
 30
0.0
 11
-35.315867
 21
56.671587
 31
0.0
  0
LINE
  5
3e5
100
AcDbEntity
  8
0
 62
7
100
AcDbLine
 10
-35.315867
 20
56.671587
 30
0.0
 11
-35.174376
 21
56.671587
 31
0.0
  0
LINE
  5
3e6
100
AcDbEntity
  8
0
 62
7
100
AcDbLine
 10
-35.174376
 20
56.671587
 30
0.0
 11
-35.174376
 21
56.559852
 31
0.0
  0
LINE
  5
3e7
100
AcDbEntity
  8
0
 62
7
100
AcDbLine
 10
-35.174376
 20
56.559852
 30
0.0
 11
-35.315867
 21
56.559852
 31
0.0
  0
LINE
  5
3e8
100
AcDbEntity
  8
0
 62
7
100
AcDbLine
 10
-35.315867
 20
56.559852
 30
0.0
 11
-35.315867
 21
56.559852
 31
0.0
  0
LINE
  5
3e9
100
AcDbEntity
  8
0
 62
7
100
AcDbLine
 10
-34.472995
 20
57.012864
 30
0.0
 11
-34.112284
 21
57.012864
 31
0.0
  0
LINE
  5
3ea
100
AcDbEntity
  8
0
 62
7
100
AcDbLine
 10
-34.112284
 20
57.012864
 30
0.0
 11
-34.112284
 21
56.900522
 31
0.0
  0
LINE
  5
3eb
100
AcDbEntity
  8
0
 62
7
100
AcDbLine
 10
-34.112284
 20
56.900522
 30
0.0
 11
-35.051103
 21
56.900522
 31
0.0
  0
LINE
  5
3ec
100
AcDbEntity
  8
0
 62
7
100
AcDbLine
 10
-35.051103
 20
56.900522
 30
0.0
 11
-35.051103
 21
57.012864
 31
0.0
  0
LINE
  5
3ed
100
AcDbEntity
  8
0
 62
7
100
AcDbLine
 10
-35.051103
 20
57.012864
 30
0.0
 11
-34.947869
 21
57.012864
 31
0.0
  0
SPLINE
  5
3ee
100
AcDbEntity
  8
0
 62
7
100
AcDbSpline
 70
8
 71
3
 72
8
 73
4
 74
0
 40
0
 40
0
 40
0
 40
0
 40
1
 40
1
 40
1
 40
1
 10
-34.947869
 20
57.012864
 30
0.0
 10
-34.988353
 20
57.036345
 30
0.0
 10
-35.018311
 20
57.065898
 30
0.0
 10
-35.037743
 20
57.101524
 30
0.0
  0
SPLINE
  5
3ef
100
AcDbEntity
  8
0
 62
7
100
AcDbSpline
 70
8
 71
3
 72
8
 73
4
 74
0
 40
0
 40
0
 40
0
 40
0
 40
1
 40
1
 40
1
 40
1
 10
-35.037743
 20
57.101524
 30
0.0
 10
-35.057580
 20
57.137554
 30
0.0
 10
-35.067499
 20
57.180467
 30
0.0
 10
-35.067499
 20
57.230262
 30
0.0
  0
SPLINE
  5
3f0
100
AcDbEntity
  8
0
 62
7
100
AcDbSpline
 70
8
 71
3
 72
8
 73
4
 74
0
 40
0
 40
0
 40
0
 40
0
 40
1
 40
1
 40
1
 40
1
 10
-35.067499
 20
57.230262
 30
0.0
 10
-35.067499
 20
57.312848
 30
0.0
 10
-35.034707
 20
57.379849
 30
0.0
 10
-34.969123
 20
57.431264
 30
0.0
  0
SPLINE
  5
3f1
100
AcDbEntity
  8
0
 62
7
100
AcDbSpline
 70
8
 71
3
 72
8
 73
4
 74
0
 40
0
 40
0
 40
0
 40
0
 40
1
 40
1
 40
1
 40
1
 10
-34.969123
 20
57.431264
 30
0.0
 10
-34.903540
 20
57.483084
 30
0.0
 10
-34.817309
 20
57.508993
 30
0.0
 10
-34.710432
 20
57.508993
 30
0.0
  0
SPLINE
  5
3f2
100
AcDbEntity
  8
0
 62
7
100
AcDbSpline
 70
8
 71
3
 72
8
 73
4
 74
0
 40
0
 40
0
 40
0
 40
0
 40
1
 40
1
 40
1
 40
1
 10
-34.710432
 20
57.508993
 30
0.0
 10
-34.603555
 20
57.508993
 30
0.0
 10
-34.517325
 20
57.483084
 30
0.0
 10
-34.451741
 20
57.431264
 30
0.0
  0
SPLINE
  5
3f3
100
AcDbEntity
  8
0
 62
7
100
AcDbSpline
 70
8
 71
3
 72
8
 73
4
 74
0
 40
0
 40
0
 40
0
 40
0
 40
1
 40
1
 40
1
 40
1
 10
-34.451741
 20
57.431264
 30
0.0
 10
-34.386157
 20
57.379849
 30
0.0
 10
-34.353365
 20
57.312848
 30
0.0
 10
-34.353365
 20
57.230262
 30
0.0
  0
SPLINE
  5
3f4
100
AcDbEntity
  8
0
 62
7
100
AcDbSpline
 70
8
 71
3
 72
8
 73
4
 74
0
 40
0
 40
0
 40
0
 40
0
 40
1
 40
1
 40
1
 40
1
 10
-34.353365
 20
57.230262
 30
0.0
 10
-34.353365
 20
57.180467
 30
0.0
 10
-34.363081
 20
57.137554
 30
0.0
 10
-34.382514
 20
57.101524
 30
0.0
  0
SPLINE
  5
3f5
100
AcDbEntity
  8
0
 62
7
100
AcDbSpline
 70
8
 71
3
 72
8
 73
4
 74
0
 40
0
 40
0
 40
0
 40
0
 40
1
 40
1
 40
1
 40
1
 10
-34.382514
 20
57.101524
 30
0.0
 10
-34.402351
 20
57.065898
 30
0.0
 10
-34.432511
 20
57.036345
 30
0.0
 10
-34.472995
 20
57.012864
 30
0.0
  0
LINE
  5
3f6
100
AcDbEntity
  8
0
 62
7
100
AcDbLine
 10
-34.472995
 20
57.012864
 30
0.0
 11
-34.472995
 21
57.012864
 31
0.0
  0
SPLINE
  5
3f7
100
AcDbEntity
  8
0
 62
7
100
AcDbSpline
 70
8
 71
3
 72
8
 73
4
 74
0
 40
0
 40
0
 40
0
 40
0
 40
1
 40
1
 40
1
 40
1
 10
-34.710432
 20
57.393006
 30
0.0
 10
-34.792614
 20
57.393006
 30
0.0
 10
-34.856983
 20
57.376003
 30
0.0
 10
-34.903540
 20
57.341997
 30
0.0
  0
SPLINE
  5
3f8
100
AcDbEntity
  8
0
 62
7
100
AcDbSpline
 70
8
 71
3
 72
8
 73
4
 74
0
 40
0
 40
0
 40
0
 40
0
 40
1
 40
1
 40
1
 40
1
 10
-34.903540
 20
57.341997
 30
0.0
 10
-34.950501
 20
57.308396
 30
0.0
 10
-34.973982
 20
57.262041
 30
0.0
 10
-34.973982
 20
57.202935
 30
0.0
  0
SPLINE
  5
3f9
100
AcDbEntity
  8
0
 62
7
100
AcDbSpline
 70
8
 71
3
 72
8
 73
4
 74
0
 40
0
 40
0
 40
0
 40
0
 40
1
 40
1
 40
1
 40
1
 10
-34.973982
 20
57.202935
 30
0.0
 10
-34.973982
 20
57.143828
 30
0.0
 10
-34.950501
 20
57.097272
 30
0.0
 10
-34.903540
 20
57.063266
 30
0.0
  0
SPLINE
  5
3fa
100
AcDbEntity
  8
0
 62
7
100
AcDbSpline
 70
8
 71
3
 72
8
 73
4
 74
0
 40
0
 40
0
 40
0
 40
0
 40
1
 40
1
 40
1
 40
1
 10
-34.903540
 20
57.063266
 30
0.0
 10
-34.856983
 20
57.029664
 30
0.0
 10
-34.792614
 20
57.012864
 30
0.0
 10
-34.710432
 20
57.012864
 30
0.0
  0
SPLINE
  5
3fb
100
AcDbEntity
  8
0
 62
7
100
AcDbSpline
 70
8
 71
3
 72
8
 73
4
 74
0
 40
0
 40
0
 40
0
 40
0
 40
1
 40
1
 40
1
 40
1
 10
-34.710432
 20
57.012864
 30
0.0
 10
-34.628250
 20
57.012864
 30
0.0
 10
-34.563678
 20
57.029664
 30
0.0
 10
-34.516717
 20
57.063266
 30
0.0
  0
SPLINE
  5
3fc
100
AcDbEntity
  8
0
 62
7
100
AcDbSpline
 70
8
 71
3
 72
8
 73
4
 74
0
 40
0
 40
0
 40
0
 40
0
 40
1
 40
1
 40
1
 40
1
 10
-34.516717
 20
57.063266
 30
0.0
 10
-34.470161
 20
57.097272
 30
0.0
 10
-34.446883
 20
57.143828
 30
0.0
 10
-34.446883
 20
57.202935
 30
0.0
  0
SPLINE
  5
3fd
100
AcDbEntity
  8
0
 62
7
100
AcDbSpline
 70
8
 71
3
 72
8
 73
4
 74
0
 40
0
 40
0
 40
0
 40
0
 40
1
 40
1
 40
1
 40
1
 10
-34.446883
 20
57.202935
 30
0.0
 10
-34.446883
 20
57.262041
 30
0.0
 10
-34.470161
 20
57.308396
 30
0.0
 10
-34.516717
 20
57.341997
 30
0.0
  0
SPLINE
  5
3fe
100
AcDbEntity
  8
0
 62
7
100
AcDbSpline
 70
8
 71
3
 72
8
 73
4
 74
0
 40
0
 40
0
 40
0
 40
0
 40
1
 40
1
 40
1
 40
1
 10
-34.516717
 20
57.341997
 30
0.0
 10
-34.563678
 20
57.376003
 30
0.0
 10
-34.628250
 20
57.393006
 30
0.0
 10
-34.710432
 20
57.393006
 30
0.0
  0
LINE
  5
3ff
100
AcDbEntity
  8
0
 62
7
100
AcDbLine
 10
-34.710432
 20
57.393006
 30
0.0
 11
-34.710432
 21
57.393006
 31
0.0
  0
LINE
  5
400
100
AcDbEntity
  8
0
 62
7
100
AcDbLine
 10
-35.051103
 20
58.009980
 30
0.0
 11
-35.051103
 21
58.128395
 31
0.0
  0
LINE
  5
401
100
AcDbEntity
  8
0
 62
7
100
AcDbLine
 10
-35.051103
 20
58.128395
 30
0.0
 11
-34.480282
 21
58.340934
 31
0.0
  0
LINE
  5
402
100
AcDbEntity
  8
0
 62
7
100
AcDbLine
 10
-34.480282
 20
58.340934
 30
0.0
 11
-35.051103
 21
58.553475
 31
0.0
  0
LINE
  5
403
100
AcDbEntity
  8
0
 62
7
100
AcDbLine
 10
-35.051103
 20
58.553475
 30
0.0
 11
-35.051103
 21
58.671890
 31
0.0
  0
LINE
  5
404
100
AcDbEntity
  8
0
 62
7
100
AcDbLine
 10
-35.051103
 20
58.671890
 30
0.0
 11
-34.370976
 21
58.416840
 31
0.0
  0
LINE
  5
405
100
AcDbEntity
  8
0
 62
7
100
AcDbLine
 10
-34.370976
 20
58.416840
 30
0.0
 11
-34.370976
 21
58.265027
 31
0.0
  0
LINE
  5
406
100
AcDbEntity
  8
0
 62
7
100
AcDbLine
 10
-34.370976
 20
58.265027
 30
0.0
 11
-35.051103
 21
58.009980
 31
0.0
  0
LINE
  5
407
100
AcDbEntity
  8
0
 62
7
100
AcDbLine
 10
-35.051103
 20
58.009980
 30
0.0
 11
-35.051103
 21
58.009980
 31
0.0
  0
LINE
  5
408
100
AcDbEntity
  8
0
 62
7
100
AcDbLine
 10
-34.738973
 20
59.407883
 30
0.0
 11
-34.684320
 21
59.407883
 31
0.0
  0
LINE
  5
409
100
AcDbEntity
  8
0
 62
7
100
AcDbLine
 10
-34.684320
 20
59.407883
 30
0.0
 11
-34.684320
 21
58.894146
 31
0.0
  0
SPLINE
  5
40a
100
AcDbEntity
  8
0
 62
7
100
AcDbSpline
 70
8
 71
3
 72
8
 73
4
 74
0
 40
0
 40
0
 40
0
 40
0
 40
1
 40
1
 40
1
 40
1
 10
-34.684320
 20
58.894146
 30
0.0
 10
-34.607401
 20
58.899000
 30
0.0
 10
-34.548699
 20
58.922075
 30
0.0
 10
-34.508216
 20
58.963372
 30
0.0
  0
SPLINE
  5
40b
100
AcDbEntity
  8
0
 62
7
100
AcDbSpline
 70
8
 71
3
 72
8
 73
4
 74
0
 40
0
 40
0
 40
0
 40
0
 40
1
 40
1
 40
1
 40
1
 10
-34.508216
 20
58.963372
 30
0.0
 10
-34.468137
 20
59.005071
 30
0.0
 10
-34.448097
 20
59.062963
 30
0.0
 10
-34.448097
 20
59.137049
 30
0.0
  0
SPLINE
  5
40c
100
AcDbEntity
  8
0
 62
7
100
AcDbSpline
 70
8
 71
3
 72
8
 73
4
 74
0
 40
0
 40
0
 40
0
 40
0
 40
1
 40
1
 40
1
 40
1
 10
-34.448097
 20
59.137049
 30
0.0
 10
-34.448097
 20
59.179961
 30
0.0
 10
-34.453360
 20
59.221457
 30
0.0
 10
-34.463885
 20
59.261534
 30
0.0
  0
SPLINE
  5
40d
100
AcDbEntity
  8
0
 62
7
100
AcDbSpline
 70
8
 71
3
 72
8
 73
4
 74
0
 40
0
 40
0
 40
0
 40
0
 40
1
 40
1
 40
1
 40
1
 10
-34.463885
 20
59.261534
 30
0.0
 10
-34.474410
 20
59.302018
 30
0.0
 10
-34.490199
 20
59.342097
 30
0.0
 10
-34.511251
 20
59.381772
 30
0.0
  0
LINE
  5
40e
100
AcDbEntity
  8
0
 62
7
100
AcDbLine
 10
-34.511251
 20
59.381772
 30
0.0
 11
-34.405588
 21
59.381772
 31
0.0
  0
SPLINE
  5
40f
100
AcDbEntity
  8
0
 62
7
100
AcDbSpline
 70
8
 71
3
 72
8
 73
4
 74
0
 40
0
 40
0
 40
0
 40
0
 40
1
 40
1
 40
1
 40
1
 10
-34.405588
 20
59.381772
 30
0.0
 10
-34.388585
 20
59.341693
 30
0.0
 10
-34.375630
 20
59.300602
 30
0.0
 10
-34.366724
 20
59.258500
 30
0.0
  0
SPLINE
  5
410
100
AcDbEntity
  8
0
 62
7
100
AcDbSpline
 70
8
 71
3
 72
8
 73
4
 74
0
 40
0
 40
0
 40
0
 40
0
 40
1
 40
1
 40
1
 40
1
 10
-34.366724
 20
59.258500
 30
0.0
 10
-34.357817
 20
59.216396
 30
0.0
 10
-34.353364
 20
59.173686
 30
0.0
 10
-34.353364
 20
59.130368
 30
0.0
  0
SPLINE
  5
411
100
AcDbEntity
  8
0
 62
7
100
AcDbSpline
 70
8
 71
3
 72
8
 73
4
 74
0
 40
0
 40
0
 40
0
 40
0
 40
1
 40
1
 40
1
 40
1
 10
-34.353364
 20
59.130368
 30
0.0
 10
-34.353364
 20
59.021871
 30
0.0
 10
-34.384941
 20
58.935843
 30
0.0
 10
-34.448096
 20
58.872285
 30
0.0
  0
SPLINE
  5
412
100
AcDbEntity
  8
0
 62
7
100
AcDbSpline
 70
8
 71
3
 72
8
 73
4
 74
0
 40
0
 40
0
 40
0
 40
0
 40
1
 40
1
 40
1
 40
1
 10
-34.448096
 20
58.872285
 30
0.0
 10
-34.511250
 20
58.809129
 30
0.0
 10
-34.596671
 20
58.777551
 30
0.0
 10
-34.704358
 20
58.777551
 30
0.0
  0
SPLINE
  5
413
100
AcDbEntity
  8
0
 62
7
100
AcDbSpline
 70
8
 71
3
 72
8
 73
4
 74
0
 40
0
 40
0
 40
0
 40
0
 40
1
 40
1
 40
1
 40
1
 10
-34.704358
 20
58.777551
 30
0.0
 10
-34.815688
 20
58.777551
 30
0.0
 10
-34.903943
 20
58.807509
 30
0.0
 10
-34.969122
 20
58.867425
 30
0.0
  0
SPLINE
  5
414
100
AcDbEntity
  8
0
 62
7
100
AcDbSpline
 70
8
 71
3
 72
8
 73
4
 74
0
 40
0
 40
0
 40
0
 40
0
 40
1
 40
1
 40
1
 40
1
 10
-34.969122
 20
58.867425
 30
0.0
 10
-35.034705
 20
58.927747
 30
0.0
 10
-35.067497
 20
59.008917
 30
0.0
 10
-35.067497
 20
59.110935
 30
0.0
  0
SPLINE
  5
415
100
AcDbEntity
  8
0
 62
7
100
AcDbSpline
 70
8
 71
3
 72
8
 73
4
 74
0
 40
0
 40
0
 40
0
 40
0
 40
1
 40
1
 40
1
 40
1
 10
-35.067497
 20
59.110935
 30
0.0
 10
-35.067497
 20
59.202429
 30
0.0
 10
-35.037944
 20
59.274693
 30
0.0
 10
-34.978838
 20
59.327726
 30
0.0
  0
SPLINE
  5
416
100
AcDbEntity
  8
0
 62
7
100
AcDbSpline
 70
8
 71
3
 72
8
 73
4
 74
0
 40
0
 40
0
 40
0
 40
0
 40
1
 40
1
 40
1
 40
1
 10
-34.978838
 20
59.327726
 30
0.0
 10
-34.920136
 20
59.381164
 30
0.0
 10
-34.840181
 20
59.407883
 30
0.0
 10
-34.738971
 20
59.407883
 30
0.0
  0
LINE
  5
417
100
AcDbEntity
  8
0
 62
7
100
AcDbLine
 10
-34.738971
 20
59.407883
 30
0.0
 11
-34.738973
 21
59.407883
 31
0.0
  0
SPLINE
  5
418
100
AcDbEntity
  8
0
 62
7
100
AcDbSpline
 70
8
 71
3
 72
8
 73
4
 74
0
 40
0
 40
0
 40
0
 40
0
 40
1
 40
1
 40
1
 40
1
 10
-34.771765
 20
59.296149
 30
0.0
 10
-34.832896
 20
59.295396
 30
0.0
 10
-34.881679
 20
59.278191
 30
0.0
 10
-34.918114
 20
59.244533
 30
0.0
  0
SPLINE
  5
419
100
AcDbEntity
  8
0
 62
7
100
AcDbSpline
 70
8
 71
3
 72
8
 73
4
 74
0
 40
0
 40
0
 40
0
 40
0
 40
1
 40
1
 40
1
 40
1
 10
-34.918114
 20
59.244533
 30
0.0
 10
-34.954549
 20
59.211336
 30
0.0
 10
-34.972767
 20
59.167209
 30
0.0
 10
-34.972767
 20
59.112151
 30
0.0
  0
SPLINE
  5
41a
100
AcDbEntity
  8
0
 62
7
100
AcDbSpline
 70
8
 71
3
 72
8
 73
4
 74
0
 40
0
 40
0
 40
0
 40
0
 40
1
 40
1
 40
1
 40
1
 10
-34.972767
 20
59.112151
 30
0.0
 10
-34.972767
 20
59.049806
 30
0.0
 10
-34.955156
 20
58.999809
 30
0.0
 10
-34.919936
 20
58.962158
 30
0.0
  0
SPLINE
  5
41b
100
AcDbEntity
  8
0
 62
7
100
AcDbSpline
 70
8
 71
3
 72
8
 73
4
 74
0
 40
0
 40
0
 40
0
 40
0
 40
1
 40
1
 40
1
 40
1
 10
-34.919936
 20
58.962158
 30
0.0
 10
-34.884715
 20
58.924913
 30
0.0
 10
-34.835122
 20
58.903456
 30
0.0
 10
-34.771158
 20
58.897789
 30
0.0
  0
LINE
  5
41c
100
AcDbEntity
  8
0
 62
7
100
AcDbLine
 10
-34.771158
 20
58.897789
 30
0.0
 11
-34.771779
 21
59.296149
 31
0.0
  0
LINE
  5
41d
100
AcDbEntity
  8
0
 62
7
100
AcDbLine
 10
-34.771779
 20
59.296149
 30
0.0
 11
-34.771765
 21
59.296149
 31
0.0
  0
SPLINE
  5
41e
100
AcDbEntity
  8
0
 62
7
100
AcDbSpline
 70
8
 71
3
 72
8
 73
4
 74
0
 40
0
 40
0
 40
0
 40
0
 40
1
 40
1
 40
1
 40
1
 10
-34.946655
 20
59.985383
 30
0.0
 10
-34.953942
 20
59.972834
 30
0.0
 10
-34.959204
 20
59.959070
 30
0.0
 10
-34.962442
 20
59.944091
 30
0.0
  0
SPLINE
  5
41f
100
AcDbEntity
  8
0
 62
7
100
AcDbSpline
 70
8
 71
3
 72
8
 73
4
 74
0
 40
0
 40
0
 40
0
 40
0
 40
1
 40
1
 40
1
 40
1
 10
-34.962442
 20
59.944091
 30
0.0
 10
-34.966087
 20
59.929510
 30
0.0
 10
-34.967909
 20
59.913316
 30
0.0
 10
-34.967909
 20
59.895509
 30
0.0
  0
SPLINE
  5
420
100
AcDbEntity
  8
0
 62
7
100
AcDbSpline
 70
8
 71
3
 72
8
 73
4
 74
0
 40
0
 40
0
 40
0
 40
0
 40
1
 40
1
 40
1
 40
1
 10
-34.967909
 20
59.895509
 30
0.0
 10
-34.967909
 20
59.832356
 30
0.0
 10
-34.947262
 20
59.783776
 30
0.0
 10
-34.905969
 20
59.749770
 30
0.0
  0
SPLINE
  5
421
100
AcDbEntity
  8
0
 62
7
100
AcDbSpline
 70
8
 71
3
 72
8
 73
4
 74
0
 40
0
 40
0
 40
0
 40
0
 40
1
 40
1
 40
1
 40
1
 10
-34.905969
 20
59.749770
 30
0.0
 10
-34.865080
 20
59.716169
 30
0.0
 10
-34.806176
 20
59.699368
 30
0.0
 10
-34.729257
 20
59.699368
 30
0.0
  0
LINE
  5
422
100
AcDbEntity
  8
0
 62
7
100
AcDbLine
 10
-34.729257
 20
59.699368
 30
0.0
 11
-34.370976
 21
59.699368
 31
0.0
  0
LINE
  5
423
100
AcDbEntity
  8
0
 62
7
100
AcDbLine
 10
-34.370976
 20
59.699368
 30
0.0
 11
-34.370976
 21
59.587024
 31
0.0
  0
LINE
  5
424
100
AcDbEntity
  8
0
 62
7
100
AcDbLine
 10
-34.370976
 20
59.587024
 30
0.0
 11
-35.051103
 21
59.587024
 31
0.0
  0
LINE
  5
425
100
AcDbEntity
  8
0
 62
7
100
AcDbLine
 10
-35.051103
 20
59.587024
 30
0.0
 11
-35.051103
 21
59.699368
 31
0.0
  0
LINE
  5
426
100
AcDbEntity
  8
0
 62
7
100
AcDbLine
 10
-35.051103
 20
59.699368
 30
0.0
 11
-34.945440
 21
59.699368
 31
0.0
  0
SPLINE
  5
427
100
AcDbEntity
  8
0
 62
7
100
AcDbSpline
 70
8
 71
3
 72
8
 73
4
 74
0
 40
0
 40
0
 40
0
 40
0
 40
1
 40
1
 40
1
 40
1
 10
-34.945440
 20
59.699368
 30
0.0
 10
-34.986734
 20
59.722847
 30
0.0
 10
-35.017299
 20
59.753412
 30
0.0
 10
-35.037136
 20
59.791062
 30
0.0
  0
SPLINE
  5
428
100
AcDbEntity
  8
0
 62
7
100
AcDbSpline
 70
8
 71
3
 72
8
 73
4
 74
0
 40
0
 40
0
 40
0
 40
0
 40
1
 40
1
 40
1
 40
1
 10
-35.037136
 20
59.791062
 30
0.0
 10
-35.057378
 20
59.828712
 30
0.0
 10
-35.067499
 20
59.874459
 30
0.0
 10
-35.067499
 20
59.928301
 30
0.0
  0
SPLINE
  5
429
100
AcDbEntity
  8
0
 62
7
100
AcDbSpline
 70
8
 71
3
 72
8
 73
4
 74
0
 40
0
 40
0
 40
0
 40
0
 40
1
 40
1
 40
1
 40
1
 10
-35.067499
 20
59.928301
 30
0.0
 10
-35.067499
 20
59.935996
 30
0.0
 10
-35.066888
 20
59.944500
 30
0.0
 10
-35.065665
 20
59.953814
 30
0.0
  0
SPLINE
  5
42a
100
AcDbEntity
  8
0
 62
7
100
AcDbSpline
 70
8
 71
3
 72
8
 73
4
 74
0
 40
0
 40
0
 40
0
 40
0
 40
1
 40
1
 40
1
 40
1
 10
-35.065665
 20
59.953814
 30
0.0
 10
-35.064856
 20
59.963127
 30
0.0
 10
-35.063439
 20
59.973450
 30
0.0
 10
-35.061414
 20
59.984782
 30
0.0
  0
LINE
  5
42b
100
AcDbEntity
  8
0
 62
7
100
AcDbLine
 10
-35.061414
 20
59.984782
 30
0.0
 11
-34.946643
 21
59.985346
 31
0.0
  0
LINE
  5
42c
100
AcDbEntity
  8
0
 62
7
100
AcDbLine
 10
-34.946643
 20
59.985346
 30
0.0
 11
-34.946655
 21
59.985383
 31
0.0
  0
LINE
  5
42d
100
AcDbEntity
  8
0
 62
7
100
AcDbLine
 10
-35.031064
 20
60.537382
 30
0.0
 11
-34.925401
 21
60.537382
 31
0.0
  0
SPLINE
  5
42e
100
AcDbEntity
  8
0
 62
7
100
AcDbSpline
 70
8
 71
3
 72
8
 73
4
 74
0
 40
0
 40
0
 40
0
 40
0
 40
1
 40
1
 40
1
 40
1
 10
-34.925401
 20
60.537382
 30
0.0
 10
-34.941595
 20
60.505803
 30
0.0
 10
-34.953740
 20
60.473010
 30
0.0
 10
-34.961836
 20
60.439004
 30
0.0
  0
SPLINE
  5
42f
100
AcDbEntity
  8
0
 62
7
100
AcDbSpline
 70
8
 71
3
 72
8
 73
4
 74
0
 40
0
 40
0
 40
0
 40
0
 40
1
 40
1
 40
1
 40
1
 10
-34.961836
 20
60.439004
 30
0.0
 10
-34.969932
 20
60.404999
 30
0.0
 10
-34.973980
 20
60.369778
 30
0.0
 10
-34.973980
 20
60.333343
 30
0.0
  0
SPLINE
  5
430
100
AcDbEntity
  8
0
 62
7
100
AcDbSpline
 70
8
 71
3
 72
8
 73
4
 74
0
 40
0
 40
0
 40
0
 40
0
 40
1
 40
1
 40
1
 40
1
 10
-34.973980
 20
60.333343
 30
0.0
 10
-34.973980
 20
60.277879
 30
0.0
 10
-34.965479
 20
60.236181
 30
0.0
 10
-34.948476
 20
60.208248
 30
0.0
  0
SPLINE
  5
431
100
AcDbEntity
  8
0
 62
7
100
AcDbSpline
 70
8
 71
3
 72
8
 73
4
 74
0
 40
0
 40
0
 40
0
 40
0
 40
1
 40
1
 40
1
 40
1
 10
-34.948476
 20
60.208248
 30
0.0
 10
-34.931473
 20
60.180719
 30
0.0
 10
-34.905968
 20
60.166954
 30
0.0
 10
-34.871962
 20
60.166954
 30
0.0
  0
SPLINE
  5
432
100
AcDbEntity
  8
0
 62
7
100
AcDbSpline
 70
8
 71
3
 72
8
 73
4
 74
0
 40
0
 40
0
 40
0
 40
0
 40
1
 40
1
 40
1
 40
1
 10
-34.871962
 20
60.166954
 30
0.0
 10
-34.846052
 20
60.166954
 30
0.0
 10
-34.825608
 20
60.176873
 30
0.0
 10
-34.810629
 20
60.196711
 30
0.0
  0
SPLINE
  5
433
100
AcDbEntity
  8
0
 62
7
100
AcDbSpline
 70
8
 71
3
 72
8
 73
4
 74
0
 40
0
 40
0
 40
0
 40
0
 40
1
 40
1
 40
1
 40
1
 10
-34.810629
 20
60.196711
 30
0.0
 10
-34.796055
 20
60.216548
 30
0.0
 10
-34.782088
 20
60.256424
 30
0.0
 10
-34.768728
 20
60.316339
 30
0.0
  0
LINE
  5
434
100
AcDbEntity
  8
0
 62
7
100
AcDbLine
 10
-34.768728
 20
60.316339
 30
0.0
 11
-34.760227
 21
60.354597
 31
0.0
  0
SPLINE
  5
435
100
AcDbEntity
  8
0
 62
7
100
AcDbSpline
 70
8
 71
3
 72
8
 73
4
 74
0
 40
0
 40
0
 40
0
 40
0
 40
1
 40
1
 40
1
 40
1
 10
-34.760227
 20
60.354597
 30
0.0
 10
-34.743224
 20
60.433945
 30
0.0
 10
-34.719136
 20
60.490217
 30
0.0
 10
-34.687964
 20
60.523414
 30
0.0
  0
SPLINE
  5
436
100
AcDbEntity
  8
0
 62
7
100
AcDbSpline
 70
8
 71
3
 72
8
 73
4
 74
0
 40
0
 40
0
 40
0
 40
0
 40
1
 40
1
 40
1
 40
1
 10
-34.687964
 20
60.523414
 30
0.0
 10
-34.657196
 20
60.557016
 30
0.0
 10
-34.614081
 20
60.573816
 30
0.0
 10
-34.558618
 20
60.573816
 30
0.0
  0
SPLINE
  5
437
100
AcDbEntity
  8
0
 62
7
100
AcDbSpline
 70
8
 71
3
 72
8
 73
4
 74
0
 40
0
 40
0
 40
0
 40
0
 40
1
 40
1
 40
1
 40
1
 10
-34.558618
 20
60.573816
 30
0.0
 10
-34.495463
 20
60.573816
 30
0.0
 10
-34.445466
 20
60.548716
 30
0.0
 10
-34.408626
 20
60.498517
 30
0.0
  0
SPLINE
  5
438
100
AcDbEntity
  8
0
 62
7
100
AcDbSpline
 70
8
 71
3
 72
8
 73
4
 74
0
 40
0
 40
0
 40
0
 40
0
 40
1
 40
1
 40
1
 40
1
 10
-34.408626
 20
60.498517
 30
0.0
 10
-34.371785
 20
60.448721
 30
0.0
 10
-34.353365
 20
60.380101
 30
0.0
 10
-34.353365
 20
60.292655
 30
0.0
  0
SPLINE
  5
439
100
AcDbEntity
  8
0
 62
7
100
AcDbSpline
 70
8
 71
3
 72
8
 73
4
 74
0
 40
0
 40
0
 40
0
 40
0
 40
1
 40
1
 40
1
 40
1
 10
-34.353365
 20
60.292655
 30
0.0
 10
-34.353365
 20
60.256220
 30
0.0
 10
-34.357009
 20
60.218166
 30
0.0
 10
-34.364296
 20
60.178491
 30
0.0
  0
SPLINE
  5
43a
100
AcDbEntity
  8
0
 62
7
100
AcDbSpline
 70
8
 71
3
 72
8
 73
4
 74
0
 40
0
 40
0
 40
0
 40
0
 40
1
 40
1
 40
1
 40
1
 10
-34.364296
 20
60.178491
 30
0.0
 10
-34.371178
 20
60.139222
 30
0.0
 10
-34.381704
 20
60.097727
 30
0.0
 10
-34.395873
 20
60.054005
 30
0.0
  0
LINE
  5
43b
100
AcDbEntity
  8
0
 62
7
100
AcDbLine
 10
-34.395873
 20
60.054005
 30
0.0
 11
-34.511252
 21
60.054005
 31
0.0
  0
SPLINE
  5
43c
100
AcDbEntity
  8
0
 62
7
100
AcDbSpline
 70
8
 71
3
 72
8
 73
4
 74
0
 40
0
 40
0
 40
0
 40
0
 40
1
 40
1
 40
1
 40
1
 10
-34.511252
 20
60.054005
 30
0.0
 10
-34.489795
 20
60.095298
 30
0.0
 10
-34.473602
 20
60.135984
 30
0.0
 10
-34.462671
 20
60.176064
 30
0.0
  0
SPLINE
  5
43d
100
AcDbEntity
  8
0
 62
7
100
AcDbSpline
 70
8
 71
3
 72
8
 73
4
 74
0
 40
0
 40
0
 40
0
 40
0
 40
1
 40
1
 40
1
 40
1
 10
-34.462671
 20
60.176064
 30
0.0
 10
-34.452144
 20
60.216143
 30
0.0
 10
-34.446881
 20
60.255817
 30
0.0
 10
-34.446881
 20
60.295085
 30
0.0
  0
SPLINE
  5
43e
100
AcDbEntity
  8
0
 62
7
100
AcDbSpline
 70
8
 71
3
 72
8
 73
4
 74
0
 40
0
 40
0
 40
0
 40
0
 40
1
 40
1
 40
1
 40
1
 10
-34.446881
 20
60.295085
 30
0.0
 10
-34.446881
 20
60.347714
 30
0.0
 10
-34.455788
 20
60.388198
 30
0.0
 10
-34.473602
 20
60.416537
 30
0.0
  0
SPLINE
  5
43f
100
AcDbEntity
  8
0
 62
7
100
AcDbSpline
 70
8
 71
3
 72
8
 73
4
 74
0
 40
0
 40
0
 40
0
 40
0
 40
1
 40
1
 40
1
 40
1
 10
-34.473602
 20
60.416537
 30
0.0
 10
-34.491820
 20
60.444876
 30
0.0
 10
-34.517325
 20
60.459045
 30
0.0
 10
-34.550116
 20
60.459045
 30
0.0
  0
SPLINE
  5
440
100
AcDbEntity
  8
0
 62
7
100
AcDbSpline
 70
8
 71
3
 72
8
 73
4
 74
0
 40
0
 40
0
 40
0
 40
0
 40
1
 40
1
 40
1
 40
1
 10
-34.550116
 20
60.459045
 30
0.0
 10
-34.580479
 20
60.459045
 30
0.0
 10
-34.603757
 20
60.448721
 30
0.0
 10
-34.619951
 20
60.428074
 30
0.0
  0
SPLINE
  5
441
100
AcDbEntity
  8
0
 62
7
100
AcDbSpline
 70
8
 71
3
 72
8
 73
4
 74
0
 40
0
 40
0
 40
0
 40
0
 40
1
 40
1
 40
1
 40
1
 10
-34.619951
 20
60.428074
 30
0.0
 10
-34.636145
 20
60.407833
 30
0.0
 10
-34.651731
 20
60.363099
 30
0.0
 10
-34.666709
 20
60.293872
 30
0.0
  0
LINE
  5
442
100
AcDbEntity
  8
0
 62
7
100
AcDbLine
 10
-34.666709
 20
60.293872
 30
0.0
 11
-34.675819
 21
60.255007
 31
0.0
  0
SPLINE
  5
443
100
AcDbEntity
  8
0
 62
7
100
AcDbSpline
 70
8
 71
3
 72
8
 73
4
 74
0
 40
0
 40
0
 40
0
 40
0
 40
1
 40
1
 40
1
 40
1
 10
-34.675819
 20
60.255007
 30
0.0
 10
-34.690393
 20
60.185780
 30
0.0
 10
-34.712659
 20
60.135782
 30
0.0
 10
-34.742618
 20
60.105014
 30
0.0
  0
SPLINE
  5
444
100
AcDbEntity
  8
0
 62
7
100
AcDbSpline
 70
8
 71
3
 72
8
 73
4
 74
0
 40
0
 40
0
 40
0
 40
0
 40
1
 40
1
 40
1
 40
1
 10
-34.742618
 20
60.105014
 30
0.0
 10
-34.772981
 20
60.074246
 30
0.0
 10
-34.814476
 20
60.058862
 30
0.0
 10
-34.867105
 20
60.058862
 30
0.0
  0
SPLINE
  5
445
100
AcDbEntity
  8
0
 62
7
100
AcDbSpline
 70
8
 71
3
 72
8
 73
4
 74
0
 40
0
 40
0
 40
0
 40
0
 40
1
 40
1
 40
1
 40
1
 10
-34.867105
 20
60.058862
 30
0.0
 10
-34.931069
 20
60.058862
 30
0.0
 10
-34.980460
 20
60.081533
 30
0.0
 10
-35.015276
 20
60.126875
 30
0.0
  0
SPLINE
  5
446
100
AcDbEntity
  8
0
 62
7
100
AcDbSpline
 70
8
 71
3
 72
8
 73
4
 74
0
 40
0
 40
0
 40
0
 40
0
 40
1
 40
1
 40
1
 40
1
 10
-35.015276
 20
60.126875
 30
0.0
 10
-35.050092
 20
60.172217
 30
0.0
 10
-35.067500
 20
60.236586
 30
0.0
 10
-35.067500
 20
60.319983
 30
0.0
  0
SPLINE
  5
447
100
AcDbEntity
  8
0
 62
7
100
AcDbSpline
 70
8
 71
3
 72
8
 73
4
 74
0
 40
0
 40
0
 40
0
 40
0
 40
1
 40
1
 40
1
 40
1
 10
-35.067500
 20
60.319983
 30
0.0
 10
-35.067500
 20
60.361276
 30
0.0
 10
-35.064463
 20
60.400141
 30
0.0
 10
-35.058390
 20
60.436577
 30
0.0
  0
SPLINE
  5
448
100
AcDbEntity
  8
0
 62
7
100
AcDbSpline
 70
8
 71
3
 72
8
 73
4
 74
0
 40
0
 40
0
 40
0
 40
0
 40
1
 40
1
 40
1
 40
1
 10
-35.058390
 20
60.436577
 30
0.0
 10
-35.052316
 20
60.473012
 30
0.0
 10
-35.043207
 20
60.506614
 30
0.0
 10
-35.031062
 20
60.537382
 30
0.0
  0
LINE
  5
449
100
AcDbEntity
  8
0
 62
7
100
AcDbLine
 10
-35.031062
 20
60.537382
 30
0.0
 11
-35.031064
 21
60.537382
 31
0.0
  0
LINE
  5
44a
100
AcDbEntity
  8
0
 62
7
100
AcDbLine
 10
-35.051103
 20
60.752350
 30
0.0
 11
-35.051103
 21
60.864085
 31
0.0
  0
LINE
  5
44b
100
AcDbEntity
  8
0
 62
7
100
AcDbLine
 10
-35.051103
 20
60.864085
 30
0.0
 11
-34.370976
 21
60.864085
 31
0.0
  0
LINE
  5
44c
100
AcDbEntity
  8
0
 62
7
100
AcDbLine
 10
-34.370976
 20
60.864085
 30
0.0
 11
-34.370976
 21
60.752350
 31
0.0
  0
LINE
  5
44d
100
AcDbEntity
  8
0
 62
7
100
AcDbLine
 10
-34.370976
 20
60.752350
 30
0.0
 11
-35.051103
 21
60.752350
 31
0.0
  0
LINE
  5
44e
100
AcDbEntity
  8
0
 62
7
100
AcDbLine
 10
-35.051103
 20
60.752350
 30
0.0
 11
-35.051103
 21
60.752350
 31
0.0
  0
LINE
  5
44f
100
AcDbEntity
  8
0
 62
7
100
AcDbLine
 10
-35.315867
 20
60.752350
 30
0.0
 11
-35.315867
 21
60.864085
 31
0.0
  0
LINE
  5
450
100
AcDbEntity
  8
0
 62
7
100
AcDbLine
 10
-35.315867
 20
60.864085
 30
0.0
 11
-35.174376
 21
60.864085
 31
0.0
  0
LINE
  5
451
100
AcDbEntity
  8
0
 62
7
100
AcDbLine
 10
-35.174376
 20
60.864085
 30
0.0
 11
-35.174376
 21
60.752350
 31
0.0
  0
LINE
  5
452
100
AcDbEntity
  8
0
 62
7
100
AcDbLine
 10
-35.174376
 20
60.752350
 30
0.0
 11
-35.315867
 21
60.752350
 31
0.0
  0
LINE
  5
453
100
AcDbEntity
  8
0
 62
7
100
AcDbLine
 10
-35.315867
 20
60.752350
 30
0.0
 11
-35.315867
 21
60.752350
 31
0.0
  0
SPLINE
  5
454
100
AcDbEntity
  8
0
 62
7
100
AcDbSpline
 70
8
 71
3
 72
8
 73
4
 74
0
 40
0
 40
0
 40
0
 40
0
 40
1
 40
1
 40
1
 40
1
 10
-34.972767
 20
61.360821
 30
0.0
 10
-34.972767
 20
61.300905
 30
0.0
 10
-34.949286
 20
61.253539
 30
0.0
 10
-34.902325
 20
61.218722
 30
0.0
  0
SPLINE
  5
455
100
AcDbEntity
  8
0
 62
7
100
AcDbSpline
 70
8
 71
3
 72
8
 73
4
 74
0
 40
0
 40
0
 40
0
 40
0
 40
1
 40
1
 40
1
 40
1
 10
-34.902325
 20
61.218722
 30
0.0
 10
-34.855769
 20
61.183907
 30
0.0
 10
-34.791805
 20
61.166500
 30
0.0
 10
-34.710432
 20
61.166500
 30
0.0
  0
SPLINE
  5
456
100
AcDbEntity
  8
0
 62
7
100
AcDbSpline
 70
8
 71
3
 72
8
 73
4
 74
0
 40
0
 40
0
 40
0
 40
0
 40
1
 40
1
 40
1
 40
1
 10
-34.710432
 20
61.166500
 30
0.0
 10
-34.629060
 20
61.166500
 30
0.0
 10
-34.564893
 20
61.183705
 30
0.0
 10
-34.517932
 20
61.218116
 30
0.0
  0
SPLINE
  5
457
100
AcDbEntity
  8
0
 62
7
100
AcDbSpline
 70
8
 71
3
 72
8
 73
4
 74
0
 40
0
 40
0
 40
0
 40
0
 40
1
 40
1
 40
1
 40
1
 10
-34.517932
 20
61.218116
 30
0.0
 10
-34.471376
 20
61.252932
 30
0.0
 10
-34.448097
 20
61.300501
 30
0.0
 10
-34.448097
 20
61.360821
 30
0.0
  0
SPLINE
  5
458
100
AcDbEntity
  8
0
 62
7
100
AcDbSpline
 70
8
 71
3
 72
8
 73
4
 74
0
 40
0
 40
0
 40
0
 40
0
 40
1
 40
1
 40
1
 40
1
 10
-34.448097
 20
61.360821
 30
0.0
 10
-34.448097
 20
61.420332
 30
0.0
 10
-34.471578
 20
61.467496
 30
0.0
 10
-34.518539
 20
61.502310
 30
0.0
  0
SPLINE
  5
459
100
AcDbEntity
  8
0
 62
7
100
AcDbSpline
 70
8
 71
3
 72
8
 73
4
 74
0
 40
0
 40
0
 40
0
 40
0
 40
1
 40
1
 40
1
 40
1
 10
-34.518539
 20
61.502310
 30
0.0
 10
-34.565500
 20
61.537127
 30
0.0
 10
-34.629465
 20
61.554536
 30
0.0
 10
-34.710432
 20
61.554536
 30
0.0
  0
SPLINE
  5
45a
100
AcDbEntity
  8
0
 62
7
100
AcDbSpline
 70
8
 71
3
 72
8
 73
4
 74
0
 40
0
 40
0
 40
0
 40
0
 40
1
 40
1
 40
1
 40
1
 10
-34.710432
 20
61.554536
 30
0.0
 10
-34.790995
 20
61.554536
 30
0.0
 10
-34.854757
 20
61.537127
 30
0.0
 10
-34.901718
 20
61.502310
 30
0.0
  0
SPLINE
  5
45b
100
AcDbEntity
  8
0
 62
7
100
AcDbSpline
 70
8
 71
3
 72
8
 73
4
 74
0
 40
0
 40
0
 40
0
 40
0
 40
1
 40
1
 40
1
 40
1
 10
-34.901718
 20
61.502310
 30
0.0
 10
-34.949084
 20
61.467496
 30
0.0
 10
-34.972767
 20
61.420332
 30
0.0
 10
-34.972767
 20
61.360821
 30
0.0
  0
LINE
  5
45c
100
AcDbEntity
  8
0
 62
7
100
AcDbLine
 10
-34.972767
 20
61.360821
 30
0.0
 11
-34.972767
 21
61.360821
 31
0.0
  0
SPLINE
  5
45d
100
AcDbEntity
  8
0
 62
7
100
AcDbSpline
 70
8
 71
3
 72
8
 73
4
 74
0
 40
0
 40
0
 40
0
 40
0
 40
1
 40
1
 40
1
 40
1
 10
-35.067499
 20
61.360821
 30
0.0
 10
-35.067499
 20
61.457983
 30
0.0
 10
-35.035922
 20
61.534295
 30
0.0
 10
-34.972767
 20
61.589757
 30
0.0
  0
SPLINE
  5
45e
100
AcDbEntity
  8
0
 62
7
100
AcDbSpline
 70
8
 71
3
 72
8
 73
4
 74
0
 40
0
 40
0
 40
0
 40
0
 40
1
 40
1
 40
1
 40
1
 10
-34.972767
 20
61.589757
 30
0.0
 10
-34.909612
 20
61.645219
 30
0.0
 10
-34.822167
 20
61.672950
 30
0.0
 10
-34.710432
 20
61.672950
 30
0.0
  0
SPLINE
  5
45f
100
AcDbEntity
  8
0
 62
7
100
AcDbSpline
 70
8
 71
3
 72
8
 73
4
 74
0
 40
0
 40
0
 40
0
 40
0
 40
1
 40
1
 40
1
 40
1
 10
-34.710432
 20
61.672950
 30
0.0
 10
-34.599102
 20
61.672950
 30
0.0
 10
-34.511657
 20
61.645219
 30
0.0
 10
-34.448097
 20
61.589757
 30
0.0
  0
SPLINE
  5
460
100
AcDbEntity
  8
0
 62
7
100
AcDbSpline
 70
8
 71
3
 72
8
 73
4
 74
0
 40
0
 40
0
 40
0
 40
0
 40
1
 40
1
 40
1
 40
1
 10
-34.448097
 20
61.589757
 30
0.0
 10
-34.384943
 20
61.534295
 30
0.0
 10
-34.353365
 20
61.457983
 30
0.0
 10
-34.353365
 20
61.360821
 30
0.0
  0
SPLINE
  5
461
100
AcDbEntity
  8
0
 62
7
100
AcDbSpline
 70
8
 71
3
 72
8
 73
4
 74
0
 40
0
 40
0
 40
0
 40
0
 40
1
 40
1
 40
1
 40
1
 10
-34.353365
 20
61.360821
 30
0.0
 10
-34.353365
 20
61.263255
 30
0.0
 10
-34.384943
 20
61.186741
 30
0.0
 10
-34.448097
 20
61.131279
 30
0.0
  0
SPLINE
  5
462
100
AcDbEntity
  8
0
 62
7
100
AcDbSpline
 70
8
 71
3
 72
8
 73
4
 74
0
 40
0
 40
0
 40
0
 40
0
 40
1
 40
1
 40
1
 40
1
 10
-34.448097
 20
61.131279
 30
0.0
 10
-34.511657
 20
61.076221
 30
0.0
 10
-34.599102
 20
61.048692
 30
0.0
 10
-34.710432
 20
61.048692
 30
0.0
  0
SPLINE
  5
463
100
AcDbEntity
  8
0
 62
7
100
AcDbSpline
 70
8
 71
3
 72
8
 73
4
 74
0
 40
0
 40
0
 40
0
 40
0
 40
1
 40
1
 40
1
 40
1
 10
-34.710432
 20
61.048692
 30
0.0
 10
-34.822167
 20
61.048692
 30
0.0
 10
-34.909612
 20
61.076221
 30
0.0
 10
-34.972767
 20
61.131279
 30
0.0
  0
SPLINE
  5
464
100
AcDbEntity
  8
0
 62
7
100
AcDbSpline
 70
8
 71
3
 72
8
 73
4
 74
0
 40
0
 40
0
 40
0
 40
0
 40
1
 40
1
 40
1
 40
1
 10
-34.972767
 20
61.131279
 30
0.0
 10
-35.035922
 20
61.186741
 30
0.0
 10
-35.067499
 20
61.263255
 30
0.0
 10
-35.067499
 20
61.360821
 30
0.0
  0
LINE
  5
465
100
AcDbEntity
  8
0
 62
7
100
AcDbLine
 10
-35.067499
 20
61.360821
 30
0.0
 11
-35.067499
 21
61.360821
 31
0.0
  0
LINE
  5
466
100
AcDbEntity
  8
0
 62
7
100
AcDbLine
 10
-34.781481
 20
62.422911
 30
0.0
 11
-34.370976
 21
62.422911
 31
0.0
  0
LINE
  5
467
100
AcDbEntity
  8
0
 62
7
100
AcDbLine
 10
-34.370976
 20
62.422911
 30
0.0
 11
-34.370976
 21
62.311176
 31
0.0
  0
LINE
  5
468
100
AcDbEntity
  8
0
 62
7
100
AcDbLine
 10
-34.370976
 20
62.311176
 30
0.0
 11
-34.777838
 21
62.311176
 31
0.0
  0
SPLINE
  5
469
100
AcDbEntity
  8
0
 62
7
100
AcDbSpline
 70
8
 71
3
 72
8
 73
4
 74
0
 40
0
 40
0
 40
0
 40
0
 40
1
 40
1
 40
1
 40
1
 10
-34.777838
 20
62.311176
 30
0.0
 10
-34.842207
 20
62.311176
 30
0.0
 10
-34.890383
 20
62.298627
 30
0.0
 10
-34.922365
 20
62.273528
 30
0.0
  0
SPLINE
  5
46a
100
AcDbEntity
  8
0
 62
7
100
AcDbSpline
 70
8
 71
3
 72
8
 73
4
 74
0
 40
0
 40
0
 40
0
 40
0
 40
1
 40
1
 40
1
 40
1
 10
-34.922365
 20
62.273528
 30
0.0
 10
-34.954347
 20
62.248427
 30
0.0
 10
-34.970338
 20
62.210777
 30
0.0
 10
-34.970338
 20
62.160577
 30
0.0
  0
SPLINE
  5
46b
100
AcDbEntity
  8
0
 62
7
100
AcDbSpline
 70
8
 71
3
 72
8
 73
4
 74
0
 40
0
 40
0
 40
0
 40
0
 40
1
 40
1
 40
1
 40
1
 10
-34.970338
 20
62.160577
 30
0.0
 10
-34.970338
 20
62.100257
 30
0.0
 10
-34.951108
 20
62.052688
 30
0.0
 10
-34.912648
 20
62.017871
 30
0.0
  0
SPLINE
  5
46c
100
AcDbEntity
  8
0
 62
7
100
AcDbSpline
 70
8
 71
3
 72
8
 73
4
 74
0
 40
0
 40
0
 40
0
 40
0
 40
1
 40
1
 40
1
 40
1
 10
-34.912648
 20
62.017871
 30
0.0
 10
-34.874189
 20
61.983056
 30
0.0
 10
-34.821762
 20
61.965649
 30
0.0
 10
-34.755369
 20
61.965649
 30
0.0
  0
LINE
  5
46d
100
AcDbEntity
  8
0
 62
7
100
AcDbLine
 10
-34.755369
 20
61.965649
 30
0.0
 11
-34.370976
 21
61.965649
 31
0.0
  0
LINE
  5
46e
100
AcDbEntity
  8
0
 62
7
100
AcDbLine
 10
-34.370976
 20
61.965649
 30
0.0
 11
-34.370976
 21
61.853305
 31
0.0
  0
LINE
  5
46f
100
AcDbEntity
  8
0
 62
7
100
AcDbLine
 10
-34.370976
 20
61.853305
 30
0.0
 11
-35.051103
 21
61.853305
 31
0.0
  0
LINE
  5
470
100
AcDbEntity
  8
0
 62
7
100
AcDbLine
 10
-35.051103
 20
61.853305
 30
0.0
 11
-35.051103
 21
61.965649
 31
0.0
  0
LINE
  5
471
100
AcDbEntity
  8
0
 62
7
100
AcDbLine
 10
-35.051103
 20
61.965649
 30
0.0
 11
-34.945440
 21
61.965649
 31
0.0
  0
SPLINE
  5
472
100
AcDbEntity
  8
0
 62
7
100
AcDbSpline
 70
8
 71
3
 72
8
 73
4
 74
0
 40
0
 40
0
 40
0
 40
0
 40
1
 40
1
 40
1
 40
1
 10
-34.945440
 20
61.965649
 30
0.0
 10
-34.986329
 20
61.992368
 30
0.0
 10
-35.016894
 20
62.023742
 30
0.0
 10
-35.037136
 20
62.059773
 30
0.0
  0
SPLINE
  5
473
100
AcDbEntity
  8
0
 62
7
100
AcDbSpline
 70
8
 71
3
 72
8
 73
4
 74
0
 40
0
 40
0
 40
0
 40
0
 40
1
 40
1
 40
1
 40
1
 10
-35.037136
 20
62.059773
 30
0.0
 10
-35.057378
 20
62.096208
 30
0.0
 10
-35.067499
 20
62.138108
 30
0.0
 10
-35.067499
 20
62.185474
 30
0.0
  0
SPLINE
  5
474
100
AcDbEntity
  8
0
 62
7
100
AcDbSpline
 70
8
 71
3
 72
8
 73
4
 74
0
 40
0
 40
0
 40
0
 40
0
 40
1
 40
1
 40
1
 40
1
 10
-35.067499
 20
62.185474
 30
0.0
 10
-35.067499
 20
62.263609
 30
0.0
 10
-35.043209
 20
62.322715
 30
0.0
 10
-34.994628
 20
62.362795
 30
0.0
  0
SPLINE
  5
475
100
AcDbEntity
  8
0
 62
7
100
AcDbSpline
 70
8
 71
3
 72
8
 73
4
 74
0
 40
0
 40
0
 40
0
 40
0
 40
1
 40
1
 40
1
 40
1
 10
-34.994628
 20
62.362795
 30
0.0
 10
-34.946453
 20
62.402872
 30
0.0
 10
-34.875404
 20
62.422911
 30
0.0
 10
-34.781481
 20
62.422911
 30
0.0
  0
LINE
  5
476
100
AcDbEntity
  8
0
 62
7
100
AcDbLine
 10
-34.781481
 20
62.422911
 30
0.0
 11
-34.781481
 21
62.422911
 31
0.0
  0
LINE
  5
477
100
AcDbEntity
  8
0
 62
7
100
AcDbLine
 10
-34.474209
 20
63.079964
 30
0.0
 11
-34.474209
 21
63.280358
 31
0.0
  0
LINE
  5
478
100
AcDbEntity
  8
0
 62
7
100
AcDbLine
 10
-34.474209
 20
63.280358
 30
0.0
 11
-35.165875
 21
63.280358
 31
0.0
  0
LINE
  5
479
100
AcDbEntity
  8
0
 62
7
100
AcDbLine
 10
-35.165875
 20
63.280358
 30
0.0
 11
-35.122152
 21
63.062353
 31
0.0
  0
LINE
  5
47a
100
AcDbEntity
  8
0
 62
7
100
AcDbLine
 10
-35.122152
 20
63.062353
 30
0.0
 11
-35.233887
 21
63.062353
 31
0.0
  0
LINE
  5
47b
100
AcDbEntity
  8
0
 62
7
100
AcDbLine
 10
-35.233887
 20
63.062353
 30
0.0
 11
-35.277610
 21
63.279145
 31
0.0
  0
LINE
  5
47c
100
AcDbEntity
  8
0
 62
7
100
AcDbLine
 10
-35.277610
 20
63.279145
 30
0.0
 11
-35.277610
 21
63.401810
 31
0.0
  0
LINE
  5
47d
100
AcDbEntity
  8
0
 62
7
100
AcDbLine
 10
-35.277610
 20
63.401810
 30
0.0
 11
-34.474209
 21
63.401810
 31
0.0
  0
LINE
  5
47e
100
AcDbEntity
  8
0
 62
7
100
AcDbLine
 10
-34.474209
 20
63.401810
 30
0.0
 11
-34.474209
 21
63.602204
 31
0.0
  0
LINE
  5
47f
100
AcDbEntity
  8
0
 62
7
100
AcDbLine
 10
-34.474209
 20
63.602204
 30
0.0
 11
-34.370976
 21
63.602204
 31
0.0
  0
LINE
  5
480
100
AcDbEntity
  8
0
 62
7
100
AcDbLine
 10
-34.370976
 20
63.602204
 30
0.0
 11
-34.370976
 21
63.079964
 31
0.0
  0
LINE
  5
481
100
AcDbEntity
  8
0
 62
7
100
AcDbLine
 10
-34.370976
 20
63.079964
 30
0.0
 11
-34.474209
 21
63.079964
 31
0.0
  0
LINE
  5
482
100
AcDbEntity
  8
0
 62
7
100
AcDbLine
 10
-34.474209
 20
63.079964
 30
0.0
 11
-34.474209
 21
63.079964
 31
0.0
  0
ENDSEC
  0
SECTION
  2
OBJECTS
  0
DICTIONARY
  5
C
330
0
100
AcDbDictionary
  3
ACAD_GROUP
350
D
  3
ACAD_MLINESTYLE
350
17
  0
DICTIONARY
  5
D
330
C
100
AcDbDictionary
  0
DICTIONARY
  5
1A
330
C
100
AcDbDictionary
  0
DICTIONARY
  5
17
330
C
100
AcDbDictionary
  3
STANDARD
350
18
  0
DICTIONARY
  5
19
330
C
100
AcDbDictionary
  0
ENDSEC
  0
EOF
